<svg xmlns="http://www.w3.org/2000/svg" xmlns:xlink="http://www.w3.org/1999/xlink" width="1258" height="641.939" viewBox="0 0 1258 641.939">
  <defs>
    <filter id="Trazado_116859" x="754.002" y="0" width="503.997" height="587.665" filterUnits="userSpaceOnUse">
      <feOffset dy="3" input="SourceAlpha"/>
      <feGaussianBlur stdDeviation="3" result="blur"/>
      <feFlood flood-opacity="0.161"/>
      <feComposite operator="in" in2="blur"/>
      <feComposite in="SourceGraphic"/>
    </filter>
    <filter id="Trazado_114463" x="1239.999" y="0" width="18" height="148.996" filterUnits="userSpaceOnUse">
      <feOffset dy="3" input="SourceAlpha"/>
      <feGaussianBlur stdDeviation="3" result="blur-2"/>
      <feFlood flood-opacity="0.161"/>
      <feComposite operator="in" in2="blur-2"/>
      <feComposite in="SourceGraphic"/>
    </filter>
    <filter id="Trazado_114463-2" x="640.313" y="492.942" width="18" height="148.996" filterUnits="userSpaceOnUse">
      <feOffset dy="3" input="SourceAlpha"/>
      <feGaussianBlur stdDeviation="3" result="blur-3"/>
      <feFlood flood-opacity="0.161"/>
      <feComposite operator="in" in2="blur-3"/>
      <feComposite in="SourceGraphic"/>
    </filter>
    <filter id="Trazado_116856" x="0" y="8.665" width="262" height="192" filterUnits="userSpaceOnUse">
      <feOffset dy="3" input="SourceAlpha"/>
      <feGaussianBlur stdDeviation="3" result="blur-4"/>
      <feFlood flood-opacity="0.161"/>
      <feComposite operator="in" in2="blur-4"/>
      <feComposite in="SourceGraphic"/>
    </filter>
    <filter id="Trazado_116857" x="0" y="328.665" width="262" height="259" filterUnits="userSpaceOnUse">
      <feOffset dy="3" input="SourceAlpha"/>
      <feGaussianBlur stdDeviation="3" result="blur-5"/>
      <feFlood flood-opacity="0.161"/>
      <feComposite operator="in" in2="blur-5"/>
      <feComposite in="SourceGraphic"/>
    </filter>
    <filter id="Trazado_116858" x="376" y="467.665" width="282" height="120" filterUnits="userSpaceOnUse">
      <feOffset dy="3" input="SourceAlpha"/>
      <feGaussianBlur stdDeviation="3" result="blur-6"/>
      <feFlood flood-opacity="0.161"/>
      <feComposite operator="in" in2="blur-6"/>
      <feComposite in="SourceGraphic"/>
    </filter>
  </defs>
  <g id="Grupo_112195" data-name="Grupo 112195" transform="translate(-171 -723.335)">
    <g id="Grupo_111885" data-name="Grupo 111885" transform="translate(449.002 -1819.665)">
      <g transform="matrix(1, 0, 0, 1, -278, 2543)" filter="url(#Trazado_116859)">
        <path id="Trazado_116859-2" data-name="Trazado 116859" d="M10,0H476a10,10,0,0,1,10,10V559.665a10,10,0,0,1-10,10H10a10,10,0,0,1-10-10V10A10,10,0,0,1,10,0Z" transform="translate(763 6)" fill="#ffecc1"/>
      </g>
      <g transform="matrix(1, 0, 0, 1, -278, 2543)" filter="url(#Trazado_114463)">
        <path id="Trazado_114463-3" data-name="Trazado 114463" d="M131,0h0Z" transform="translate(1249 6) rotate(90)" fill="#b9ddfc"/>
      </g>
      <text id="Debe_llevar_un_libreto_preparado_con_anticipación_bajo_los_siguientes_parámetros:_Realizar_una_investigación_previa_acerca_de_la_empresa_misión_visión_revisar_su_página_web_._Determinar_los_objetivos_de_la_entrevista_focalizando_nuestra_aten" data-name="Debe llevar un libreto preparado con anticipación, bajo los siguientes parámetros: 

   Realizar una investigación previa, acerca de la empresa (misión, visión, revisar su página web).

   Determinar los objetivos de la entrevista, focalizando nuestra aten" transform="translate(516 2576)" fill="#12263f" font-size="16" font-family="Roboto-Bold, Roboto" font-weight="700"><tspan x="0" y="17">Debe llevar un libreto preparado con anticipación, bajo los </tspan><tspan x="0" y="41">siguientes parámetros: </tspan><tspan font-family="Roboto-Regular, Roboto" font-weight="400"><tspan x="0" y="65"></tspan><tspan x="0" y="89" xml:space="preserve">   Realizar una investigación previa, acerca de la empresa </tspan><tspan x="0" y="113">(misión, visión, revisar su página web).</tspan><tspan x="0" y="137"></tspan><tspan x="0" y="161" xml:space="preserve">   Determinar los objetivos de la entrevista, focalizando </tspan><tspan x="0" y="185">nuestra atención en las áreas, procesos, departamentos, </tspan><tspan x="0" y="209">objeto del estudio.</tspan><tspan x="0" y="233"></tspan><tspan x="0" y="257" xml:space="preserve">   Determinar quiénes serán los entrevistados, justificando </tspan><tspan x="0" y="281">cada caso.</tspan><tspan x="0" y="305"></tspan><tspan x="0" y="329" xml:space="preserve">   Escribir un guion; es decir, preparar la entrevista, lo cual </tspan><tspan x="0" y="353">implica hablar previamente con los entrevistados y realizar </tspan><tspan x="0" y="377">un pequeño preámbulo de la entrevista. </tspan><tspan x="0" y="401"></tspan><tspan x="0" y="425" xml:space="preserve">   No olvidar que una entrevista es una charla en la que el </tspan><tspan x="0" y="449">entrevistador, realiza una serie de preguntas al </tspan><tspan x="0" y="473">entrevistado, con el objeto de conocer su percepción, ideas, </tspan><tspan x="0" y="497">puntos de vista, etc.</tspan></tspan></text>
    </g>
    <g transform="matrix(1, 0, 0, 1, 171, 723.33)" filter="url(#Trazado_114463-2)">
      <path id="Trazado_114463-4" data-name="Trazado 114463" d="M131,0h0Z" transform="translate(649.31 498.94) rotate(90)" fill="#b9ddfc"/>
    </g>
    <g id="Grupo_111893" data-name="Grupo 111893" transform="translate(-16 -50)">
      <g transform="matrix(1, 0, 0, 1, 187, 773.33)" filter="url(#Trazado_116856)">
        <path id="Trazado_116856-2" data-name="Trazado 116856" d="M10,0H234a10,10,0,0,1,10,10V164a10,10,0,0,1-10,10H10A10,10,0,0,1,0,164V10A10,10,0,0,1,10,0Z" transform="translate(9 14.67)" fill="#ffecc1"/>
      </g>
      <text id="Es_una_conversación_dirigida_con_un_propósito_específico_y_que_usa_un_formato_de_preguntas_y_respuestas_su_objetivo_es_recopilar_información." data-name="Es una conversación dirigida, con un propósito específico y que usa un formato de preguntas y respuestas, su objetivo es recopilar información." transform="translate(211 803)" fill="#12263f" font-size="16" font-family="Roboto-Regular, Roboto"><tspan x="0" y="17">Es una conversación dirigida, </tspan><tspan x="0" y="41">con un propósito específico y </tspan><tspan x="0" y="65">que usa un formato de </tspan><tspan x="0" y="89">preguntas y respuestas, su </tspan><tspan x="0" y="113">objetivo es recopilar </tspan><tspan x="0" y="137">información.</tspan></text>
    </g>
    <g id="Grupo_111894" data-name="Grupo 111894" transform="translate(-16 270)">
      <g transform="matrix(1, 0, 0, 1, 187, 453.33)" filter="url(#Trazado_116857)">
        <path id="Trazado_116857-2" data-name="Trazado 116857" d="M10,0H234a10,10,0,0,1,10,10V231a10,10,0,0,1-10,10H10A10,10,0,0,1,0,231V10A10,10,0,0,1,10,0Z" transform="translate(9 334.67)" fill="#ffecc1"/>
      </g>
      <text id="Indica_que_se_establece_una_charla_aunque_no_tan_libre_puesto_que_debe_haber_un_libreto_preestablecido_lo_cual_la_hace_peculiar_asimétrica_donde_una_de_las_partes_busca_recolectar_información_y_la_otra_se_nos_presenta_como_fuente" data-name="Indica que se establece una charla, aunque no tan libre, puesto que debe haber un libreto preestablecido, lo cual la hace peculiar, asimétrica, donde una de las partes busca recolectar información y la otra se nos presenta como fuente" transform="translate(211 803)" fill="#12263f" font-size="16" font-family="Roboto-Regular, Roboto"><tspan x="0" y="17">Indica que se establece una </tspan><tspan x="0" y="41">charla, aunque no tan libre, </tspan><tspan x="0" y="65">puesto que debe haber un </tspan><tspan x="0" y="89">libreto preestablecido, lo cual </tspan><tspan x="0" y="113">la hace peculiar, asimétrica, </tspan><tspan x="0" y="137">donde una de las partes </tspan><tspan x="0" y="161">busca recolectar información </tspan><tspan x="0" y="185">y la otra se nos presenta </tspan></text>
    </g>
    <g id="Grupo_111895" data-name="Grupo 111895" transform="translate(556 1197)">
      <g transform="matrix(1, 0, 0, 1, -385, -473.67)" filter="url(#Trazado_116858)">
        <path id="Trazado_116858-2" data-name="Trazado 116858" d="M10,0H254a10,10,0,0,1,10,10V92a10,10,0,0,1-10,10H10A10,10,0,0,1,0,92V10A10,10,0,0,1,10,0Z" transform="translate(385 473.67)" fill="#ffecc1"/>
      </g>
      <text id="Esta_técnica_se_utiliza_cuando_se_requiere_ir_a_la_fuente_directa_y_principal_de_información_inicial." data-name="Esta técnica se utiliza cuando se requiere ir a la fuente directa y principal de información inicial." transform="translate(15 15)" fill="#12263f" font-size="16" font-family="Roboto-Regular, Roboto"><tspan x="0" y="17">Esta técnica se utiliza cuando se </tspan><tspan x="0" y="41">requiere ir a la fuente directa y </tspan><tspan x="0" y="65">principal de información inicial.</tspan></text>
    </g>
    <g id="Grupo_111892" data-name="Grupo 111892" transform="translate(-151.977 251.83)">
      <g id="Grupo_111887" data-name="Grupo 111887">
        <circle id="Elipse_4712-2" data-name="Elipse 4712-2" cx="156.473" cy="156.473" r="156.473" transform="translate(681.504 578.509)" fill="#ecf2f9"/>
      </g>
      <g id="Grupo_109262" data-name="Grupo 109262">
        <g id="Grupo_109248" data-name="Grupo 109248">
          <g id="Grupo_109245" data-name="Grupo 109245">
            <path id="Trazado_114400" data-name="Trazado 114400" d="M757.24,853.751h.126a1.711,1.711,0,0,0,1.733-1.689c0-.047,0-.094,0-.141l-6.873-68.64-6,.535,9.869,69.009A1.117,1.117,0,0,0,757.24,853.751Z" fill="#8cb4f4"/>
          </g>
          <g id="Grupo_109246" data-name="Grupo 109246">
            <path id="Trazado_114401" data-name="Trazado 114401" d="M691.063,853.751h-.126a1.711,1.711,0,0,1-1.733-1.689c0-.047,0-.094,0-.141l6.873-68.64,6,.535-9.869,69.009A1.117,1.117,0,0,1,691.063,853.751Z" fill="#8cb4f4"/>
          </g>
          <g id="Grupo_109247" data-name="Grupo 109247">
            <path id="Trazado_114402" data-name="Trazado 114402" d="M805.728,853.751h.126a1.71,1.71,0,0,0,1.733-1.686c0-.048,0-.1,0-.144l-6.873-68.64-6,.535,9.869,69.009A1.117,1.117,0,0,0,805.728,853.751Z" fill="#8cb4f4"/>
          </g>
          <path id="Trazado_114403" data-name="Trazado 114403" d="M693.107,773.3l-12.2-60.247c-1.566-8.157,5.193-15.616,13.97-15.415l23.528.537a18.587,18.587,0,0,1,17.43,13.417L753.684,773.3Z" fill="#8cb4f4"/>
          <path id="Trazado_114404" data-name="Trazado 114404" d="M700.488,773.3l-12.2-60.247c-1.566-8.157,5.193-15.616,13.969-15.415l23.529.537a18.587,18.587,0,0,1,17.43,13.417L761.065,773.3Z" fill="#8cb4f4"/>
          <path id="Rectángulo_40176" data-name="Rectángulo 40176" d="M787.5,784.285H698.6a5.494,5.494,0,0,1-5.494-5.494h0V773.3H787.5A5.494,5.494,0,0,1,793,778.791h0A5.494,5.494,0,0,1,787.5,784.285Z" fill="#8cb4f4"/>
          <path id="Rectángulo_40177" data-name="Rectángulo 40177" d="M796.778,784.285H742.946a5.494,5.494,0,0,1-5.494-5.494h0a5.494,5.494,0,0,1,5.494-5.494h53.832a5.494,5.494,0,0,1,5.494,5.494h0A5.494,5.494,0,0,1,796.778,784.285Z" fill="#8cb4f4"/>
        </g>
        <g id="Grupo_109251" data-name="Grupo 109251">
          <g id="Grupo_109250" data-name="Grupo 109250">
            <path id="Trazado_114405" data-name="Trazado 114405" d="M774.2,760.689c-5.036,8.765-11.37,12.148-11.37,12.148H736.48S778.043,754,774.2,760.689Z" fill="#233862"/>
            <g id="Grupo_109249" data-name="Grupo 109249">
              <path id="Trazado_114406" data-name="Trazado 114406" d="M806.7,847.766c-.285,2.765,3.561,3.479,8.02,3.749s3.1,1.169,9.2,2.343,8.572-.474,9.023-1.3c.4-.729-2.429-1.906-5.445-3.234-.38-.166-.759-.337-1.139-.508-3.394-1.536-5.275-4.615-7.9-7.479-2.49-2.713-4.789-11.338-4.789-11.338l-8.291-1.864s2.25,7.764,3.025,11.077c.456,1.948-.271,4.114-.912,5.761A10.869,10.869,0,0,0,806.7,847.766Z" fill="#ffb27d"/>
              <path id="Trazado_114407" data-name="Trazado 114407" d="M814.722,851.516c4.46.27,3.1,1.17,9.205,2.343s8.572-.474,9.023-1.3c.4-.728-2.429-1.906-5.445-3.234l-.048.052a17.413,17.413,0,0,1-9.264.011c-4.034-1.141-7.919-3.6-10.7-4.412a10.872,10.872,0,0,0-.794,2.787C806.417,850.532,810.263,851.247,814.722,851.516Z" fill="#0f2549"/>
              <path id="Trazado_114408" data-name="Trazado 114408" d="M794.141,751.711c-4.461-3.133-33.973-8.718-49.033-10.333l-16.646-14.45s-14.169,20.986-14.281,37.041c-.053,7.486,3.4,8.229,3.4,8.231s53.362.4,55.7.637c3.829.4,8.879,9.933,10.141,18.62s23.512,44.025,23.512,44.025,4.641,1.487,6.787,1.361a6.776,6.776,0,0,0,3.376-.909S804.2,758.775,794.141,751.711Z" fill="#233862"/>
              <path id="Trazado_114409" data-name="Trazado 114409" d="M792.9,847.766c-.285,2.765,3.561,3.479,8.02,3.749s3.1,1.169,9.2,2.343,8.572-.474,9.024-1.3c.4-.729-2.429-1.906-5.445-3.234-.379-.166-.759-.337-1.139-.508-3.394-1.536-5.274-4.615-7.9-7.479-2.49-2.713-4.789-11.338-4.789-11.338l-8.291-1.864s2.25,7.764,3.025,11.077c.455,1.948-.271,4.114-.913,5.761A10.87,10.87,0,0,0,792.9,847.766Z" fill="#ffb27d"/>
              <path id="Trazado_114410" data-name="Trazado 114410" d="M800.92,851.516c4.46.27,3.1,1.17,9.2,2.343s8.572-.474,9.024-1.3c.4-.728-2.429-1.906-5.445-3.234l-.047.052a17.413,17.413,0,0,1-9.264.011c-4.033-1.141-7.919-3.6-10.7-4.412a10.86,10.86,0,0,0-.795,2.787C792.615,850.532,796.461,851.247,800.92,851.516Z" fill="#233862"/>
              <path id="Trazado_114411" data-name="Trazado 114411" d="M780.217,751.711c-3.876-2.721-15.533-4.831-28.4-6.4a8.654,8.654,0,0,1-7.348-6.5h0l-29.936-11.883s-14.169,20.986-14.281,37.041c-.052,7.486,3.4,8.229,3.4,8.231s53.362.4,55.7.637c3.829.4,8.879,9.933,10.141,18.62s23.514,44.021,23.514,44.021,4.64,1.487,6.786,1.361a6.775,6.775,0,0,0,3.376-.909S790.277,758.775,780.217,751.711Z" fill="#2b478b"/>
              <path id="Trazado_114412" data-name="Trazado 114412" d="M740.165,639.735c-4.113-2.16-10.371-2.452-11.388-2.588-12.167-1.635-19.489,16.044-19.92,21.4-.794,9.874-6.017,11.38-13.369,17.563-14.742,12.4-10.419,26.807-2.358,32.16,4.837,3.212,13.362,0,13.362,0,.121.084,23.315-12.966,34.748-19.261C758.38,686.573,750.647,645.239,740.165,639.735Z" fill="#233862"/>
              <path id="Trazado_114413" data-name="Trazado 114413" d="M737.628,682.928c.053.027-5.406,2.51-9.347,1.208-3.707-1.221-6.973-6.8-6.92-6.811,1.609-.233,3.245-1.82,3.7-11.227l.713.179,11.981,3.028s-.474,3.8-.669,7.384C736.92,679.7,736.955,682.57,737.628,682.928Z" fill="#ffb27d"/>
              <path id="Trazado_114414" data-name="Trazado 114414" d="M737.753,669.3s0,.781-.448,4.312c-6.776-1.709-9.764-3.956-11.871-6.528Z" fill="#ed975d"/>
              <path id="Trazado_114415" data-name="Trazado 114415" d="M740.312,669.782s-15.844,2.58-17.3-7.312-4.479-16.22,5.575-18.285,12.579,1.42,13.868,4.6S744.4,668.856,740.312,669.782Z" fill="#ffb27d"/>
              <path id="Trazado_114416" data-name="Trazado 114416" d="M740.327,643.77s-7.2,11.357-13.618,14.047-9.578,1.324-9.578,1.324a27.063,27.063,0,0,0,3.683-10.38,4.868,4.868,0,0,1,3.008-3.914C728.431,643,737.347,640.091,740.327,643.77Z" fill="#233862"/>
              <path id="Trazado_114417" data-name="Trazado 114417" d="M734.007,644.869s4.217,2.162,5.954,4.188c1.676,1.955,3.612,7.261,3.473,9.644,0,0,2.08-11.419-2.253-15.344C736.587,639.194,734.007,644.869,734.007,644.869Z" fill="#233862"/>
              <path id="Trazado_114418" data-name="Trazado 114418" d="M750.3,707.092c-.481,32.2-.132,25.475-3.655,28.531-.848.736-3.235,1.174-6.376,1.382-9.875.656-27.234-.971-27.894-2.8-2.278-6.315-.669-8.276-2.57-17.944-.2-1.028-.443-2.141-.731-3.353-1.585-6.64-3.127-8.9,2.495-19.566,5.1-9.663,11.092-17.513,11.569-17.23,13.45,7.984,13.91,1.291,13.91,1.291S750.539,691.383,750.3,707.092Z" fill="#fff"/>
              <path id="Trazado_114419" data-name="Trazado 114419" d="M737.051,677.407s13.765,2.333,15.39,8.292,11.188,40.988,11.188,40.988-7.035,1.264-10.286-1.986-11.309-30.154-11.309-30.154Z" fill="#fff"/>
              <path id="Trazado_114420" data-name="Trazado 114420" d="M740.272,737c-9.875.656-27.234-.971-27.894-2.8-2.278-6.314-.67-8.276-2.57-17.944l4.763-13.412s-.788,14.935,3.617,18.863,18.033,7.583,20.174,10.865A12.024,12.024,0,0,1,740.272,737Z" fill="#ebf3ff"/>
              <path id="Trazado_114421" data-name="Trazado 114421" d="M728.958,730.723s9.743-2.169,11.314-1.3,5.414,4.013,5.9,5.109-3.5-.832-4.794-1.179c-.838-.225-3.046.542-4.138.907-4.6,1.532-7.416.744-7.416.744Z" fill="#ffb27d"/>
              <path id="Trazado_114422" data-name="Trazado 114422" d="M723.141,676.117s-13.789.806-18.317,7.122c-6.374,8.891-19.02,46.782-11.773,51.836,8.162,5.691,37.146,1.489,37.146,1.489s.965-4.508-.378-6.689-23.15-5.7-24.156-6.71,12.582-19.627,12.582-22.647S723.141,676.117,723.141,676.117Z" fill="#fff"/>
              <path id="Trazado_114423" data-name="Trazado 114423" d="M740.744,732.13a18.766,18.766,0,0,0,2.711,2.944,1.994,1.994,0,0,0,1.1.236l-1.376-2.476Z" fill="#ffb27d"/>
              <path id="Trazado_114424" data-name="Trazado 114424" d="M740.273,729.418l5.935,2.882a1.057,1.057,0,0,1-.983.38,14.078,14.078,0,0,1-2.574-.708Z" fill="#ffb27d"/>
            </g>
          </g>
        </g>
        <g id="Grupo_109252" data-name="Grupo 109252">
          <path id="Trazado_114425" data-name="Trazado 114425" d="M762.135,736.25H734.571a2.2,2.2,0,0,1,2.2-2.2h25.367Z" fill="#ffb30b"/>
          <path id="Trazado_114426" data-name="Trazado 114426" d="M762.056,706.23h42.616L794.45,736.25H751.557Z" fill="#ffb30b"/>
          <path id="Trazado_114427" data-name="Trazado 114427" d="M805.3,706.232,795.076,736.25H752.185l10.5-30.02Z" fill="#ffb30b"/>
          <path id="Trazado_114428" data-name="Trazado 114428" d="M782.323,720.962a2.772,2.772,0,0,1-2.556,2.077,1.6,1.6,0,0,1-1.672-1.525,1.618,1.618,0,0,1,.072-.552,2.771,2.771,0,0,1,2.556-2.077,1.6,1.6,0,0,1,1.6,2.077Z" fill="#ffb30b"/>
        </g>
        <g id="Grupo_109256" data-name="Grupo 109256">
          <path id="Rectángulo_40178" data-name="Rectángulo 40178" d="M727,736.25H909.845a3.377,3.377,0,0,1,3.377,3.377h0A3.377,3.377,0,0,1,909.845,743H727a3.377,3.377,0,0,1-3.377-3.377h0A3.377,3.377,0,0,1,727,736.25Z" fill="#182d4f"/>
          <g id="Grupo_109253" data-name="Grupo 109253">
            <path id="Trazado_114429" data-name="Trazado 114429" d="M916.372,854.255l.08-.01a1.712,1.712,0,0,0,1.514-1.892v-.015L901.323,739.686l-6.092.175,19.581,113.261A1.4,1.4,0,0,0,916.372,854.255Z" fill="#182d4f"/>
          </g>
          <g id="Grupo_109254" data-name="Grupo 109254">
            <path id="Trazado_114430" data-name="Trazado 114430" d="M718.79,854.255l-.08-.01a1.715,1.715,0,0,1-1.515-1.894l0-.013,16.642-112.652,6.093.175L720.349,853.122A1.4,1.4,0,0,1,718.79,854.255Z" fill="#182d4f"/>
          </g>
          <g id="Grupo_109255" data-name="Grupo 109255">
            <path id="Trazado_114431" data-name="Trazado 114431" d="M757.319,854.255l-.08-.01a1.715,1.715,0,0,1-1.515-1.894l0-.013,16.642-112.653,6.093.175L758.88,853.121A1.4,1.4,0,0,1,757.319,854.255Z" fill="#182d4f"/>
          </g>
        </g>
        <path id="Rectángulo_40179" data-name="Rectángulo 40179" d="M683.573,853.192H1006.5a1,1,0,0,1,1,1h0a1,1,0,0,1-1,1H683.573a1,1,0,0,1-1-1h0A1,1,0,0,1,683.573,853.192Z" fill="#2e3552"/>
        <g id="Grupo_109257" data-name="Grupo 109257">
          <path id="Trazado_114432" data-name="Trazado 114432" d="M855.5,854.165h33.025c1.588-1.939,1-9.091.763-11.426-.05-.47-.084-.745-.084-.745s-11.277-9.02-12.826-2.113c-.047.217-.1.428-.167.638-1.952,6.46-10.705,9.4-15.76,10.214C857.164,851.265,855.949,852.973,855.5,854.165Z" fill="#233862"/>
          <path id="Trazado_114433" data-name="Trazado 114433" d="M945.612,746.856c-1.192,0-56.569,10.4-65.729,21.736-4.576,5.665-5.256,71.081-5.256,71.081s5.661,7.019,17.887,2.944c0,0,8.965-44.757,8.3-58.332-.183-3.754,37.836-.543,44.8-2.344S969.575,765,965.829,757.628,945.612,746.856,945.612,746.856Z" fill="#233862"/>
          <path id="Trazado_114434" data-name="Trazado 114434" d="M880.12,730.838s-11.171.151-13.812,1.283-8,3.731-6.566,4.13,8.277-.164,9.755.062a24.946,24.946,0,0,0,4.208-.062h5.13Z" fill="#ffb27d"/>
          <path id="Trazado_114435" data-name="Trazado 114435" d="M867.061,704.031a20.418,20.418,0,0,0-7.507-3.25,32.394,32.394,0,0,1-5.4-1.114c-3.413-1.2-10.24-7.342-9.724-8.062,1.656-2.308,9.628,2.576,11.018,2.052s-2.674-3.415-1.26-4.432c.739-.531,2.467,2.13,3.879,2.4,1.911.361,3.4,3.06,3.979,3.2,1.12.274,6.024,3.921,6.024,3.921Z" fill="#ffb27d"/>
          <path id="Trazado_114436" data-name="Trazado 114436" d="M940.1,672.25s-8.5,2.635-16.88,25.706-11.559,24.315-14.6,25.221-29.781,6.226-29.781,6.226v6.847h41.186s15.443-14.691,20.073-24.581S940.1,672.25,940.1,672.25Z" fill="#ffb30b"/>
          <path id="Trazado_114437" data-name="Trazado 114437" d="M840.905,854.165h33.024c1.588-1.939,1-9.091.763-11.426-.049-.47-.083-.745-.083-.745s-11.277-9.02-12.826-2.113c-.047.217-.1.428-.167.638-1.951,6.46-10.7,9.4-15.76,10.214C842.568,851.265,841.354,852.973,840.905,854.165Z" fill="#1b3051"/>
          <path id="Trazado_114438" data-name="Trazado 114438" d="M929.293,746.856c-1.192,0-56.569,10.4-65.729,21.736-4.576,5.665-5.256,71.081-5.256,71.081s5.661,7.019,17.887,2.944c0,0,8.965-44.757,8.3-58.332-.183-3.754,37.836-.543,44.795-2.344S953.251,765,949.5,757.628,929.293,746.856,929.293,746.856Z" fill="#2b478b"/>
          <path id="Trazado_114439" data-name="Trazado 114439" d="M932.759,679.561A53.693,53.693,0,0,0,944.529,677c4.513-1.464,8.15-3.6,5.806-7.729-2.16-3.8-5.656-12.293-5.42-19.328l-8.4,6.767-5.7,4.6a68.229,68.229,0,0,0,.647,7.459q.17,1.3.4,2.8a2.033,2.033,0,0,1-.938,2.043l-.128.081a3.185,3.185,0,0,0,1.963,5.869Z" fill="#ffb27d"/>
          <path id="Trazado_114440" data-name="Trazado 114440" d="M930.814,660.187s-.292.984.21,4.617c5.085-.83,9.839-4.886,9.839-4.886-2.589-.711-3.532-3.508-5.459-3.247Z" fill="#ed975d"/>
          <path id="Trazado_114441" data-name="Trazado 114441" d="M926.111,661.016s19.56,3.25,21.4-8.963,5.6-20.018-6.814-22.609-15.544,1.7-17.148,5.63S921.07,659.856,926.111,661.016Z" fill="#ffb27d"/>
          <path id="Trazado_114442" data-name="Trazado 114442" d="M920.668,629.67c-.84,2.941,1.408,6.523,5.182,7.7,5.6,1.75,4.364,8.621,6.885,8.528s3.537-3.949,5.788-.869c1.92,2.628-1.6,5.744-1.356,7.185.415,2.474,4.291,7.536,7.783,7.282s10.028-16.851,8.72-21.986-6.535-10.55-11.483-11.3-11.82,1.39-13.407,1.39S921.122,628.078,920.668,629.67Z" fill="#2b478b"/>
          <path id="Trazado_114443" data-name="Trazado 114443" d="M966.087,689.2c-2.827-11.379-10.641-23.32-15.925-23.31-9,.017-21.946,2.393-27.172,15.284-3.849,9.5-8.982,64.109-3.181,67.993,13.264,8.879,44.007,27,49.468,8.52C974.282,740.751,970.994,708.949,966.087,689.2Z" fill="#ffb30b"/>
          <path id="Trazado_114444" data-name="Trazado 114444" d="M944.22,677.876a10.663,10.663,0,0,0-16.5-4.6A100.909,100.909,0,0,0,916.4,683.852c-16.8,17.892-20.216,17.781-23.372,17.411s-29.816-6.028-29.816-6.028a8.069,8.069,0,0,0-2.169,2.635,4.968,4.968,0,0,0-.533,3.656c-1.044-.675,9.45,6.559,14.674,9.444,6.9,3.809,17.294,7.38,21.434,8.737a5.531,5.531,0,0,0,3.6-.054c6.145-2.215,26.782-10.286,43.582-24.291C948.232,691.675,946.6,684.07,944.22,677.876Z" fill="#ffb30b"/>
          <path id="Trazado_114445" data-name="Trazado 114445" d="M951.068,666l-2.038-4.592s-18.246,1.488-21.312,11.873C927.718,673.281,941.861,666.223,951.068,666Z" fill="#fff"/>
        </g>
        <g id="Grupo_109261" data-name="Grupo 109261">
          <g id="Grupo_109258" data-name="Grupo 109258">
            <path id="Trazado_114446" data-name="Trazado 114446" d="M995.366,853.751h.126a1.711,1.711,0,0,0,1.733-1.689c0-.047,0-.094,0-.141l-6.873-68.64-6,.535,9.869,69.009A1.116,1.116,0,0,0,995.366,853.751Z" fill="#8cb4f4"/>
          </g>
          <g id="Grupo_109259" data-name="Grupo 109259">
            <path id="Trazado_114447" data-name="Trazado 114447" d="M959.99,853.751h.126a1.711,1.711,0,0,0,1.733-1.689c0-.047,0-.094,0-.141l-6.873-68.64-6,.535,9.869,69.009A1.116,1.116,0,0,0,959.99,853.751Z" fill="#8cb4f4"/>
          </g>
          <g id="Grupo_109260" data-name="Grupo 109260">
            <path id="Trazado_114448" data-name="Trazado 114448" d="M893.577,853.751h-.126a1.711,1.711,0,0,1-1.733-1.689,1.326,1.326,0,0,1,0-.141l6.873-68.64,6,.535-9.869,69.009A1.118,1.118,0,0,1,893.577,853.751Z" fill="#73a2e5"/>
          </g>
          <path id="Trazado_114449" data-name="Trazado 114449" d="M993.424,773.556l6.524-57.329c.855-8.262-1.91-16.351-13.831-16.977l-20.973-1.277c-12.431-.513-18.044,9.833-19.618,17.8l-12.451,63.019Z" fill="#8cb4f4"/>
          <path id="Rectángulo_40180" data-name="Rectángulo 40180" d="M898.925,773.3h94.394v5.494a5.494,5.494,0,0,1-5.494,5.494h-88.9a5.494,5.494,0,0,1-5.494-5.494h0A5.494,5.494,0,0,1,898.925,773.3Z" fill="#73a2e5"/>
          <path id="Rectángulo_40181" data-name="Rectángulo 40181" d="M938.568,773.3H993.32v5.494a5.494,5.494,0,0,1-5.494,5.494H938.568a5.494,5.494,0,0,1-5.494-5.494h0A5.494,5.494,0,0,1,938.568,773.3Z" fill="#8cb4f4"/>
        </g>
      </g>
      <path id="Trazado_116853" data-name="Trazado 116853" d="M1066.977,734.982c0,126.473-102.527,229-229,229s-229-102.527-229-229a227.97,227.97,0,0,1,44.147-135.194" fill="none"/>
      <path id="Trazado_116854" data-name="Trazado 116854" d="M653.124,599.788a229.043,229.043,0,0,1,373.387,5.173" fill="none"/>
      <path id="Trazado_116855" data-name="Trazado 116855" d="M659.868,592.626a228.042,228.042,0,0,1,369.287,18.07" fill="none" stroke="#004b89" stroke-width="2" stroke-dasharray="10 10"/>
      <g id="Grupo_111888" data-name="Grupo 111888">
        <circle id="Elipse_4738-2" data-name="Elipse 4738-2" cx="36.488" cy="36.488" r="36.488" transform="translate(613.813 564.17)" fill="#ecf2f9"/>
      </g>
      <g id="Grupo_111889" data-name="Grupo 111889">
        <circle id="Elipse_4740-2" data-name="Elipse 4740-2" cx="36.488" cy="36.488" r="36.488" transform="translate(989.683 564.17)" fill="#ecf2f9"/>
      </g>
      <g id="Grupo_111890" data-name="Grupo 111890">
        <circle id="Elipse_4739-2" data-name="Elipse 4739-2" cx="36.488" cy="36.488" r="36.488" transform="translate(706.703 479.17)" fill="#ecf2f9"/>
      </g>
      <g id="Grupo_111891" data-name="Grupo 111891">
        <circle id="Elipse_4741-2" data-name="Elipse 4741-2" cx="36.488" cy="36.488" r="36.488" transform="translate(868.243 479.17)" fill="#ecf2f9"/>
      </g>
      <g id="Grupo_111887-2" data-name="Grupo 111887">
        <path id="Trazado_116853-2" data-name="Trazado 116853" d="M616.4,618.268a31.105,31.105,0,0,1,1.068-3.8,12.125,12.125,0,0,1,6.783-6.694c.117-.049.23-.109.426-.2a8.646,8.646,0,0,1-4.02-7.965,8.274,8.274,0,0,1,2.867-5.844,8.652,8.652,0,0,1,12.214.741l.018.019A8.756,8.756,0,0,1,633.7,607.69a12.75,12.75,0,0,1,7.235,7.517l4.615-3.015a8.526,8.526,0,0,1-3.842-7.911,8.257,8.257,0,0,1,2.966-5.862A8.645,8.645,0,1,1,654.9,612.3l4.615,3.2c2.39-4.829,3.558-6.052,7.662-7.925-3.015-2.19-4.458-5.081-3.891-8.8a8.231,8.231,0,0,1,3.314-5.459,8.651,8.651,0,1,1,9.631,14.347c.2.1.363.189.532.274a12.471,12.471,0,0,1,7.418,11.517c.042,1.389.008,2.78.006,4.17,0,1.149-.294,1.448-1.448,1.448H662.722v3.2c0,1.27-.27,1.535-1.559,1.535H638.99c-1.289,0-1.54-.253-1.54-1.546v-3.186h-.891q-9.333,0-18.665.007a1.424,1.424,0,0,1-1.5-.727Zm23.057,9.5h21.2c.03-.212.074-.4.083-.6a19.109,19.109,0,0,0-.532-5.772,9.774,9.774,0,0,0-4.836-6.628,11.947,11.947,0,0,0-7.148-1.04,8.744,8.744,0,0,0-5.742,2.825c-2.844,3.213-3.182,7.116-3.02,11.21Zm23.2-4.769H682.09c0-1.539.1-3.041-.018-4.526a10.577,10.577,0,0,0-20.9-1.156,1.405,1.405,0,0,0,0,.832,13.6,13.6,0,0,1,1.49,4.845Zm-25.187.013c.036-.159.075-.284.09-.412a11.577,11.577,0,0,1,1.572-4.658,1.42,1.42,0,0,0,.148-1.178,10.63,10.63,0,0,0-17.189-5.321c-3.574,3.124-3.955,7.207-3.6,11.569Zm-1.616-22.768a6.6,6.6,0,1,0-6.618,6.582h.052a6.589,6.589,0,0,0,6.571-6.586Zm14.453-1.864a6.586,6.586,0,1,0,6.6,6.572v-.035a6.6,6.6,0,0,0-6.6-6.541Zm14.873,1.792a6.593,6.593,0,1,0,6.666-6.536,6.593,6.593,0,0,0-6.666,6.536Z"/>
        <path id="Trazado_116854-2" data-name="Trazado 116854" d="M650.731,591.495c.6-1.608,1.154-3.083,1.706-4.557.406-1.085.542-1.181,1.686-1.181H670.4c1.685,0,2.184-.493,2.185-2.154v-8.074c0-1.442-.566-2-2.008-2H645.1c-1.061,0-1.546-.313-1.554-1s.486-1.018,1.534-1.018h25.481c2.636,0,4.078,1.454,4.079,4.1v8.074c0,2.632-1.471,4.113-4.086,4.114-5.184,0-10.369.011-15.553-.015a.871.871,0,0,0-.979.693c-.715,1.99-1.48,3.961-2.212,5.944-.2.53-.436.975-1.089.973s-.882-.47-1.082-.988c-.774-2.014-1.577-4.018-2.329-6.04a.759.759,0,0,0-.857-.576q-9.233.023-18.465.01c-2.642,0-4.111-1.455-4.115-4.081q-.008-4.1,0-8.207a3.649,3.649,0,0,1,3.263-4,3.6,3.6,0,0,1,.712,0q4.236-.008,8.472,0a1.014,1.014,0,0,1,1.125.891,1.068,1.068,0,0,1,.007.127c-.01.594-.453.975-1.162,1h-8.273c-1.571,0-2.1.527-2.1,2.1v7.81c0,1.868.439,2.312,2.284,2.313h19c1.193,0,1.3.075,1.74,1.2q.742,1.91,1.483,3.818C650.5,590.977,650.588,591.168,650.731,591.495Z"/>
        <path id="Trazado_116855-2" data-name="Trazado 116855" d="M649.169,577.8H630.83c-.752-.022-1.205-.415-1.193-1.029s.466-.993,1.231-.993h36.6c.767,0,1.213.377,1.223,1,.01.641-.441,1.021-1.261,1.022Q658.3,577.8,649.169,577.8Z"/>
        <path id="Trazado_116856-3" data-name="Trazado 116856" d="M636.294,582.545h-5.418c-.775,0-1.219-.364-1.233-.977-.014-.639.45-1.033,1.25-1.033q5.417,0,10.835,0c.8,0,1.276.389,1.272,1.018s-.473.992-1.288.994Q639,582.548,636.294,582.545Z"/>
        <path id="Trazado_116857-3" data-name="Trazado 116857" d="M662.766,582.545h-4.631c-.762,0-1.216-.383-1.219-1s.453-1.013,1.206-1.015q4.7-.008,9.4,0c.752,0,1.2.406,1.181,1.034-.015.6-.443.971-1.168.975C665.942,582.551,664.354,582.545,662.766,582.545Z"/>
        <path id="Trazado_116858-3" data-name="Trazado 116858" d="M649.93,580.53c.88,0,1.76-.009,2.64,0a1.034,1.034,0,0,1,1.145.909c0,.03.006.061.007.091a1.019,1.019,0,0,1-1.028,1.012.846.846,0,0,1-.113-.007q-2.673.015-5.345,0a1.013,1.013,0,1,1-.011-2.008C648.126,580.521,649.028,580.531,649.93,580.53Z"/>
        <path id="Trazado_116859-3" data-name="Trazado 116859" d="M640.481,573.519a.994.994,0,1,1,1.025-.989A1.014,1.014,0,0,1,640.481,573.519Z"/>
        <path id="Trazado_116860" data-name="Trazado 116860" d="M639.458,627.763c-.162-4.094.176-8,3.02-11.211a8.744,8.744,0,0,1,5.742-2.825,11.947,11.947,0,0,1,7.148,1.04A9.774,9.774,0,0,1,660.2,621.4a19.108,19.108,0,0,1,.532,5.772c-.009.193-.053.384-.083.6Z" fill="#ffb30b"/>
        <path id="Trazado_116861" data-name="Trazado 116861" d="M662.662,622.993a13.608,13.608,0,0,0-1.481-4.85,1.4,1.4,0,0,1,0-.832,10.576,10.576,0,0,1,20.9,1.156c.117,1.485.018,2.987.018,4.526Z" fill="#084a93"/>
        <path id="Trazado_116862" data-name="Trazado 116862" d="M637.476,623.007H618.5c-.355-4.363.026-8.445,3.6-11.569a10.63,10.63,0,0,1,17.189,5.322,1.42,1.42,0,0,1-.148,1.178,11.578,11.578,0,0,0-1.573,4.658A3.152,3.152,0,0,1,637.476,623.007Z" fill="#0d7684"/>
        <path id="Trazado_116863" data-name="Trazado 116863" d="M635.859,600.239a6.6,6.6,0,1,1-6.593-6.607h.063A6.61,6.61,0,0,1,635.859,600.239Z" fill="#fccbaa"/>
        <path id="Trazado_116864" data-name="Trazado 116864" d="M650.317,598.376a6.586,6.586,0,1,1-6.612,6.56v-.029A6.58,6.58,0,0,1,650.317,598.376Z" fill="#93482b"/>
        <path id="Trazado_116865" data-name="Trazado 116865" d="M665.186,600.167a6.593,6.593,0,1,1,0,.12Q665.185,600.227,665.186,600.167Z" fill="#fccbaa"/>
      </g>
      <g id="Grupo_111888-2" data-name="Grupo 111888">
        <path id="Trazado_116866" data-name="Trazado 116866" d="M759.63,504.06a1.265,1.265,0,0,1,1.408-1.1l.027,0c4.209.009,8.418-.029,12.626.016a5.81,5.81,0,0,1,5.992,5.624q.009.258-.006.516.008,11.8,0,23.607a5.86,5.86,0,0,1-6.2,6.171c-3.213.006-6.425.009-9.638-.008a.9.9,0,0,0-.89.485c-1.314,2.11-2.65,4.206-3.99,6.3a2.417,2.417,0,0,1-4.55-1.313v-.6c0-1.4-.028-2.79.014-4.183.017-.55-.116-.7-.685-.7q-10.8.035-21.591.01a5.808,5.808,0,0,1-5.922-5.031,13.337,13.337,0,0,1-.064-2.161c0-.317-.042-.495-.417-.534A2.587,2.587,0,0,1,723.8,529.8c-1.3-2.061-2.619-4.108-3.9-6.178a1.015,1.015,0,0,0-1-.561c-3.113.026-6.226.015-9.339.013-3.3,0-5.183-1.345-6.256-4.459-.033-.1-.051-.19-.168-.212V491.8c.264-.135.221-.418.3-.638a5.834,5.834,0,0,1,5.465-4c2.188-.027,4.377.009,6.565-.018A1.257,1.257,0,0,1,716.9,488.2l.005.035c-.246.9-.55,1.158-1.458,1.161-2.016.007-4.031,0-6.047,0a3.647,3.647,0,0,0-4.015,4.026c0,7.764.046,15.528-.03,23.291a3.885,3.885,0,0,0,4.177,4.144c3.381-.1,6.768-.007,10.152-.037a1.761,1.761,0,0,1,1.7.946c.62,1.047,1.308,2.053,1.967,3.078l2.573,4.093.208-.086v-10.31c.2-.843.641-1.25,1.276-1.166s.985.59.994,1.44a9.091,9.091,0,0,1-.01,1.268c-.085.642.169.766.776.764,6.421-.023,12.842-.013,19.263-.016.6,0,1.193-.024,1.789-.036a3.62,3.62,0,0,0,4.192-3.883V493.316a3.628,3.628,0,0,0-4.192-3.892c-.323-.01-.645-.028-.968-.028H721.484c-1.073,0-1.325-.187-1.6-1.16a1.331,1.331,0,0,1,1.525-1.092q14.6.021,29.2.013a5.834,5.834,0,0,1,6.053,5.6c.006.157.006.314,0,.471q.02,5.412.025,10.825c-.008,4.01-.056,8.021-.008,12.031a6.8,6.8,0,0,1-1.694,5.226c2.336,1.2,3.214,3.147,2.359,5.141a3.785,3.785,0,0,1-4.645,2.106c-2.158-.71-2.924-2.58-2.216-5.455h-4.268c.033.12.052.212.083.3a3.768,3.768,0,0,1-5.59,4.656,3.711,3.711,0,0,1-1.318-4.5c.216-.614-.146-.477-.447-.477-3.314,0-6.627.01-9.941-.014-.515,0-.609.168-.6.637.02,2.964.009,5.929.01,8.894,0,2.613,1.445,4.05,4.073,4.051h17.49c1.32,0,2.641-.015,3.961.009.4.007.51-.116.5-.5-.028-.722-.035-1.446,0-2.167a1.1,1.1,0,0,1,1.526-1.016,1.244,1.244,0,0,1,.71,1.282c0,2.291.012,4.583.021,6.874v3.42l.189.048,4.37-6.766a2.241,2.241,0,0,1,2.389-1.206c3.2.057,6.409.005,9.613,0a3.637,3.637,0,0,0,4.19-3.9q0-11.833,0-23.667a3.609,3.609,0,0,0-4.189-3.806c-.272-.014-.544-.041-.816-.041h-11.26C760.16,505.2,759.893,505,759.63,504.06Zm-5.752,19.432a1.49,1.49,0,1,0-.067,2.979h.076a1.49,1.49,0,0,0-.009-2.979Zm-12.5,1.5a1.467,1.467,0,0,0,1.463,1.475h.064a1.489,1.489,0,0,0-.035-2.977,1.459,1.459,0,0,0-1.5,1.42c0,.029,0,.059,0,.088Z" fill="#020202"/>
        <path id="Trazado_116867" data-name="Trazado 116867" d="M750.221,520.791c-.6.013-1.192.036-1.789.036-6.421,0-12.842-.007-19.263.016-.607,0-.861-.122-.776-.764a9.091,9.091,0,0,0,.01-1.268c-.009-.85-.36-1.356-.994-1.44s-1.08.323-1.276,1.166c-.125,0-.249.005-.373.006a2.035,2.035,0,0,0-2.286,1.748,2,2,0,0,0,0,.546c0,.523.025,1.047-.006,1.568a9.061,9.061,0,0,1-.117,2.433c-.659-1.024-1.347-2.03-1.967-3.077a1.757,1.757,0,0,0-1.7-.946c-3.384.03-6.771-.065-10.152.037a3.888,3.888,0,0,1-4.177-4.144c.076-7.763.029-15.527.03-23.291a3.646,3.646,0,0,1,4.015-4.026h6.047c.907,0,1.212-.257,1.458-1.161h2.981c.278.974.531,1.161,1.6,1.161h27.767c.323,0,.645.019.968.028a5.737,5.737,0,0,1,1.53,4.2q-.08,11.448,0,22.9A5.738,5.738,0,0,1,750.221,520.791Zm-31.464-7.853a3.771,3.771,0,1,0-3.8-3.741v.023a3.791,3.791,0,0,0,3.8,3.722Zm22-7.541a3.771,3.771,0,1,0,3.775,3.767v-.026a3.8,3.8,0,0,0-3.779-3.737Zm-14.77,3.752a3.76,3.76,0,1,0,3.768-3.752h-.029a3.753,3.753,0,0,0-3.743,3.756Z" fill="#41b0bf"/>
        <path id="Trazado_116868" data-name="Trazado 116868" d="M759.628,504.061c.262.937.53,1.142,1.538,1.143h11.26c.272,0,.544.026.816.041a5.863,5.863,0,0,1,1.528,4.35q-.081,11.411,0,22.822a5.879,5.879,0,0,1-1.53,4.2c-3.2.009-6.41.061-9.613,0a2.241,2.241,0,0,0-2.389,1.206,6.208,6.208,0,0,1-.669,0,2.492,2.492,0,0,0-2.663,1.458,7.066,7.066,0,0,1-1.227,1.84c-.008-2.292-.023-4.583-.02-6.874a1.246,1.246,0,0,0-.711-1.282,1.1,1.1,0,0,0-1.526,1.016c-.037.721-.03,1.445,0,2.167.015.387-.1.51-.5.5-1.32-.024-2.641-.009-3.961-.009h-17.49c-2.628,0-4.072-1.438-4.073-4.051,0-2.965.009-5.929-.01-8.894,0-.468.091-.64.606-.637,3.314.024,6.627.011,9.941.015.3,0,.663-.137.447.477a3.71,3.71,0,0,0,1.318,4.5,3.768,3.768,0,0,0,5.59-4.656c-.032-.087-.051-.179-.084-.3h4.268c-.707,2.875.059,4.745,2.217,5.455a3.786,3.786,0,0,0,4.646-2.106c.854-1.994-.023-3.945-2.36-5.141a6.812,6.812,0,0,0,1.694-5.226c-.048-4.01,0-8.021.008-12.031Zm9,20.885a3.762,3.762,0,1,0-3.728,3.8h.037a3.732,3.732,0,0,0,3.691-3.772v-.023Z" fill="#ccf8fe"/>
        <path id="Trazado_116869" data-name="Trazado 116869" d="M773.244,536.62a5.879,5.879,0,0,0,1.53-4.2q-.088-11.41,0-22.822a5.864,5.864,0,0,0-1.528-4.35,3.611,3.611,0,0,1,4.189,3.806q.008,11.835,0,23.667a3.636,3.636,0,0,1-4.191,3.9Z" fill="#00defc"/>
        <path id="Trazado_116870" data-name="Trazado 116870" d="M750.221,520.8a5.739,5.739,0,0,0,1.529-4.273q-.074-11.448,0-22.9a5.737,5.737,0,0,0-1.53-4.2,3.629,3.629,0,0,1,4.191,3.892v23.593a3.619,3.619,0,0,1-4.19,3.888Z" fill="#00defc"/>
        <path id="Trazado_116871" data-name="Trazado 116871" d="M723.352,524.844a9.061,9.061,0,0,0,.117-2.433c.031-.521,0-1.045.006-1.568a2.035,2.035,0,0,1,2.285-2.294c.124,0,.249,0,.373-.006v10.31l-.208.086Z" fill="#00defc"/>
        <path id="Trazado_116872" data-name="Trazado 116872" d="M756.683,541.128a7.067,7.067,0,0,0,1.227-1.84,2.493,2.493,0,0,1,2.663-1.458,6.24,6.24,0,0,0,.669,0l-4.37,6.766-.189-.048Z" fill="#62daf9"/>
        <path id="Trazado_116873" data-name="Trazado 116873" d="M753.878,523.492a1.49,1.49,0,0,1,.009,2.979h0a1.49,1.49,0,1,1-.086-2.979Z" fill="#00defc"/>
        <path id="Trazado_116874" data-name="Trazado 116874" d="M741.376,525a1.458,1.458,0,0,1,1.415-1.5h.077a1.489,1.489,0,0,1,.035,2.977,1.469,1.469,0,0,1-1.526-1.41C741.376,525.046,741.376,525.024,741.376,525Z" fill="#00defc"/>
        <path id="Trazado_116875" data-name="Trazado 116875" d="M718.757,512.943a3.763,3.763,0,1,1,.012,0Zm-.038-2.307a1.45,1.45,0,0,0,1.507-1.39c0-.032,0-.063,0-.1a1.5,1.5,0,0,0-1.469-1.477,1.539,1.539,0,0,0-1.519,1.513,1.47,1.47,0,0,0,1.483,1.449Z" fill="#020202"/>
        <path id="Trazado_116876" data-name="Trazado 116876" d="M740.753,505.4a3.771,3.771,0,1,1-3.8,3.742v-.019A3.8,3.8,0,0,1,740.753,505.4Zm.027,5.234a1.469,1.469,0,0,0,1.467-1.465,1.5,1.5,0,0,0-3,0,1.469,1.469,0,0,0,1.474,1.466Z" fill="#020202"/>
        <path id="Trazado_116877" data-name="Trazado 116877" d="M725.984,509.154a3.748,3.748,0,1,1,0,.082C725.983,509.209,725.983,509.181,725.984,509.154Zm3.795,1.482a1.435,1.435,0,0,0,1.446-1.423v-.042a1.478,1.478,0,1,0-2.956,0,1.422,1.422,0,0,0,1.378,1.467c.043,0,.087,0,.131,0Z" fill="#020202"/>
        <path id="Trazado_116878" data-name="Trazado 116878" d="M768.631,524.945a3.762,3.762,0,1,1-3.8-3.725h.039a3.739,3.739,0,0,1,3.76,3.716Zm-3.776,1.525a1.5,1.5,0,1,0-.038,0Z" fill="#020202"/>
        <path id="Trazado_116879" data-name="Trazado 116879" d="M718.719,510.636a1.471,1.471,0,0,1-1.48-1.449,1.538,1.538,0,0,1,1.519-1.513,1.5,1.5,0,0,1,1.469,1.477,1.45,1.45,0,0,1-1.414,1.486C718.782,510.638,718.75,510.637,718.719,510.636Z" fill="#00defc"/>
        <path id="Trazado_116880" data-name="Trazado 116880" d="M740.78,510.635a1.47,1.47,0,0,1-1.536-1.4c0-.023,0-.045,0-.068a1.5,1.5,0,0,1,3,0A1.47,1.47,0,0,1,740.78,510.635Z" fill="#00defc"/>
        <path id="Trazado_116881" data-name="Trazado 116881" d="M729.778,510.635a1.422,1.422,0,0,1-1.508-1.332,1.252,1.252,0,0,1,0-.137,1.478,1.478,0,1,1,2.956,0,1.435,1.435,0,0,1-1.4,1.469Z" fill="#00defc"/>
        <path id="Trazado_116882" data-name="Trazado 116882" d="M764.855,526.471a1.489,1.489,0,1,1,1.507-1.495,1.474,1.474,0,0,1-1.453,1.495Z" fill="#00defc"/>
      </g>
    </g>
    <line id="Línea_265" data-name="Línea 265" y2="133" transform="translate(302.5 912.5)" fill="none" stroke="#004b89" stroke-width="2" stroke-dasharray="10 10"/>
    <line id="Línea_266" data-name="Línea 266" x1="119" transform="translate(424.5 1247.5)" fill="none" stroke="#004b89" stroke-width="2" stroke-dasharray="10 10"/>
    <line id="Línea_267" data-name="Línea 267" x2="103" transform="translate(820 1248)" fill="none" stroke="#004b89" stroke-width="2" stroke-dasharray="10"/>
    <path id="comprobado" d="M0,69.769l4.482,4.49,8.606-8.6-1.236-1.218L4.482,71.8,1.218,68.542Z" transform="translate(960.957 767.609)" fill="#084a93"/>
    <path id="comprobado-2" data-name="comprobado" d="M0,69.769l4.482,4.49,8.606-8.6-1.236-1.218L4.482,71.8,1.218,68.542Z" transform="translate(960.957 839.609)" fill="#084a93"/>
    <path id="comprobado-3" data-name="comprobado" d="M0,69.769l4.482,4.49,8.606-8.6-1.236-1.218L4.482,71.8,1.218,68.542Z" transform="translate(960.957 935.609)" fill="#084a93"/>
    <path id="comprobado-4" data-name="comprobado" d="M0,69.769l4.482,4.49,8.606-8.6-1.236-1.218L4.482,71.8,1.218,68.542Z" transform="translate(960.957 1007.609)" fill="#084a93"/>
    <path id="comprobado-5" data-name="comprobado" d="M0,69.769l4.482,4.49,8.606-8.6-1.236-1.218L4.482,71.8,1.218,68.542Z" transform="translate(960.957 1103.609)" fill="#084a93"/>
    <g id="Grupo_112049" data-name="Grupo 112049" transform="translate(633.129 -680.526)">
      <path id="Trazado_117002" data-name="Trazado 117002" d="M151.62,1470.458c-.178.046-.164.22-.206.34a4.147,4.147,0,0,1-3.966,2.934c-.121.005-.243,0-.365,0q-26.6,0-53.192,0a4.241,4.241,0,0,1-4.117-2.369,4.062,4.062,0,0,1-.425-1.878q-.005-7.113,0-14.226c0-.733.327-1.16.906-1.232a1,1,0,0,1,1.11.731,2.991,2.991,0,0,1,.052.723q0,6.748,0,13.5c0,2.012.825,2.779,2.85,2.652.182.008.363.023.545.023q25.661,0,51.323,0c.2,0,.4-.017.606-.026,1.933.139,2.8-.662,2.8-2.577q0-16.115,0-32.23c0-1.876-.9-2.679-2.8-2.495a.844.844,0,0,0-.12-.016l-51.363.007c-.344,0-.688.006-1.032.009-1.919-.194-2.815.612-2.815,2.532q0,4.711,0,9.422a3.778,3.778,0,0,1-.023.606,1.009,1.009,0,0,1-1.011.876,1,1,0,0,1-1-.818,3.036,3.036,0,0,1-.038-.665c0-3.181.047-6.364-.017-9.543a4.21,4.21,0,0,1,3.837-4.489c.446-.016.318-.335.318-.568.007-2.512,0-5.025.007-7.537a4.169,4.169,0,0,1,3.071-4.229,5.227,5.227,0,0,1,1.441-.175c3.3,0,6.605.012,9.907,0a3.548,3.548,0,0,1,3,1.426c1.134,1.452,2.311,2.87,3.442,4.325a1.068,1.068,0,0,0,.955.464q13.8-.007,27.595.014a4.26,4.26,0,0,1,4.186,2.455,5.991,5.991,0,0,1,.382,2.921c-.021.576.01.866.773.979a3.852,3.852,0,0,1,3.143,2.707c.064.176.022.407.234.519Zm-9.016-42.374c-.262-.012-.524-.033-.786-.033q-13.245,0-26.489.011a2.9,2.9,0,0,1-2.55-1.21c-1.121-1.486-2.322-2.913-3.477-4.373a1.5,1.5,0,0,0-1.227-.661q-4.829.013-9.659.019c-2.064-.1-2.85.654-2.85,2.727,0,1.9-.01,3.81.006,5.714.005.619-.28,1.518.119,1.789.457.309,1.285.072,1.951.072.182.009.363.026.545.026q22.307,0,44.615,0c.182,0,.364-.014.546-.021,2.068.207,2.068.207,2.064-1.625A2.218,2.218,0,0,0,142.6,1428.084Z" transform="translate(0 0)" fill="#030201"/>
      <path id="Trazado_117003" data-name="Trazado 117003" d="M101.5,1459.819c.344,0,.688-.009,1.032-.009l51.363-.007a.856.856,0,0,1,.12.016,3.963,3.963,0,0,1,.736,2.388q-.007,15.961.008,31.922a5.022,5.022,0,0,1-.751,2.992c-.2.009-.4.026-.606.026q-25.661,0-51.323,0c-.182,0-.363-.015-.545-.023a3.72,3.72,0,0,1-.782-2.429q.009-16.248,0-32.5A3.775,3.775,0,0,1,101.5,1459.819Zm41.813,4.113q-4.009,0-8.017,0c-.832,0-1.31.379-1.319,1.017s.488,1.042,1.294,1.06c.1,0,.2,0,.3,0h15.488a4.459,4.459,0,0,0,.665-.03,1.009,1.009,0,0,0,.834-.623c.307-.736-.207-1.417-1.11-1.421C148.743,1463.925,146.03,1463.933,143.317,1463.932Zm4.142,4.151c-1.3,0-2.594,0-3.891,0-.8,0-1.246.363-1.265,1-.019.663.443,1.07,1.26,1.072q3.921.01,7.843,0c.764,0,1.253-.423,1.254-1.037s-.485-1.028-1.25-1.032C150.094,1468.078,148.777,1468.083,147.46,1468.083Z" transform="translate(-7.268 -25.488)" fill="#ffb30b"/>
      <path id="Trazado_117004" data-name="Trazado 117004" d="M91.455,1503.567a1.064,1.064,0,0,1-1.031,1.052,1.084,1.084,0,0,1-1.026-1.059,1.029,1.029,0,0,1,2.057.008Z" transform="translate(-0.042 -52.686)" fill="#030201"/>
      <path id="Trazado_117005" data-name="Trazado 117005" d="M112.939,1425.473q4.829-.009,9.658-.019a1.5,1.5,0,0,1,1.227.661c1.156,1.46,2.356,2.887,3.477,4.373a2.9,2.9,0,0,0,2.55,1.21q13.245-.034,26.489-.011c.262,0,.524.022.786.033a4.226,4.226,0,0,1,.661,1.594,17.7,17.7,0,0,1,.082,2.466c-.182.007-.364.021-.546.021q-22.308,0-44.615,0c-.182,0-.363-.017-.545-.026,0-2.585.007-5.17-.005-7.754A3.894,3.894,0,0,1,112.939,1425.473Z" transform="translate(-14.523 -3.636)" fill="#ffb30b" opacity="0.35" style="isolation: isolate"/>
      <path id="Trazado_117006" data-name="Trazado 117006" d="M247.14,1497.1a5.021,5.021,0,0,0,.751-2.992q-.027-15.961-.008-31.922a3.963,3.963,0,0,0-.736-2.388c1.895-.184,2.8.619,2.8,2.495q0,16.115,0,32.23C249.944,1496.443,249.073,1497.244,247.14,1497.1Z" transform="translate(-100.395 -25.472)" fill="#f9a800"/>
      <path id="Trazado_117007" data-name="Trazado 117007" d="M109.164,1425.492a3.894,3.894,0,0,0-.779,2.547c.012,2.585,0,5.169.005,7.754-.667,0-1.494.238-1.951-.072-.4-.271-.114-1.169-.119-1.789-.016-1.9-.006-3.809-.006-5.714C106.314,1426.147,107.1,1425.394,109.164,1425.492Z" transform="translate(-10.747 -3.655)" fill="#fefefe"/>
      <path id="Trazado_117008" data-name="Trazado 117008" d="M236.5,1446.676a17.7,17.7,0,0,0-.082-2.466,4.227,4.227,0,0,0-.661-1.594,2.218,2.218,0,0,1,2.807,2.435C238.572,1446.883,238.572,1446.883,236.5,1446.676Z" transform="translate(-93.156 -14.532)" fill="#dc9700"/>
      <path id="Trazado_117009" data-name="Trazado 117009" d="M201.418,1471.15c2.713,0,5.426-.007,8.138,0,.9,0,1.418.685,1.11,1.421a1.009,1.009,0,0,1-.834.623,4.459,4.459,0,0,1-.665.03q-7.744,0-15.488,0c-.1,0-.2,0-.3,0-.806-.019-1.3-.427-1.294-1.06s.487-1.016,1.319-1.017Q197.409,1471.144,201.418,1471.15Z" transform="translate(-65.368 -32.706)" fill="#030201"/>
      <path id="Trazado_117010" data-name="Trazado 117010" d="M220.113,1482.559c1.317,0,2.635-.005,3.952,0,.764,0,1.251.416,1.25,1.032s-.49,1.035-1.254,1.037q-3.922.011-7.843,0c-.817,0-1.279-.409-1.26-1.072.019-.636.465-.995,1.265-1C217.519,1482.555,218.816,1482.559,220.113,1482.559Z" transform="translate(-79.921 -39.964)" fill="#030201"/>
    </g>
    <g id="Grupo_112050" data-name="Grupo 112050" transform="translate(545.71 -595.869)">
      <path id="Trazado_117012" data-name="Trazado 117012" d="M344.85,1453.214q0,10.85,0,21.7a4.187,4.187,0,0,1-3.271,4.337,5.226,5.226,0,0,1-1.232.1q-16.824,0-33.649,0a4.178,4.178,0,0,1-4.509-4.483q0-21.672,0-43.344a4.3,4.3,0,0,1,3.354-4.464,4.939,4.939,0,0,1,1.121-.078c11.235,0,22.47.028,33.705-.024a4.443,4.443,0,0,1,4.5,4.5C344.82,1438.71,344.85,1445.962,344.85,1453.214Zm-21.337-14.957c-6.332,0-12.664.007-19-.012-.5,0-.612.123-.611.616q.023,17.982.012,35.963a2.5,2.5,0,0,0,2.781,2.787h33.6a2.51,2.51,0,0,0,2.823-2.8q0-17.982.014-35.963c0-.52-.152-.6-.624-.6Q333.011,1438.271,323.513,1438.258Zm.014-1.769q9.522,0,19.044.01c.439,0,.568-.107.559-.555-.03-1.5-.006-3-.013-4.507a2.463,2.463,0,0,0-2.646-2.633q-16.959,0-33.919,0a2.462,2.462,0,0,0-2.633,2.648c-.007,1.465.019,2.93-.013,4.395-.011.5.1.658.633.656C310.869,1436.481,317.2,1436.488,323.527,1436.488Z" transform="translate(-1.515 -4.147)" fill="#020201"/>
      <path id="Trazado_117013" data-name="Trazado 117013" d="M438.7,1489.418q0,6.792,0,13.584a2.553,2.553,0,0,1-1.857,2.692,2.929,2.929,0,0,1-.837.083c-1.728,0-3.457.006-5.186,0a2.493,2.493,0,0,1-2.686-2.663q-.011-13.669-.007-27.338a1.692,1.692,0,0,1,.218-.858c1.213-2.156,2.405-4.323,3.634-6.47a1.671,1.671,0,0,1,2.951-.013c1.191,2.06,2.345,4.142,3.517,6.213a2.091,2.091,0,0,1,.26,1.073Q438.692,1482.57,438.7,1489.418Zm-8.836-2.029c0,3.512,0,7.024-.007,10.536,0,.363.047.528.475.523,2.085-.023,4.169-.019,6.254,0,.37,0,.475-.1.474-.471q-.015-10.536,0-21.073c0-.4-.124-.5-.51-.5-2.047.017-4.094.022-6.141,0-.452-.005-.557.131-.555.566C429.873,1480.44,429.865,1483.915,429.865,1487.389Zm3.661,12.807c-1.031,0-2.062.012-3.092-.007-.341-.006-.5.047-.48.446.034.823,0,1.649.012,2.474.006.645.279.931.922.935q2.615.014,5.229,0c.636,0,.922-.3.932-.938.013-.824-.013-1.65.011-2.474.01-.347-.1-.449-.442-.443C435.589,1500.209,434.557,1500.2,433.527,1500.2Zm-.07-30.966-2.95,5.3h5.9Z" transform="translate(-82.153 -30.143)" fill="#020201"/>
      <path id="Trazado_117014" data-name="Trazado 117014" d="M326.573,1458.354q9.5,0,19-.01c.472,0,.625.079.624.6q-.027,17.981-.014,35.963a2.51,2.51,0,0,1-2.823,2.8h-33.6a2.5,2.5,0,0,1-2.781-2.787q0-17.982-.012-35.963c0-.492.109-.617.611-.616C313.909,1458.361,320.241,1458.354,326.573,1458.354Zm-.018,17.487H340.98c.338,0,.677.015,1.014-.006a.833.833,0,0,0,.83-1.03c-.069-.512-.4-.729-1.145-.729q-15.131,0-30.26,0a3.3,3.3,0,0,0-.5.038.758.758,0,0,0-.681.715.844.844,0,0,0,.5.919,1.494,1.494,0,0,0,.718.09Q319,1475.843,326.555,1475.842Zm.011,10.491H312.708c-.526,0-1.052-.01-1.577,0a.826.826,0,0,0-.9.8.922.922,0,0,0,.859.94,4.4,4.4,0,0,0,.506.01q14.956,0,29.913,0a3.835,3.835,0,0,0,.673-.038.761.761,0,0,0,.657-.846.788.788,0,0,0-.666-.848,2.561,2.561,0,0,0-.561-.021Zm-.061-16.6q7.495,0,14.989,0a3.617,3.617,0,0,0,.672-.042.767.767,0,0,0,.668-.84c0-.608-.336-.885-1.1-.885q-15.187,0-30.373,0c-.76,0-1.13.287-1.131.865s.4.891,1.12.9c.132,0,.263,0,.395,0Zm.073,22.715h-15.1c-.87,0-1.255.267-1.253.86s.455.909,1.3.911h29.971a3.4,3.4,0,0,0,.618-.018.8.8,0,0,0,.723-.858c0-.617-.346-.892-1.158-.893Q334.127,1492.443,326.578,1492.445Zm0-28.768h14.648c.282,0,.565.016.844-.012a.769.769,0,0,0,.758-.815c.025-.619-.3-.908-1.067-.909q-15.24,0-30.479,0c-.094,0-.188,0-.281.011a.778.778,0,0,0-.773.8.851.851,0,0,0,.745.907,4.017,4.017,0,0,0,.563.014Zm-.006,16.545H311.58c-.98,0-1.369.247-1.354.858s.449.875,1.375.875h29.876a5.631,5.631,0,0,0,.619-.014.756.756,0,0,0,.731-.779c.042-.643-.295-.937-1.091-.937Q334.156,1480.219,326.575,1480.221Z" transform="translate(-4.575 -24.244)" fill="#ededed"/>
      <path id="Trazado_117015" data-name="Trazado 117015" d="M326.586,1439.774c-6.33,0-12.659-.008-18.988.013-.536,0-.644-.16-.633-.657.032-1.464.006-2.93.013-4.395a2.462,2.462,0,0,1,2.633-2.648q16.959,0,33.919,0a2.463,2.463,0,0,1,2.646,2.633c.007,1.5-.017,3.005.013,4.507.009.448-.12.556-.559.555Q336.108,1439.762,326.586,1439.774Zm-2.719-3.9a2.731,2.731,0,0,0-2.814-2.743,2.8,2.8,0,1,0,2.814,2.743Zm-13.894.041a2.786,2.786,0,1,0,2.793-2.784A2.75,2.75,0,0,0,309.973,1435.915Zm16.7.035a2.79,2.79,0,1,0,5.579-.046,2.822,2.822,0,0,0-2.824-2.772A2.763,2.763,0,0,0,326.675,1435.95Z" transform="translate(-4.574 -7.433)" fill="#ffb30b"/>
      <path id="Trazado_117016" data-name="Trazado 117016" d="M432.943,1503.132c0-3.474.008-6.949-.01-10.423,0-.436.1-.572.555-.566,2.047.025,4.094.02,6.141,0,.386,0,.511.1.51.5q-.017,10.537,0,21.073c0,.371-.1.474-.474.471-2.085-.017-4.169-.021-6.254,0-.428,0-.476-.16-.475-.523C432.947,1510.157,432.943,1506.645,432.943,1503.132Z" transform="translate(-85.23 -45.886)" fill="#084a93" opacity="0.8" style="isolation: isolate"/>
      <path id="Trazado_117017" data-name="Trazado 117017" d="M436.776,1558.285c1.031,0,2.062.013,3.092-.007.344-.007.452.1.442.443-.024.824,0,1.649-.011,2.474-.01.642-.3.935-.932.938q-2.614.014-5.229,0c-.642,0-.916-.29-.922-.934-.008-.825.022-1.65-.012-2.474-.017-.4.14-.452.48-.446C434.715,1558.3,435.745,1558.285,436.776,1558.285Z" transform="translate(-85.403 -88.231)" fill="#ededed"/>
      <path id="Trazado_117018" data-name="Trazado 117018" d="M437.692,1472.212l2.953,5.3h-5.9Z" transform="translate(-86.389 -33.125)" fill="#ededed"/>
      <path id="Trazado_117019" data-name="Trazado 117019" d="M332.357,1503.849q-7.551,0-15.1,0a1.494,1.494,0,0,1-.718-.09.844.844,0,0,1-.5-.92.758.758,0,0,1,.681-.715,3.28,3.28,0,0,1,.5-.038q15.13,0,30.26,0c.748,0,1.075.217,1.145.729a.833.833,0,0,1-.83,1.03c-.337.021-.676.006-1.014.006Z" transform="translate(-10.378 -52.251)" fill="#070707"/>
      <path id="Trazado_117020" data-name="Trazado 117020" d="M332.368,1536.149h15.041a2.554,2.554,0,0,1,.561.021.788.788,0,0,1,.666.847.761.761,0,0,1-.657.846,3.847,3.847,0,0,1-.673.038q-14.956,0-29.913,0a4.375,4.375,0,0,1-.506-.01.922.922,0,0,1-.859-.94.826.826,0,0,1,.9-.8c.525-.014,1.051,0,1.577,0Z" transform="translate(-10.378 -74.06)" fill="#070707"/>
      <path id="Trazado_117021" data-name="Trazado 117021" d="M332.307,1486.849H317.543c-.132,0-.263,0-.395,0-.722-.014-1.121-.337-1.12-.9s.371-.865,1.131-.865q15.187,0,30.373,0c.768,0,1.106.277,1.1.885a.767.767,0,0,1-.668.84,3.617,3.617,0,0,1-.672.042Q339.8,1486.851,332.307,1486.849Z" transform="translate(-10.377 -41.363)" fill="#070707"/>
      <path id="Trazado_117022" data-name="Trazado 117022" d="M332.381,1553.147q7.549,0,15.1,0c.812,0,1.16.276,1.158.893a.8.8,0,0,1-.723.858,3.415,3.415,0,0,1-.618.018H317.325c-.841,0-1.294-.319-1.3-.91s.383-.86,1.253-.86Z" transform="translate(-10.379 -84.946)" fill="#070707"/>
      <path id="Trazado_117023" data-name="Trazado 117023" d="M332.387,1470.079H317.345a4.036,4.036,0,0,1-.563-.014.851.851,0,0,1-.745-.907.778.778,0,0,1,.773-.8c.094-.009.188-.011.281-.011q15.24,0,30.479,0c.763,0,1.092.29,1.067.909a.769.769,0,0,1-.758.815c-.279.028-.563.012-.844.012Z" transform="translate(-10.382 -30.647)" fill="#020201"/>
      <path id="Trazado_117024" data-name="Trazado 117024" d="M332.378,1519.166q7.582,0,15.164,0c.8,0,1.133.294,1.091.938a.755.755,0,0,1-.731.779,5.631,5.631,0,0,1-.619.014H317.405c-.926,0-1.36-.277-1.375-.875s.374-.858,1.354-.858Z" transform="translate(-10.379 -63.189)" fill="#020201"/>
      <path id="Trazado_117025" data-name="Trazado 117025" d="M343.978,1437.733a2.8,2.8,0,1,1-2.814-2.743A2.731,2.731,0,0,1,343.978,1437.733Zm-2.788-.975a1.037,1.037,0,1,0,1.038,1.078A1,1,0,0,0,341.19,1436.758Z" transform="translate(-24.685 -9.292)" fill="#020201"/>
      <path id="Trazado_117026" data-name="Trazado 117026" d="M315.328,1437.774a2.786,2.786,0,1,1,2.75,2.82A2.761,2.761,0,0,1,315.328,1437.774Zm3.839.033a1.053,1.053,0,1,0-1.108,1.023A1.065,1.065,0,0,0,319.167,1437.807Z" transform="translate(-9.929 -9.292)" fill="#020201"/>
      <path id="Trazado_117027" data-name="Trazado 117027" d="M361.761,1437.81a2.763,2.763,0,0,1,2.755-2.818,2.822,2.822,0,0,1,2.824,2.772,2.79,2.79,0,1,1-5.579.046Zm2.8-1.052a1.037,1.037,0,0,0-.071,2.074,1.107,1.107,0,0,0,1.107-1.047A1.007,1.007,0,0,0,364.562,1436.758Z" transform="translate(-39.66 -9.293)" fill="#020201"/>
      <path id="Trazado_117028" data-name="Trazado 117028" d="M344.331,1439.9a1.037,1.037,0,1,1-.02,2.074,1.037,1.037,0,1,1,.02-2.074Z" transform="translate(-27.826 -12.438)" fill="#fbfbfb"/>
      <path id="Trazado_117029" data-name="Trazado 117029" d="M322.251,1440.952a1.065,1.065,0,0,1-1.108,1.023,1.038,1.038,0,1,1,1.108-1.023Z" transform="translate(-13.013 -12.437)" fill="#fbfbfb"/>
      <path id="Trazado_117030" data-name="Trazado 117030" d="M367.651,1439.9a1.007,1.007,0,0,1,1.036,1.027,1.107,1.107,0,0,1-1.108,1.047,1.038,1.038,0,0,1,.071-2.074Z" transform="translate(-42.749 -12.437)" fill="#fbfbfb"/>
    </g>
    <g id="Polígono_36" data-name="Polígono 36" transform="translate(310 1056) rotate(180)" fill="#004b89">
      <path d="M 14.16491603851318 13.5 L 0.8350850939750671 13.5 L 7.500000476837158 1.05882465839386 L 14.16491603851318 13.5 Z" stroke="none"/>
      <path d="M 7.500000476837158 2.117649078369141 L 1.670169830322266 13 L 13.32983112335205 13 L 7.500000476837158 2.117649078369141 M 7.500000476837158 0 L 15 14 L 9.5367431640625e-07 14 L 7.500000476837158 0 Z" stroke="none" fill="#004b89"/>
    </g>
    <g id="Polígono_37" data-name="Polígono 37" transform="translate(553.5 1240) rotate(90)" fill="#004b89">
      <path d="M 14.16491603851318 13.5 L 0.8350850939750671 13.5 L 7.500000476837158 1.05882465839386 L 14.16491603851318 13.5 Z" stroke="none"/>
      <path d="M 7.500000476837158 2.117649078369141 L 1.670169830322266 13 L 13.32983112335205 13 L 7.500000476837158 2.117649078369141 M 7.500000476837158 0 L 15 14 L 9.5367431640625e-07 14 L 7.500000476837158 0 Z" stroke="none" fill="#004b89"/>
    </g>
    <g id="Polígono_38" data-name="Polígono 38" transform="translate(932 1240) rotate(90)" fill="#004b89">
      <path d="M 14.16491603851318 13.5 L 0.8350850939750671 13.5 L 7.500000476837158 1.05882465839386 L 14.16491603851318 13.5 Z" stroke="none"/>
      <path d="M 7.500000476837158 2.117649078369141 L 1.670169830322266 13 L 13.32983112335205 13 L 7.500000476837158 2.117649078369141 M 7.500000476837158 0 L 15 14 L 9.5367431640625e-07 14 L 7.500000476837158 0 Z" stroke="none" fill="#004b89"/>
    </g>
  </g>
</svg>
