<svg xmlns="http://www.w3.org/2000/svg" xmlns:xlink="http://www.w3.org/1999/xlink" width="1006.01" height="411.451" viewBox="0 0 1006.01 411.451">
  <defs>
    <linearGradient id="linear-gradient" x1="0.5" x2="0.5" y2="1" gradientUnits="objectBoundingBox">
      <stop offset="0" stop-color="#004e96"/>
      <stop offset="1" stop-color="#0c284a"/>
    </linearGradient>
    <filter id="Rectángulo_40543" x="18.999" y="21.367" width="968.225" height="374.719" filterUnits="userSpaceOnUse">
      <feOffset dy="3" input="SourceAlpha"/>
      <feGaussianBlur stdDeviation="3" result="blur"/>
      <feFlood flood-opacity="0.161"/>
      <feComposite operator="in" in2="blur"/>
      <feComposite in="SourceGraphic"/>
    </filter>
  </defs>
  <g id="Grupo_112210" data-name="Grupo 112210" transform="translate(-297.001 -5065.561)">
    <g id="Grupo_110679" data-name="Grupo 110679" transform="translate(-53 -2950.355)">
      <path id="Image_Place_Holder" data-name="Image Place Holder" d="M0,0H926.009V328.9H0Z" transform="translate(390 8056)" fill="url(#linear-gradient)"/>
      <g id="Right" transform="translate(412 8078)">
        <rect id="BG" width="881.209" height="285.268" fill="#fff" opacity="0.949"/>
      </g>
      <g transform="matrix(1, 0, 0, 1, 350, 8015.92)" filter="url(#Rectángulo_40543)">
        <g id="Rectángulo_40543-2" data-name="Rectángulo 40543" transform="translate(28 384.09) rotate(-90)" fill="none" stroke="#b9ddfc" stroke-width="2" stroke-dasharray="10">
          <rect width="356.719" height="950.225" rx="4" stroke="none"/>
          <rect x="1" y="1" width="354.719" height="948.225" rx="3" fill="none"/>
        </g>
      </g>
      <g id="Grupo_110677" data-name="Grupo 110677" transform="translate(1308.24 8427.367) rotate(-135)" style="isolation: isolate">
        <path id="Trazado_114472" data-name="Trazado 114472" d="M1.289,30.667,31.957,0V17.409l-14.5,14.5a2.644,2.644,0,0,0,0,3.738l14.5,14.5v17.41L1.289,36.89A4.4,4.4,0,0,1,1.289,30.667Z" transform="translate(0 0)" fill="#ffb30b" style="mix-blend-mode: overlay;isolation: isolate"/>
        <path id="Trazado_114473" data-name="Trazado 114473" d="M1.289,30.667,31.957,0V17.409l-14.5,14.5a2.644,2.644,0,0,0,0,3.738l14.5,14.5v17.41L1.289,36.89A4.4,4.4,0,0,1,1.289,30.667Z" transform="translate(0 0)" fill="#ffb30b" style="mix-blend-mode: overlay;isolation: isolate"/>
      </g>
    </g>
    <g id="Grupo_110678" data-name="Grupo 110678" transform="translate(344.771 5065.561) rotate(45)" style="isolation: isolate">
      <path id="Trazado_114472-2" data-name="Trazado 114472" d="M1.289,30.667,31.957,0V17.409l-14.5,14.5a2.644,2.644,0,0,0,0,3.738l14.5,14.5v17.41L1.289,36.89A4.4,4.4,0,0,1,1.289,30.667Z" transform="translate(0 0)" fill="#ffb30b" style="mix-blend-mode: overlay;isolation: isolate"/>
      <path id="Trazado_114473-2" data-name="Trazado 114473" d="M1.289,30.667,31.957,0V17.409l-14.5,14.5a2.644,2.644,0,0,0,0,3.738l14.5,14.5v17.41L1.289,36.89A4.4,4.4,0,0,1,1.289,30.667Z" transform="translate(0 0)" fill="#ffb30b" style="mix-blend-mode: overlay;isolation: isolate"/>
    </g>
    <g id="Grupo_110680" data-name="Grupo 110680" transform="translate(12.045 -2527.479)">
      <text id="Es_importante_determinar_en_forma_clara_y_precisa_el_objetivo_del_grupo_y_edificar_el_planteamiento_del_problema_centrándose_en_el_producto_software_a_construir." data-name="Es importante determinar en forma clara y precisa el objetivo del grupo y edificar el planteamiento del problema, centrándose en el producto software a construir." transform="translate(390 7689.408)" fill="#12263f" font-size="16" font-family="Roboto-Regular, Roboto"><tspan x="0" y="17">Es importante determinar en forma clara y precisa el objetivo del grupo y edificar el planteamiento del problema, </tspan></text>
      <text id="Construya_la_lista_de_preguntas_que_se_van_a_trabajar_cerciorándose_que_estén_completamente_centradas_y_enfocadas_en_los_objetivos_del_ítem_anterior." data-name="Construya la lista de preguntas que se van a trabajar, cerciorándose que estén completamente centradas y enfocadas en los objetivos del ítem anterior." transform="translate(390 7746)" fill="#12263f" font-size="16" font-family="Roboto-Regular, Roboto"><tspan x="0" y="17">Construya la lista de preguntas que se van a trabajar, cerciorándose que estén completamente centradas y </tspan></text>
      <text id="Se_agendan_las_sesiones_del_focus_group_con_la_antelación_y_duración_requerida_por_la_temática_aunque_en_promedio_estas_reuniones_tienen_una_duración_dos_horas._" data-name="Se agendan las sesiones del focus group, con la antelación y duración requerida por la temática, aunque en promedio estas reuniones tienen una duración dos horas. " transform="translate(390 7802.591)" fill="#12263f" font-size="16" font-family="Roboto-Regular, Roboto"><tspan x="0" y="17">Se agendan las sesiones del </tspan><tspan y="17" font-family="Roboto-Italic, Roboto" font-style="italic">focus group</tspan><tspan y="17">, con la antelación y duración requerida por la temática, aunque en </tspan></text>
      <text id="Se_debe_determinar_el_lugar_ideal_con_las_características_que_el_evento_implica_determinando_explícitamente_la_lista_de_asistentes_y_organizando_las_comodidades_que_el_caso_amerite._Importante_tener_en_cuenta_el_mantener_una_excelente_hidratación_en_los_" data-name="Se debe determinar el lugar ideal, con las características que el evento implica, determinando explícitamente la lista de asistentes y organizando las comodidades que el caso amerite. Importante tener en cuenta el mantener una excelente hidratación en los " transform="translate(390 7859.183)" fill="#12263f" font-size="16" font-family="Roboto-Regular, Roboto"><tspan x="0" y="17">Se debe determinar el lugar ideal, con las características que el evento implica, determinando explícitamente la lista </tspan></text>
      <path id="comprobado" d="M0,69.769l4.482,4.49,8.606-8.6-1.236-1.218L4.482,71.8,1.218,68.542Z" transform="translate(373.912 7629.648)" fill="#ffb30b"/>
      <path id="comprobado-2" data-name="comprobado" d="M0,69.769l4.482,4.49,8.606-8.6-1.236-1.218L4.482,71.8,1.218,68.542Z" transform="translate(373.912 7686.648)" fill="#ffb30b"/>
      <path id="comprobado-3" data-name="comprobado" d="M0,69.769l4.482,4.49,8.606-8.6-1.236-1.218L4.482,71.8,1.218,68.542Z" transform="translate(373.912 7743.648)" fill="#ffb30b"/>
      <path id="comprobado-4" data-name="comprobado" d="M0,69.769l4.482,4.49,8.606-8.6-1.236-1.218L4.482,71.8,1.218,68.542Z" transform="translate(373.912 7800.648)" fill="#ffb30b"/>
    </g>
  </g>
</svg>
