<svg xmlns="http://www.w3.org/2000/svg" xmlns:xlink="http://www.w3.org/1999/xlink" width="504.826" height="265.264" viewBox="0 0 504.826 265.264">
  <defs>
    <linearGradient id="linear-gradient" x1="0.325" y1="0.986" x2="0.749" y2="-0.177" gradientUnits="objectBoundingBox">
      <stop offset="0" stop-color="#09005d"/>
      <stop offset="1" stop-color="#1a0f91"/>
    </linearGradient>
    <linearGradient id="linear-gradient-2" x1="0.539" y1="-6.317" x2="0.501" y2="0.376" xlink:href="#linear-gradient"/>
    <linearGradient id="linear-gradient-3" x1="4.224" y1="-8.62" x2="2.914" y2="-5.439" xlink:href="#linear-gradient"/>
    <linearGradient id="linear-gradient-4" x1="1.938" y1="-16.771" x2="1.468" y2="-11.079" xlink:href="#linear-gradient"/>
    <linearGradient id="linear-gradient-5" x1="0.727" y1="-2.869" x2="0.282" y2="3.71" gradientUnits="objectBoundingBox">
      <stop offset="0" stop-color="#4042e2"/>
      <stop offset="1" stop-color="#4f52ff"/>
    </linearGradient>
    <linearGradient id="linear-gradient-6" x1="18.035" y1="-0.484" x2="15.2" y2="6.012" xlink:href="#linear-gradient"/>
    <linearGradient id="linear-gradient-7" x1="67.883" y1="0.5" x2="68.883" y2="0.5" gradientUnits="objectBoundingBox">
      <stop offset="0" stop-color="#febbba"/>
      <stop offset="1" stop-color="#ff928e"/>
    </linearGradient>
    <linearGradient id="linear-gradient-8" x1="22.621" y1="0.031" x2="19.723" y2="0.887" xlink:href="#linear-gradient-5"/>
    <linearGradient id="linear-gradient-9" x1="45.393" y1="-2.223" x2="38.375" y2="5.384" xlink:href="#linear-gradient"/>
    <linearGradient id="linear-gradient-10" x1="78.623" y1="0.5" x2="79.623" y2="0.5" xlink:href="#linear-gradient-7"/>
    <linearGradient id="linear-gradient-11" x1="16.031" y1="-0.035" x2="13.99" y2="0.806" xlink:href="#linear-gradient-5"/>
    <linearGradient id="linear-gradient-12" x1="-3.594" y1="-0.492" x2="-3.249" y2="0.348" xlink:href="#linear-gradient-7"/>
    <linearGradient id="linear-gradient-13" x1="-14.23" y1="0.04" x2="-13.2" y2="1.767" xlink:href="#linear-gradient-7"/>
    <linearGradient id="linear-gradient-14" x1="-32.969" y1="1.716" x2="-34.845" y2="-0.451" xlink:href="#linear-gradient-7"/>
    <linearGradient id="linear-gradient-15" x1="10.5" y1="0.5" x2="11.5" y2="0.5" xlink:href="#linear-gradient-7"/>
    <linearGradient id="linear-gradient-16" x1="10.209" y1="0.054" x2="10.722" y2="2.544" xlink:href="#linear-gradient"/>
    <linearGradient id="linear-gradient-17" x1="33.702" y1="0.5" x2="34.702" y2="0.5" xlink:href="#linear-gradient-7"/>
    <linearGradient id="linear-gradient-18" x1="26.557" y1="0.5" x2="27.557" y2="0.5" xlink:href="#linear-gradient-7"/>
    <linearGradient id="linear-gradient-19" x1="-26.209" y1="-3.103" x2="-26.53" y2="-4.168" xlink:href="#linear-gradient-7"/>
    <linearGradient id="linear-gradient-20" x1="-19.868" y1="-3.467" x2="-19.663" y2="-2.288" xlink:href="#linear-gradient"/>
    <linearGradient id="linear-gradient-21" x1="-86.633" y1="-17.498" x2="-87.576" y2="-22.145" xlink:href="#linear-gradient-7"/>
    <linearGradient id="linear-gradient-22" x1="-12.983" y1="-3.086" x2="-14.077" y2="-1.884" xlink:href="#linear-gradient-7"/>
    <linearGradient id="linear-gradient-23" x1="-4.479" y1="-2.97" x2="-5.091" y2="-2.349" xlink:href="#linear-gradient"/>
    <linearGradient id="linear-gradient-24" x1="-24.713" y1="-6.932" x2="-24.489" y2="-7.842" xlink:href="#linear-gradient-7"/>
    <linearGradient id="linear-gradient-25" x1="-14.463" y1="-6.728" x2="-13.254" y2="-5.565" xlink:href="#linear-gradient-7"/>
    <linearGradient id="linear-gradient-26" x1="-15.002" y1="-9.918" x2="-16.882" y2="-8.013" xlink:href="#linear-gradient"/>
    <linearGradient id="linear-gradient-27" x1="-41.816" y1="-27.468" x2="-38.44" y2="-23.15" xlink:href="#linear-gradient-7"/>
    <linearGradient id="linear-gradient-28" x1="-17.554" y1="1.159" x2="-16.153" y2="0.023" xlink:href="#linear-gradient-7"/>
    <linearGradient id="linear-gradient-29" x1="-43.712" y1="0.006" x2="-42.717" y2="0.006" xlink:href="#linear-gradient"/>
    <linearGradient id="linear-gradient-30" x1="1.501" y1="0.335" x2="4.024" y2="-0.003" xlink:href="#linear-gradient-7"/>
    <linearGradient id="linear-gradient-31" x1="-34.87" y1="-0.076" x2="-33.878" y2="-0.076" xlink:href="#linear-gradient"/>
    <linearGradient id="linear-gradient-32" x1="-14.225" y1="-0.179" x2="-15.253" y2="1.397" xlink:href="#linear-gradient"/>
    <linearGradient id="linear-gradient-33" x1="-22.612" y1="-1.848" x2="-19.642" y2="-4.024" xlink:href="#linear-gradient-7"/>
  </defs>
  <g id="Grupo_112242" data-name="Grupo 112242" transform="translate(-285 -5062.76)">
    <rect id="BG" width="504.826" height="265.264" transform="translate(789.826 5328.023) rotate(180)" fill="#fee3a8" opacity="0.949"/>
    <g id="Grupo_111575" data-name="Grupo 111575" transform="translate(-140.899 4602.422)">
      <g id="Grupo_111546" data-name="Grupo 111546" transform="translate(640.871 497.546)">
        <g id="Grupo_111541" data-name="Grupo 111541" transform="translate(38.416 0)">
          <path id="Trazado_116402" data-name="Trazado 116402" d="M2945.486,769.15a.328.328,0,0,1-.3.068c-.421-.114-.846-.219-1.263-.314a.329.329,0,1,1,.145-.641c.426.1.86.2,1.29.32a.329.329,0,0,1,.232.4A.324.324,0,0,1,2945.486,769.15Z" transform="translate(-2943.666 -768.255)" fill="#91b3fa"/>
          <path id="Trazado_116403" data-name="Trazado 116403" d="M3015.413,842.077c-.583.5-1.189.986-1.8,1.44a.329.329,0,1,1-.391-.529c.708-.524,1.4-1.087,2.066-1.672l0,0a.329.329,0,0,1,.432.5Q3015.566,841.945,3015.413,842.077Zm3.364-3.371a.329.329,0,0,1-.464-.464c.573-.67,1.126-1.373,1.642-2.09a.329.329,0,1,1,.534.384c-.527.732-1.091,1.45-1.676,2.134A.329.329,0,0,1,3018.776,838.706Zm3.958-5.82a.329.329,0,0,1-.505-.4c.413-.782.8-1.589,1.141-2.4a.329.329,0,1,1,.605.257c-.351.827-.743,1.651-1.165,2.45A.333.333,0,0,1,3022.734,832.886Zm2.573-6.548a.329.329,0,0,1-.532-.334c.228-.851.422-1.723.576-2.593a.329.329,0,1,1,.648.115c-.157.888-.355,1.78-.588,2.648A.328.328,0,0,1,3025.307,826.338Zm1.044-6.956a.329.329,0,0,1-.543-.262c.032-.881.027-1.775-.016-2.657a.329.329,0,1,1,.657-.032c.044.9.049,1.814.017,2.713A.33.33,0,0,1,3026.351,819.382Zm-.528-7.016a.329.329,0,0,1-.537-.188c-.164-.868-.367-1.739-.6-2.588a.329.329,0,0,1,.634-.176c.241.867.448,1.756.616,2.642A.329.329,0,0,1,3025.823,812.366Zm-2.065-6.727a.329.329,0,0,1-.516-.118c-.352-.81-.742-1.614-1.161-2.391a.329.329,0,0,1,.579-.312c.428.793.827,1.614,1.185,2.441A.329.329,0,0,1,3023.758,805.638Zm-3.508-6.1-.02.016a.329.329,0,0,1-.46-.07c-.462-.628-.954-1.245-1.461-1.835l-.2-.235a.329.329,0,0,1,.03-.464l0,0a.329.329,0,0,1,.461.032q.105.12.209.241c.518.6,1.02,1.233,1.492,1.874A.329.329,0,0,1,3020.25,799.537Zm-4.783-5.162a.329.329,0,0,1-.429,0c-.667-.575-1.369-1.129-2.086-1.647a.329.329,0,0,1,.385-.533c.732.53,1.448,1.1,2.13,1.682a.329.329,0,0,1,.034.464A.349.349,0,0,1,3015.467,794.375Zm-5.809-3.974a.329.329,0,0,1-.369.041c-.781-.416-1.588-.8-2.4-1.148a.329.329,0,1,1,.259-.6c.826.353,1.649.748,2.447,1.172a.329.329,0,0,1,.136.445A.324.324,0,0,1,3009.658,790.4Z" transform="translate(-3001.295 -786.915)" fill="#91b3fa"/>
          <path id="Trazado_116404" data-name="Trazado 116404" d="M3026.263,1450.368a.341.341,0,0,1-.058.04c-.393.213-.79.418-1.181.609a.329.329,0,0,1-.289-.591c.383-.187.772-.388,1.157-.6a.329.329,0,0,1,.372.538Z" transform="translate(-3017.624 -1391.428)" fill="#91b3fa"/>
        </g>
        <g id="Grupo_111542" data-name="Grupo 111542" transform="translate(0 1.837)">
          <path id="Trazado_116405" data-name="Trazado 116405" d="M2738.757,1473.329a.328.328,0,0,1-.314.064c-.417-.133-.841-.277-1.258-.429a.329.329,0,0,1,.225-.618c.409.149.823.29,1.232.42a.329.329,0,0,1,.115.563Z" transform="translate(-2716.253 -1413.873)" fill="#91b3fa"/>
          <path id="Trazado_116406" data-name="Trazado 116406" d="M2512.389,875.7a.328.328,0,0,1-.368.041c-.782-.413-1.558-.866-2.307-1.345a.329.329,0,1,1,.355-.554c.733.469,1.493.913,2.259,1.318a.329.329,0,0,1,.137.444A.333.333,0,0,1,2512.389,875.7Zm-5.735-3.883a.329.329,0,0,1-.427,0c-.677-.575-1.336-1.185-1.96-1.813a.329.329,0,1,1,.467-.463c.611.615,1.257,1.212,1.919,1.776a.329.329,0,0,1,.038.464A.358.358,0,0,1,2506.654,871.815Zm-4.748-5.041-.017.014a.329.329,0,0,1-.46-.065c-.532-.708-1.041-1.448-1.512-2.2a.329.329,0,0,1,.557-.35c.462.736.96,1.461,1.481,2.154A.329.329,0,0,1,2501.906,866.773Zm-3.524-5.961a.321.321,0,0,1-.08.051.329.329,0,0,1-.435-.165c-.364-.808-.7-1.642-.994-2.478a.329.329,0,0,1,.621-.219c.289.819.616,1.636.973,2.427A.329.329,0,0,1,2498.382,860.812Zm-2.135-6.586a.323.323,0,0,1-.148.072.329.329,0,0,1-.389-.255c-.179-.868-.324-1.754-.431-2.635a.329.329,0,0,1,.653-.079c.1.862.246,1.73.422,2.58A.328.328,0,0,1,2496.247,854.226Zm-.651-6.893a.329.329,0,0,1-.543-.255c.014-.887.066-1.784.154-2.665a.329.329,0,0,1,.655.066c-.086.863-.137,1.741-.151,2.61A.329.329,0,0,1,2495.6,847.333Zm.871-6.866a.329.329,0,0,1-.534-.326c.208-.862.456-1.726.736-2.567a.329.329,0,1,1,.624.208c-.274.823-.516,1.669-.72,2.513A.327.327,0,0,1,2496.467,840.467Zm2.36-6.508a.329.329,0,0,1-.509-.395c.391-.792.822-1.58,1.28-2.342a.329.329,0,1,1,.564.339c-.449.746-.871,1.518-1.254,2.294A.324.324,0,0,1,2498.827,833.959Zm3.722-5.838a.329.329,0,0,1-.471-.456c.557-.694,1.149-1.37,1.758-2.01a.329.329,0,0,1,.477.454c-.6.627-1.176,1.289-1.722,1.968A.328.328,0,0,1,2502.549,828.12Zm7.04-6.446a.285.285,0,0,1-.033.024c-.723.482-1.434,1-2.112,1.541a.329.329,0,0,1-.462-.052.325.325,0,0,1,.052-.462c.693-.552,1.418-1.082,2.157-1.574a.329.329,0,0,1,.4.523Z" transform="translate(-2495.052 -818.408)" fill="#91b3fa"/>
          <path id="Trazado_116407" data-name="Trazado 116407" d="M2703.881,790.289a.328.328,0,0,1-.084.052c-.4.173-.8.356-1.182.542a.329.329,0,0,1-.287-.592c.394-.19.8-.377,1.208-.554a.329.329,0,0,1,.345.551Z" transform="translate(-2684.409 -789.711)" fill="#91b3fa"/>
        </g>
        <g id="Grupo_111545" data-name="Grupo 111545" transform="translate(7.681 6.847)">
          <path id="Trazado_116408" data-name="Trazado 116408" d="M2602.113,849.19a.378.378,0,0,0-.307.313l-.712,4.542a20.03,20.03,0,0,0-5.466,3.5l-4.42-1.255a.378.378,0,0,0-.413.147l-3.154,4.524a.378.378,0,0,0,0,.438l2.707,3.713a20.028,20.028,0,0,0-1.389,6.338l-4.015,2.239a.377.377,0,0,0-.188.4l.969,5.429a.378.378,0,0,0,.313.307l4.542.711a20.025,20.025,0,0,0,3.5,5.466l-1.255,4.42a.378.378,0,0,0,.147.413l4.524,3.153a.377.377,0,0,0,.438,0l3.713-2.707a20.023,20.023,0,0,0,6.338,1.389l2.24,4.015a.377.377,0,0,0,.4.188l5.429-.969a.378.378,0,0,0,.307-.313l.711-4.542a20.026,20.026,0,0,0,5.466-3.5l4.42,1.255a.378.378,0,0,0,.413-.147l3.154-4.524a.378.378,0,0,0,0-.438l-2.707-3.713a20.028,20.028,0,0,0,1.389-6.338l4.015-2.239a.378.378,0,0,0,.188-.4l-.969-5.429a.378.378,0,0,0-.313-.307l-4.542-.712a20.026,20.026,0,0,0-3.5-5.466l1.255-4.42a.378.378,0,0,0-.147-.413l-4.524-3.153a.378.378,0,0,0-.438,0l-3.713,2.707a20.029,20.029,0,0,0-6.338-1.389l-2.239-4.015a.378.378,0,0,0-.4-.188Z" transform="translate(-2584.755 -848.215)" fill="#91b3fa"/>
          <g id="Grupo_111543" data-name="Grupo 111543" transform="translate(18.934 18.934)">
            <path id="Trazado_116409" data-name="Trazado 116409" d="M2814.78,1078.8a5.408,5.408,0,0,1-1.3.829,5.358,5.358,0,1,1,1.3-.829Zm-6.4-7.42a4.38,4.38,0,0,0-1.242,1.779h0a4.376,4.376,0,1,0,1.242-1.779Zm-1.7,1.6,0,0Z" transform="translate(-2805.865 -1069.324)" fill="#bdd0fb"/>
          </g>
          <g id="Grupo_111544" data-name="Grupo 111544" transform="translate(10.562 10.672)">
            <path id="Trazado_116410" data-name="Trazado 116410" d="M2730.888,997.068a13.8,13.8,0,0,1-20.323-18.354q.1-.142.2-.282a13.91,13.91,0,0,1,1.527-1.751c.065-.063.13-.125.2-.186l.673.722a12.911,12.911,0,0,0-1.788,2.062l-.015.021a12.808,12.808,0,1,0,11.418-5.479l.068-.984a13.8,13.8,0,0,1,8.042,24.232Z" transform="translate(-2708.091 -972.836)" fill="#bdd0fb"/>
          </g>
        </g>
      </g>
      <g id="Grupo_111552" data-name="Grupo 111552" transform="translate(630.948 473.885)">
        <g id="Grupo_111547" data-name="Grupo 111547" transform="translate(23.089 0)">
          <path id="Trazado_116411" data-name="Trazado 116411" d="M2649.9,492.485a.2.2,0,0,1-.181.041c-.253-.069-.509-.132-.759-.189a.2.2,0,1,1,.087-.385c.256.058.517.122.775.192a.2.2,0,0,1,.078.341Z" transform="translate(-2648.811 -491.947)" fill="#91b3fa"/>
          <path id="Trazado_116412" data-name="Trazado 116412" d="M2691.933,536.317c-.35.3-.715.592-1.084.866a.2.2,0,0,1-.235-.318c.425-.315.843-.653,1.242-1h0a.2.2,0,0,1,.26.3Zm2.021-2.026a.2.2,0,0,1-.279-.279c.345-.4.677-.825.987-1.256a.2.2,0,1,1,.321.231c-.316.44-.655.872-1.007,1.283A.218.218,0,0,1,2693.954,534.291Zm2.379-3.5a.2.2,0,0,1-.3-.242c.249-.47.479-.955.686-1.442a.2.2,0,1,1,.364.155c-.211.5-.447.993-.7,1.472A.194.194,0,0,1,2696.333,530.793Zm1.546-3.936a.2.2,0,0,1-.32-.2c.137-.511.253-1.036.346-1.558a.2.2,0,1,1,.389.069c-.095.534-.214,1.07-.354,1.592A.2.2,0,0,1,2697.879,526.857Zm.627-4.181a.2.2,0,0,1-.327-.157c.02-.529.017-1.067-.009-1.6a.2.2,0,1,1,.395-.019c.027.542.03,1.09.01,1.631A.2.2,0,0,1,2698.507,522.677Zm-.317-4.217a.2.2,0,0,1-.323-.113c-.1-.522-.22-1.045-.363-1.555a.2.2,0,0,1,.381-.106c.145.521.27,1.055.37,1.588A.2.2,0,0,1,2698.189,518.46Zm-1.241-4.043a.214.214,0,0,1-.051.031.2.2,0,0,1-.26-.1c-.211-.487-.446-.97-.7-1.437a.2.2,0,1,1,.348-.188c.257.477.5.97.713,1.467A.2.2,0,0,1,2696.948,514.417Zm-2.109-3.667-.012.009a.2.2,0,0,1-.276-.042c-.278-.377-.573-.749-.878-1.1l-.123-.141a.2.2,0,0,1,.018-.279h0a.2.2,0,0,1,.278.019l.125.145c.311.362.613.741.9,1.127A.2.2,0,0,1,2694.84,510.749Zm-2.875-3.1a.2.2,0,0,1-.258,0c-.4-.345-.823-.678-1.254-.99a.2.2,0,1,1,.231-.32c.44.318.871.658,1.28,1.011a.2.2,0,0,1,.021.279A.212.212,0,0,1,2691.965,507.647Zm-3.491-2.389a.2.2,0,0,1-.222.025c-.469-.25-.954-.482-1.441-.69a.2.2,0,1,1,.156-.363c.5.212.992.449,1.471.7a.2.2,0,0,1,.036.324Z" transform="translate(-2683.447 -503.163)" fill="#91b3fa"/>
          <path id="Trazado_116413" data-name="Trazado 116413" d="M2698.454,901.919a.205.205,0,0,1-.035.024c-.236.128-.475.251-.709.366a.2.2,0,0,1-.174-.355c.23-.112.464-.233.7-.359a.2.2,0,0,1,.223.324Z" transform="translate(-2693.262 -866.494)" fill="#91b3fa"/>
        </g>
        <g id="Grupo_111548" data-name="Grupo 111548" transform="translate(0 1.104)">
          <path id="Trazado_116414" data-name="Trazado 116414" d="M2525.654,915.72a.2.2,0,0,1-.189.039c-.251-.08-.505-.167-.756-.258a.2.2,0,0,1,.135-.372c.246.089.495.174.741.252a.2.2,0,0,1,.128.248A.194.194,0,0,1,2525.654,915.72Z" transform="translate(-2512.128 -879.984)" fill="#91b3fa"/>
          <path id="Trazado_116415" data-name="Trazado 116415" d="M2389.6,556.524a.2.2,0,0,1-.221.025c-.47-.248-.936-.52-1.386-.808a.2.2,0,1,1,.213-.333c.441.282.9.549,1.358.792a.2.2,0,0,1,.037.325Zm-3.447-2.334a.2.2,0,0,1-.257,0c-.407-.346-.8-.712-1.178-1.09a.2.2,0,0,1,.281-.279c.367.37.755.729,1.153,1.067a.2.2,0,0,1,.023.279A.209.209,0,0,1,2386.153,554.19Zm-2.854-3.03-.01.008a.2.2,0,0,1-.277-.039c-.32-.426-.625-.871-.909-1.322a.2.2,0,0,1,.335-.21c.278.443.577.878.89,1.295A.2.2,0,0,1,2383.3,551.16Zm-2.118-3.583a.191.191,0,0,1-.048.03.2.2,0,0,1-.261-.1c-.219-.486-.42-.987-.6-1.489a.2.2,0,0,1,.373-.132c.174.492.371.983.585,1.459A.2.2,0,0,1,2381.181,547.577Zm-1.283-3.959a.2.2,0,0,1-.322-.11c-.108-.522-.2-1.054-.259-1.583a.2.2,0,0,1,.393-.047c.063.518.148,1.04.254,1.551A.2.2,0,0,1,2379.9,543.619Zm-.391-4.143a.2.2,0,0,1-.327-.153c.009-.533.04-1.072.093-1.6a.2.2,0,0,1,.394.039c-.052.518-.083,1.046-.091,1.568A.2.2,0,0,1,2379.506,539.476Zm.523-4.127a.2.2,0,0,1-.321-.2c.125-.518.274-1.037.442-1.543a.2.2,0,0,1,.375.125c-.165.495-.31,1-.433,1.51A.2.2,0,0,1,2380.03,535.349Zm1.419-3.912a.2.2,0,0,1-.306-.237c.235-.476.494-.95.77-1.408a.2.2,0,1,1,.339.2c-.27.449-.523.912-.754,1.379A.2.2,0,0,1,2381.448,531.438Zm2.237-3.509a.2.2,0,0,1-.283-.274c.335-.417.69-.823,1.056-1.208a.2.2,0,1,1,.287.273c-.359.377-.707.775-1.035,1.183A.185.185,0,0,1,2383.685,527.928Zm4.231-3.874-.02.015c-.434.29-.862.6-1.269.926a.2.2,0,0,1-.278-.031.2.2,0,0,1,.031-.278c.416-.332.853-.65,1.3-.946a.2.2,0,0,1,.239.314Z" transform="translate(-2379.18 -522.091)" fill="#91b3fa"/>
          <path id="Trazado_116416" data-name="Trazado 116416" d="M2504.692,505.191a.2.2,0,0,1-.05.032c-.24.1-.479.214-.71.326a.2.2,0,0,1-.173-.356c.237-.114.481-.226.726-.333a.2.2,0,0,1,.208.331Z" transform="translate(-2492.989 -504.843)" fill="#91b3fa"/>
        </g>
        <g id="Grupo_111551" data-name="Grupo 111551" transform="translate(4.617 4.115)">
          <path id="Trazado_116417" data-name="Trazado 116417" d="M2443.526,540.592a.227.227,0,0,0-.184.188l-.428,2.73a12.029,12.029,0,0,0-3.285,2.1l-2.656-.754a.227.227,0,0,0-.249.089l-1.9,2.719a.227.227,0,0,0,0,.264l1.627,2.231a12.041,12.041,0,0,0-.834,3.81l-2.413,1.346a.227.227,0,0,0-.113.238l.583,3.263a.227.227,0,0,0,.188.184l2.73.428a12.04,12.04,0,0,0,2.1,3.285l-.754,2.656a.227.227,0,0,0,.088.248l2.719,1.9a.227.227,0,0,0,.264,0l2.231-1.627a12.035,12.035,0,0,0,3.809.835l1.346,2.413a.227.227,0,0,0,.238.113l3.263-.582a.227.227,0,0,0,.185-.188l.428-2.73a12.035,12.035,0,0,0,3.285-2.1l2.657.754a.227.227,0,0,0,.248-.089l1.9-2.719a.227.227,0,0,0,0-.264l-1.627-2.231a12.035,12.035,0,0,0,.834-3.809l2.413-1.346a.227.227,0,0,0,.113-.238l-.583-3.263a.227.227,0,0,0-.188-.184l-2.73-.428a12.044,12.044,0,0,0-2.1-3.285l.754-2.656a.227.227,0,0,0-.089-.248l-2.719-1.9a.227.227,0,0,0-.264,0l-2.231,1.627a12.041,12.041,0,0,0-3.81-.835l-1.346-2.413a.227.227,0,0,0-.238-.113Z" transform="translate(-2433.094 -540.006)" fill="#91b3fa"/>
          <g id="Grupo_111549" data-name="Grupo 111549" transform="translate(11.38 11.38)">
            <path id="Trazado_116418" data-name="Trazado 116418" d="M2571.346,678.6a3.254,3.254,0,0,1-.784.5,3.222,3.222,0,1,1,.784-.5Zm-3.846-4.46a2.635,2.635,0,0,0-.746,1.069h0a2.646,2.646,0,1,0,1.387-1.477A2.66,2.66,0,0,0,2567.5,674.136Zm-1.024.964h0Z" transform="translate(-2565.988 -672.9)" fill="#bdd0fb"/>
          </g>
          <g id="Grupo_111550" data-name="Grupo 111550" transform="translate(6.348 6.414)">
            <path id="Trazado_116419" data-name="Trazado 116419" d="M2520.925,629.472a8.295,8.295,0,0,1-12.215-11.031q.06-.085.121-.169a8.369,8.369,0,0,1,.918-1.053l.118-.112.4.434a7.756,7.756,0,0,0-1.074,1.239l-.009.013a7.7,7.7,0,1,0,6.863-3.293l.041-.592a8.3,8.3,0,0,1,4.833,14.564Z" transform="translate(-2507.223 -614.908)" fill="#bdd0fb"/>
          </g>
        </g>
      </g>
      <g id="Grupo_111554" data-name="Grupo 111554" transform="translate(467.224 547.95)">
        <path id="Trazado_116420" data-name="Trazado 116420" d="M628.62,1483.571a3.737,3.737,0,0,0,3.728,3.724h201.6a3.737,3.737,0,0,0,3.728-3.724l1.677-115.853a6.492,6.492,0,0,0-6.836-5.747l-197.024-5.1a9.394,9.394,0,0,0-9.64,9.608Z" transform="translate(-612.265 -1356.87)" fill="url(#linear-gradient)"/>
        <path id="Trazado_116421" data-name="Trazado 116421" d="M671.182,1527.17a3.538,3.538,0,0,0,3.527,3.527H867.966a3.537,3.537,0,0,0,3.527-3.527L873.076,1422c-.186-6.329-5.735-8.6-9.1-8.469l-188.829-5.066a6.6,6.6,0,0,0-6.774,6.757Z" transform="translate(-651.147 -1404.043)" fill="#b9ddfc"/>
        <g id="Grupo_111553" data-name="Grupo 111553" transform="translate(150.207 9.873)">
          <path id="Trazado_116422" data-name="Trazado 116422" d="M3010.489,2109.151h-.005a.517.517,0,0,1-.512-.525l.125-8.529a.516.516,0,0,1,.516-.509h.008a.517.517,0,0,1,.509.525l-.125,8.529A.517.517,0,0,1,3010.489,2109.151Z" transform="translate(-2942.439 -2045.861)" fill="#bdd0fb"/>
          <path id="Trazado_116423" data-name="Trazado 116423" d="M2289.681,1514.556h-.008a.517.517,0,0,1-.509-.525l.48-32.667a6.137,6.137,0,0,0-1.751-4.594c-2.152-2.062-5.568-1.956-5.712-1.95l-60.354-1.619a.517.517,0,0,1-.5-.53.5.5,0,0,1,.531-.5l60.318,1.619a9.489,9.489,0,0,1,6.436,2.236,7.136,7.136,0,0,1,2.07,5.346l-.48,32.678A.517.517,0,0,1,2289.681,1514.556Z" transform="translate(-2221.324 -1472.167)" fill="#bdd0fb"/>
        </g>
        <rect id="Rectángulo_40699" data-name="Rectángulo 40699" width="237.676" height="10.179" rx="5.09" transform="translate(237.676 140.043) rotate(180)" fill="url(#linear-gradient-2)"/>
      </g>
      <g id="Grupo_111567" data-name="Grupo 111567" transform="translate(526.386 472.194)">
        <path id="Trazado_116424" data-name="Trazado 116424" d="M1158.117,765.107a12.844,12.844,0,0,1,12.844-12.844h109.223a11.315,11.315,0,0,1,11.3,10.74l8.062,158.352a8.344,8.344,0,0,1-8.182,8.767L1166.181,932.4a7.921,7.921,0,0,1-8.064-7.919Z" transform="translate(-1158.117 -728.28)" fill="#084a93"/>
        <path id="Trazado_116425" data-name="Trazado 116425" d="M1225.639,2501.592h0l-14.007-.181a8.639,8.639,0,0,1-8.494-8.6v-21.148a.3.3,0,0,1,.6,0v21.148a8.038,8.038,0,0,0,7.9,8.007l14.007.181a.3.3,0,0,1,0,.6Z" transform="translate(-1199.279 -2300.166)" fill="#91b3fa"/>
        <path id="Trazado_116426" data-name="Trazado 116426" d="M1203.433,2358.886a.3.3,0,0,1-.3-.3v-3.425a.3.3,0,0,1,.6,0v3.425A.3.3,0,0,1,1203.433,2358.886Z" transform="translate(-1199.279 -2193.646)" fill="#91b3fa"/>
        <g id="Grupo_111566" data-name="Grupo 111566" transform="translate(8.948 22.665)">
          <path id="Trazado_116427" data-name="Trazado 116427" d="M1262.611,740.626a3.731,3.731,0,0,1,4.231-3.721c14.915,2.023,66.205,8.278,108.611,5.023a3.45,3.45,0,0,1,3.715,3.254l8.454,159.058a3.97,3.97,0,0,1-3.73,4.175c-17.835,1.055-91.286,5.136-117.484,2.392a3.145,3.145,0,0,1-2.814-3.113Z" transform="translate(-1262.611 -736.87)" fill="#7d97f4"/>
          <path id="Trazado_116428" data-name="Trazado 116428" d="M1283.128,788.682a3.59,3.59,0,0,1,4.072-3.581c14.354,1.947,63.712,7.967,104.521,4.834a3.32,3.32,0,0,1,3.575,3.131l8.135,153.069a3.821,3.821,0,0,1-3.589,4.018c-17.164,1.016-87.848,4.942-113.061,2.3a3.027,3.027,0,0,1-2.708-3Z" transform="translate(-1281.371 -780.941)" fill="#b9ddfc"/>
          <path id="Trazado_116429" data-name="Trazado 116429" d="M1438.272,940.3l1.525,32.816a2.086,2.086,0,0,0,2.025,1.99c6.078.172,25.016.633,35.709.076a2.33,2.33,0,0,0,2.207-2.252c.2-6.154.65-24.067-.752-31.555a2.629,2.629,0,0,0-2.5-2.139l-35.923-1.256A2.218,2.218,0,0,0,1438.272,940.3Z" transform="translate(-1423.227 -920.759)" fill="#fff" opacity="0.78"/>
          <g id="Grupo_111555" data-name="Grupo 111555" transform="translate(64.539 19.473)" opacity="0.6">
            <path id="Trazado_116430" data-name="Trazado 116430" d="M2056.669,967.2a1.163,1.163,0,0,0,1.248-1.1,1.274,1.274,0,0,0-1.312-1.124l-39.392-.7a.832.832,0,0,0-.854,1.184l.188.535a1.941,1.941,0,0,0,1.705,1.207Z" transform="translate(-2016.29 -964.268)" fill="#fff"/>
          </g>
          <g id="Grupo_111556" data-name="Grupo 111556" transform="translate(64.539 25.59)" opacity="0.6">
            <path id="Trazado_116431" data-name="Trazado 116431" d="M2017.213,1035.711a.832.832,0,0,0-.854,1.184l.188.535a1.941,1.941,0,0,0,1.705,1.207h38.417a1.163,1.163,0,0,0,1.248-1.1,1.274,1.274,0,0,0-1.312-1.124Z" transform="translate(-2016.29 -1035.71)" fill="#fff"/>
          </g>
          <g id="Grupo_111557" data-name="Grupo 111557" transform="translate(64.539 31.797)" opacity="0.6">
            <path id="Trazado_116432" data-name="Trazado 116432" d="M2017.213,1108.192a.832.832,0,0,0-.854,1.184l.188.535a1.941,1.941,0,0,0,1.705,1.207h38.417a1.163,1.163,0,0,0,1.248-1.1,1.274,1.274,0,0,0-1.312-1.124Z" transform="translate(-2016.29 -1108.191)" fill="#fff"/>
          </g>
          <g id="Grupo_111558" data-name="Grupo 111558" transform="translate(15.604 61.716)" opacity="0.6">
            <path id="Trazado_116433" data-name="Trazado 116433" d="M1537.976,1460.525a1.113,1.113,0,0,0,1.207-1.1,1.317,1.317,0,0,0-1.352-1.111l-92.286-.727c-.7-.006-.921.44-.483.991l.754.947a3.014,3.014,0,0,0,2.077,1Z" transform="translate(-1444.836 -1457.586)" fill="#fff"/>
          </g>
          <g id="Grupo_111559" data-name="Grupo 111559" transform="translate(15.604 69.564)" opacity="0.6">
            <path id="Trazado_116434" data-name="Trazado 116434" d="M1445.545,1549.231c-.7-.005-.921.44-.483.991l.754.947a3.014,3.014,0,0,0,2.077,1h90.083a1.113,1.113,0,0,0,1.207-1.1,1.317,1.317,0,0,0-1.352-1.111Z" transform="translate(-1444.836 -1549.231)" fill="#fff"/>
          </g>
          <g id="Grupo_111565" data-name="Grupo 111565" transform="translate(16.48 84.363)">
            <path id="Trazado_116435" data-name="Trazado 116435" d="M1473.729,1902.338h-.021l-7.789-.075a2.094,2.094,0,0,1-2.137-1.781l-.685-6.535a1.42,1.42,0,0,1,.335-1.068,1.711,1.711,0,0,1,1.192-.588h0c.656-.045,1.58-.124,2.559-.207,2.06-.176,4.624-.394,6.066-.412a2.177,2.177,0,0,1,2.181,1.525,32.664,32.664,0,0,1,.293,7.365A1.925,1.925,0,0,1,1473.729,1902.338Zm-9.063-9.45a1.107,1.107,0,0,0-.775.376.827.827,0,0,0-.2.621l.685,6.535a1.5,1.5,0,0,0,1.548,1.245l7.789.075h.016a1.327,1.327,0,0,0,1.4-1.192,32.518,32.518,0,0,0-.272-7.194,1.608,1.608,0,0,0-1.6-1.083c-1.421.018-3.973.235-6.023.41-.981.083-1.907.162-2.568.208Z" transform="translate(-1462.402 -1877.147)" fill="#fff"/>
            <path id="Trazado_116436" data-name="Trazado 116436" d="M1480.555,1908.467c1.636-.112,5.192-.473,6.879-.494a1.508,1.508,0,0,1,1.509,1.043,26.475,26.475,0,0,1,.226,5.817,1.3,1.3,0,0,1-1.37,1.185l-6.224-.06a1.438,1.438,0,0,1-1.472-1.209l-.547-5.222A1.011,1.011,0,0,1,1480.555,1908.467Z" transform="translate(-1477.454 -1892.052)" fill="#fff" opacity="0.6"/>
            <g id="Grupo_111560" data-name="Grupo 111560" transform="translate(18.102 18.424)" opacity="0.6">
              <path id="Trazado_116437" data-name="Trazado 116437" d="M1666.528,1939.629a1.934,1.934,0,0,0,1.886,1.441l72.065-.615a1.462,1.462,0,0,0-.006-2.925l-72.067-.329A1.934,1.934,0,0,0,1666.528,1939.629Z" transform="translate(-1666.463 -1937.202)" fill="#fff"/>
            </g>
            <path id="Trazado_116438" data-name="Trazado 116438" d="M1473.729,2097.278h-.021l-7.789-.075a2.094,2.094,0,0,1-2.137-1.781l-.685-6.535a1.419,1.419,0,0,1,.335-1.068,1.708,1.708,0,0,1,1.192-.588h0c.656-.045,1.58-.124,2.559-.207,2.06-.175,4.624-.394,6.066-.412h.031a2.172,2.172,0,0,1,2.15,1.526,32.659,32.659,0,0,1,.293,7.365A1.925,1.925,0,0,1,1473.729,2097.278Zm-9.063-9.45a1.107,1.107,0,0,0-.775.376.827.827,0,0,0-.2.62l.685,6.535a1.5,1.5,0,0,0,1.548,1.245l7.789.075h.016a1.327,1.327,0,0,0,1.4-1.192,32.517,32.517,0,0,0-.272-7.194,1.6,1.6,0,0,0-1.6-1.083c-1.421.018-3.973.235-6.023.41-.981.083-1.907.163-2.568.208Z" transform="translate(-1462.402 -2055.394)" fill="#fff"/>
            <path id="Trazado_116439" data-name="Trazado 116439" d="M1480.555,2103.41c1.636-.112,5.192-.473,6.879-.494a1.508,1.508,0,0,1,1.509,1.042,26.475,26.475,0,0,1,.226,5.817,1.3,1.3,0,0,1-1.37,1.185l-6.224-.06a1.438,1.438,0,0,1-1.472-1.209l-.547-5.222A1.011,1.011,0,0,1,1480.555,2103.41Z" transform="translate(-1477.454 -2070.302)" fill="#fff" opacity="0.6"/>
            <g id="Grupo_111561" data-name="Grupo 111561" transform="translate(18.102 35.117)" opacity="0.6">
              <path id="Trazado_116440" data-name="Trazado 116440" d="M1666.528,2134.572a1.933,1.933,0,0,0,1.886,1.441l72.065-.615a1.462,1.462,0,0,0-.006-2.925l-72.067-.329A1.934,1.934,0,0,0,1666.528,2134.572Z" transform="translate(-1666.463 -2132.145)" fill="#fff"/>
            </g>
            <path id="Trazado_116441" data-name="Trazado 116441" d="M1473.729,2292.221h-.021l-7.789-.075a2.093,2.093,0,0,1-2.137-1.781l-.685-6.535a1.42,1.42,0,0,1,.335-1.068,1.709,1.709,0,0,1,1.192-.588h0c.656-.045,1.58-.124,2.559-.207,2.06-.175,4.624-.394,6.066-.412h.031a2.172,2.172,0,0,1,2.15,1.526,32.662,32.662,0,0,1,.293,7.365A1.925,1.925,0,0,1,1473.729,2292.221Zm-9.063-9.45a1.109,1.109,0,0,0-.775.376.827.827,0,0,0-.2.621l.685,6.535a1.5,1.5,0,0,0,1.548,1.245l7.789.075h.016a1.327,1.327,0,0,0,1.4-1.192,32.518,32.518,0,0,0-.272-7.194,1.6,1.6,0,0,0-1.6-1.083c-1.421.018-3.973.235-6.023.41-.981.083-1.907.163-2.568.208Z" transform="translate(-1462.402 -2233.643)" fill="#fff"/>
            <path id="Trazado_116442" data-name="Trazado 116442" d="M1480.555,2298.354c1.636-.112,5.192-.473,6.879-.494a1.508,1.508,0,0,1,1.509,1.042,26.473,26.473,0,0,1,.226,5.817,1.3,1.3,0,0,1-1.37,1.186l-6.224-.06a1.438,1.438,0,0,1-1.472-1.209l-.547-5.222A1.011,1.011,0,0,1,1480.555,2298.354Z" transform="translate(-1477.454 -2248.552)" fill="#fff" opacity="0.6"/>
            <g id="Grupo_111562" data-name="Grupo 111562" transform="translate(18.102 51.811)" opacity="0.6">
              <path id="Trazado_116443" data-name="Trazado 116443" d="M1666.528,2329.515a1.934,1.934,0,0,0,1.886,1.441l72.065-.614a1.462,1.462,0,0,0-.006-2.925l-72.067-.329A1.934,1.934,0,0,0,1666.528,2329.515Z" transform="translate(-1666.463 -2327.088)" fill="#fff"/>
            </g>
            <path id="Trazado_116444" data-name="Trazado 116444" d="M1473.729,2487.164h-.021l-7.789-.075a2.093,2.093,0,0,1-2.137-1.781l-.685-6.535a1.42,1.42,0,0,1,.335-1.068,1.711,1.711,0,0,1,1.192-.588h0c.656-.045,1.58-.124,2.559-.207,2.06-.176,4.624-.394,6.066-.412h.031a2.172,2.172,0,0,1,2.15,1.526,32.662,32.662,0,0,1,.293,7.365A1.925,1.925,0,0,1,1473.729,2487.164Zm-9.063-9.45a1.106,1.106,0,0,0-.775.376.827.827,0,0,0-.2.621l.685,6.535a1.5,1.5,0,0,0,1.548,1.245l7.789.075h.016a1.327,1.327,0,0,0,1.4-1.192,32.522,32.522,0,0,0-.272-7.194,1.594,1.594,0,0,0-1.6-1.083c-1.421.018-3.973.235-6.023.41-.981.084-1.907.162-2.568.208Z" transform="translate(-1462.402 -2411.893)" fill="#fff"/>
            <path id="Trazado_116445" data-name="Trazado 116445" d="M1480.555,2493.3c1.636-.112,5.192-.473,6.879-.494a1.508,1.508,0,0,1,1.509,1.042,26.474,26.474,0,0,1,.226,5.817,1.3,1.3,0,0,1-1.37,1.186l-6.224-.06a1.438,1.438,0,0,1-1.472-1.209l-.547-5.223A1.011,1.011,0,0,1,1480.555,2493.3Z" transform="translate(-1477.454 -2426.801)" fill="#fff" opacity="0.6"/>
            <g id="Grupo_111563" data-name="Grupo 111563" transform="translate(18.102 68.504)" opacity="0.6">
              <path id="Trazado_116446" data-name="Trazado 116446" d="M1666.528,2524.458h0a1.933,1.933,0,0,0,1.886,1.44l72.065-.614a1.462,1.462,0,0,0-.006-2.925l-72.067-.329A1.934,1.934,0,0,0,1666.528,2524.458Z" transform="translate(-1666.463 -2522.031)" fill="#fff"/>
            </g>
            <path id="Trazado_116447" data-name="Trazado 116447" d="M1465.7,1732.712h-.021l-7.789-.075a2.093,2.093,0,0,1-2.137-1.781l-.685-6.535a1.42,1.42,0,0,1,.336-1.068,1.709,1.709,0,0,1,1.192-.588h0c.656-.045,1.58-.124,2.559-.207,2.06-.176,4.624-.394,6.066-.412h.031a2.172,2.172,0,0,1,2.15,1.526,32.669,32.669,0,0,1,.293,7.365A1.925,1.925,0,0,1,1465.7,1732.712Zm-9.063-9.45a1.107,1.107,0,0,0-.775.376.827.827,0,0,0-.2.621l.685,6.535a1.5,1.5,0,0,0,1.548,1.245l7.789.075h.016a1.327,1.327,0,0,0,1.4-1.192,32.524,32.524,0,0,0-.272-7.194,1.594,1.594,0,0,0-1.6-1.083c-1.421.018-3.973.235-6.023.41-.981.083-1.907.163-2.569.208Z" transform="translate(-1455.064 -1722.047)" fill="#fff"/>
            <path id="Trazado_116448" data-name="Trazado 116448" d="M1472.53,1738.845c1.636-.112,5.192-.473,6.879-.494a1.508,1.508,0,0,1,1.509,1.042,26.472,26.472,0,0,1,.226,5.817,1.3,1.3,0,0,1-1.37,1.185l-6.224-.06a1.438,1.438,0,0,1-1.472-1.209l-.547-5.222A1.011,1.011,0,0,1,1472.53,1738.845Z" transform="translate(-1470.116 -1736.955)" fill="#fff" opacity="0.6"/>
            <g id="Grupo_111564" data-name="Grupo 111564" transform="translate(17.415 3.899)" opacity="0.6">
              <path id="Trazado_116449" data-name="Trazado 116449" d="M1658.5,1770.008h0a1.934,1.934,0,0,0,1.886,1.441l72.065-.615a1.462,1.462,0,0,0-.006-2.925l-72.067-.329A1.934,1.934,0,0,0,1658.5,1770.008Z" transform="translate(-1658.438 -1767.581)" fill="#fff"/>
            </g>
          </g>
        </g>
        <path id="Trazado_116450" data-name="Trazado 116450" d="M1883.663,474.586c-3.945-2.745-7.376-2.69-9.791-1.978a4.817,4.817,0,0,0-3.421,5.064l1.042,11.367,12.393,1.1S1891.4,479.969,1883.663,474.586Zm-5.45,9.171a3.09,3.09,0,1,1,3.09-3.09A3.09,3.09,0,0,1,1878.213,483.757Z" transform="translate(-1809.433 -472.194)" fill="url(#linear-gradient-3)"/>
        <path id="Trazado_116451" data-name="Trazado 116451" d="M1889.088,502.032a.3.3,0,0,1-.3-.272l-.166-1.81a.3.3,0,1,1,.6-.054l.166,1.81a.3.3,0,0,1-.27.325Zm-.325-3.548a.3.3,0,0,1-.3-.272l-.126-1.374a4.6,4.6,0,0,1,3.26-4.824,9.262,9.262,0,0,1,4.529-.186.3.3,0,1,1-.12.586,8.68,8.68,0,0,0-4.24.174,4,4,0,0,0-2.833,4.2l.126,1.374a.3.3,0,0,1-.27.325Z" transform="translate(-1825.791 -489.967)" fill="#91b3fa"/>
        <path id="Trazado_116452" data-name="Trazado 116452" d="M1685.314,656.441v-5.715a3.487,3.487,0,0,1,3.607-3.485l39.4,1.35a3.392,3.392,0,0,1,3.27,3.187l.329,5.491Z" transform="translate(-1640.169 -632.249)" fill="url(#linear-gradient-4)"/>
        <path id="Trazado_116453" data-name="Trazado 116453" d="M1835.6,666.024h-1.694a.3.3,0,1,1,0-.6h1.694a.3.3,0,1,1,0,.6Z" transform="translate(-1775.765 -648.879)" fill="#91b3fa"/>
        <path id="Trazado_116454" data-name="Trazado 116454" d="M1707.026,671.277a.3.3,0,0,1-.3-.3v-2.312a3.243,3.243,0,0,1,3.24-3.24h6.23a.3.3,0,1,1,0,.6h-6.23a2.645,2.645,0,0,0-2.641,2.641v2.312A.3.3,0,0,1,1707.026,671.277Z" transform="translate(-1659.749 -648.879)" fill="#91b3fa"/>
        <path id="Trazado_116455" data-name="Trazado 116455" d="M1496.164,733.794a3.713,3.713,0,0,1,3.709-3.535l68.9,0a5.093,5.093,0,0,1,5.018,4.224l.058.337a4.374,4.374,0,0,1-4.31,5.12h-70.691a2.844,2.844,0,0,1-2.84-2.98Z" transform="translate(-1467.075 -708.159)" fill="url(#linear-gradient-5)"/>
      </g>
      <g id="Grupo_111568" data-name="Grupo 111568" transform="translate(559.939 516.403)">
        <path id="Trazado_116456" data-name="Trazado 116456" d="M1553.816,1008.691v-1.4a8.738,8.738,0,0,1,.59-3.349,10.4,10.4,0,0,1,2.149-3.069,11.029,11.029,0,0,0,1.889-2.539,5.775,5.775,0,0,0,.41-2.339,3.5,3.5,0,0,0-.6-2.119,2.2,2.2,0,0,0-1.9-.82,8.41,8.41,0,0,0-4.538,1.539l-1.879-4a12.084,12.084,0,0,1,6.958-2.139,7.216,7.216,0,0,1,5.208,1.829,6.715,6.715,0,0,1,1.909,5.088,10.093,10.093,0,0,1-.66,3.869,14.078,14.078,0,0,1-2.739,3.829,10.5,10.5,0,0,0-1.709,2.249,5.144,5.144,0,0,0-.37,2.149v1.22Zm-.94,6.678a3.287,3.287,0,0,1,.85-2.429,3.344,3.344,0,0,1,2.469-.85,3.286,3.286,0,1,1,0,6.558,3.328,3.328,0,0,1-2.459-.86A3.27,3.27,0,0,1,1552.876,1015.369Z" transform="translate(-1549.937 -988.458)" fill="#ffb30b"/>
      </g>
      <g id="Grupo_111573" data-name="Grupo 111573" transform="translate(492.661 580.397)">
        <path id="Trazado_116457" data-name="Trazado 116457" d="M1080.868,3166.61s-.452,2.557-.673,5.087a1.744,1.744,0,0,0,1.668,1.889c3.37.14,10.579.413,13.166.3a.567.567,0,0,0,.5-.777,1.27,1.27,0,0,0-.65-.685l-11.908-5.473Z" transform="translate(-1053.137 -3044.085)" fill="url(#linear-gradient-6)"/>
        <path id="Trazado_116458" data-name="Trazado 116458" d="M1083.806,3144.025l.363,3.058s2.086.971,3.51-.123l-.864-3.408Z" transform="translate(-1056.444 -3023.002)" fill="url(#linear-gradient-7)"/>
        <path id="Trazado_116459" data-name="Trazado 116459" d="M986.008,2477.68c-.157.8-.841,39.85,3.333,57.351a.594.594,0,0,1-.348.691,10.341,10.341,0,0,1-3.4.691,1.023,1.023,0,0,1-1.015-.734c-1.193-4.06-6.911-24.4-7.657-43.838-.833-21.715,0-.739,0-.739l.489-13.423Z" transform="translate(-958.373 -2414.147)" fill="url(#linear-gradient-8)"/>
        <path id="Trazado_116460" data-name="Trazado 116460" d="M912.825,3182.185a18.4,18.4,0,0,0-1.415,4.72,1.064,1.064,0,0,0,.936,1.274c1.113.109,2.826.25,4.2.24a1.06,1.06,0,0,0,1.05-1.183,8.947,8.947,0,0,0-2.088-4.906Z" transform="translate(-898.791 -3058.326)" fill="url(#linear-gradient-9)"/>
        <path id="Trazado_116461" data-name="Trazado 116461" d="M920.791,3134.335l.848,4.625a2.99,2.99,0,0,0,2.5.171l-.4-4.976Z" transform="translate(-907.389 -3014.409)" fill="url(#linear-gradient-10)"/>
        <path id="Trazado_116462" data-name="Trazado 116462" d="M880.012,2468.613c-3.414,20.6.741,50.925,2.142,56.859a.925.925,0,0,0,.747.7,6.221,6.221,0,0,0,2.671-.107.848.848,0,0,0,.61-.781c.188-4.8-.15-34.252,3.031-45.893a2.645,2.645,0,0,1,1.02-1.459l6.174-4.389.473-7.1Z" transform="translate(-868.9 -2403.882)" fill="url(#linear-gradient-11)"/>
        <g id="Grupo_111569" data-name="Grupo 111569" transform="translate(9.837 9.844)">
          <path id="Trazado_116463" data-name="Trazado 116463" d="M902.187,2017.917c-10.231-.169-21.52,2.686-21.52,2.686-3.05,17.8-.533,38.321-.533,38.321,7.921,2.077,16.856-1.27,16.856-1.27,1.317-7.438,7.459-28.371,7.459-28.371a33.7,33.7,0,0,0,12.508-3.969,21.937,21.937,0,0,1-4.336-9.069A34.327,34.327,0,0,1,902.187,2017.917Z" transform="translate(-879.158 -2002.072)" fill="#ffb30b"/>
          <path id="Trazado_116464" data-name="Trazado 116464" d="M1289.723,1851.51a1.957,1.957,0,0,0-2.277-.64c-1.506,6.36-9.4,11.517-17.511,14.037a21.934,21.934,0,0,0,4.336,9.069C1287.731,1866.408,1289.723,1851.51,1289.723,1851.51Z" transform="translate(-1236.472 -1850.734)" fill="url(#linear-gradient-12)"/>
        </g>
        <g id="Grupo_111570" data-name="Grupo 111570" transform="translate(60.811 0)">
          <path id="Trazado_116465" data-name="Trazado 116465" d="M1476.458,1746.7c.105.334-1.113.844-1.83-.524-.025-.655-.424-3.463-.032-4a52.29,52.29,0,0,1,6.129-6.408.962.962,0,0,1,.12,1.337l-1.962,2.043a9.5,9.5,0,0,1,1.145,2.264,2.748,2.748,0,0,1-.274,2.023c-.344.62-.814,1.427-1.258,2.058A2.714,2.714,0,0,1,1476.458,1746.7Z" transform="translate(-1474.425 -1735.773)" fill="url(#linear-gradient-13)"/>
          <path id="Trazado_116466" data-name="Trazado 116466" d="M1491.4,1790.729l-1.788,1.515-.561,1.509,1.594,1.768a20.56,20.56,0,0,1,.934-3.642C1491.978,1791.232,1491.772,1790.918,1491.4,1790.729Z" transform="translate(-1487.799 -1786.023)" fill="url(#linear-gradient-14)"/>
        </g>
        <path id="Trazado_116467" data-name="Trazado 116467" d="M781.878,2077.055l-3.924-9.907s-9.557,6.493-11.128,14.726a22.611,22.611,0,0,1,8.308,2.227C775.84,2080.213,781.878,2077.055,781.878,2077.055Z" transform="translate(-766.607 -2038.772)" fill="#ffb30b"/>
        <path id="Trazado_116468" data-name="Trazado 116468" d="M787.9,2243.622s-10.73,6.064-14.35.886a4.07,4.07,0,0,1-.746-3.162,22.621,22.621,0,0,0-8.308-2.227,11.363,11.363,0,0,0,1.235,7.79c6.342,11.6,23.589-.641,23.589-.641Z" transform="translate(-764.281 -2196.016)" fill="url(#linear-gradient-15)"/>
        <g id="Grupo_111571" data-name="Grupo 111571" transform="translate(22.309 31.141)">
          <path id="Trazado_116469" data-name="Trazado 116469" d="M1024.828,2144.784l5.856-20.45a.6.6,0,0,1,.5-.429c1.061-.124,4.135-.471,7.685-.772a87.262,87.262,0,0,1,12.208-.405.6.6,0,0,1,.489.861c-1.687,3.413-8.628,17.3-12.1,21.848a.6.6,0,0,1-.483.237l-13.587-.127A.6.6,0,0,1,1024.828,2144.784Z" transform="translate(-1024.805 -2120.648)" fill="url(#linear-gradient-16)"/>
          <path id="Trazado_116470" data-name="Trazado 116470" d="M1190.69,2100.149l4.245-.708a.3.3,0,0,1,.34.4l-.42,1.273a.3.3,0,0,1-.249.207l-4.086.546a.3.3,0,0,1-.337-.371l.26-1.112A.3.3,0,0,1,1190.69,2100.149Z" transform="translate(-1176.014 -2099.437)" fill="#91b3fa"/>
          <path id="Trazado_116471" data-name="Trazado 116471" d="M1158.984,2117.327l.35-1.822a.421.421,0,0,1,.371-.34l8.575-.87a.421.421,0,0,1,.452.517l-.545,2.27a.421.421,0,0,1-.388.322l-8.38.422A.421.421,0,0,1,1158.984,2117.327Z" transform="translate(-1147.487 -2113.021)" fill="#91b3fa"/>
          <path id="Trazado_116472" data-name="Trazado 116472" d="M1035.569,2249.141s-.816-3.354-.487-4.544.967-2.72,3.092-2.38a31.109,31.109,0,0,1,4.632,1.235,1.216,1.216,0,0,1-1.742,1.05l1,.775s-.143,1.241-1.507.578l.932,1.027a1.086,1.086,0,0,1-1.59.366C1038.9,2246.594,1038.415,2249.545,1035.569,2249.141Z" transform="translate(-1034.13 -2229.946)" fill="url(#linear-gradient-17)"/>
        </g>
        <path id="Trazado_116473" data-name="Trazado 116473" d="M992.105,1938.777l-3.255,9.415a.339.339,0,0,0,.155.408,7.653,7.653,0,0,0,7.937-.534,1.6,1.6,0,0,0,.736-1.141l1.054-8.148Z" transform="translate(-969.602 -1921.393)" fill="url(#linear-gradient-18)"/>
        <g id="Grupo_111572" data-name="Grupo 111572" transform="translate(16.324 3.773)">
          <path id="Trazado_116474" data-name="Trazado 116474" d="M1020.688,1836.968s3.575,6.729,3.117,9.448-4.889,2.523-8.757.315l-2.7-7.266Z" transform="translate(-1007.426 -1832.075)" fill="url(#linear-gradient-19)"/>
          <path id="Trazado_116475" data-name="Trazado 116475" d="M962.708,1790.918a.277.277,0,0,0,.121-.406,7.238,7.238,0,0,1-.995-2.112s-.643-.412,1.636-.957,5.676-1.392,6.39-3.331c.7-1.891-1.133-6.646-4.052-2.857a.277.277,0,0,1-.439,0,2.859,2.859,0,0,0-3.483-1.132,2.623,2.623,0,0,0-1.8,2.535.276.276,0,0,1-.327.282,3.2,3.2,0,0,0-3.735,1.741c-.762,1.676-.267,2.624.184,3.088a.276.276,0,0,1-.118.459,1.664,1.664,0,0,0-1.174,1.9c.1,1.759,2.064,1.6,2.624,1.524a.278.278,0,0,1,.246.087c.48.531,2.643,2.787,4.984,3.059a.28.28,0,0,0,.293-.37l-1.013-2.945a.279.279,0,0,1,.151-.345Z" transform="translate(-954.916 -1779.831)" fill="url(#linear-gradient-20)"/>
          <path id="Trazado_116476" data-name="Trazado 116476" d="M1021.4,1904.955s-2.545-1.746-2.731-.276,2.292,2.13,3.519,1.582Z" transform="translate(-1013.198 -1893.449)" fill="url(#linear-gradient-21)"/>
        </g>
      </g>
      <g id="Grupo_111574" data-name="Grupo 111574" transform="translate(637.689 580.988)">
        <path id="Trazado_116477" data-name="Trazado 116477" d="M2458.515,1888.908a.4.4,0,0,1,.738.079c.358,1.29,1.226,3.54,3.045,4.339.092.041.178.081.262.122a.925.925,0,0,0-.114-.837c-.566-.865.455-2.045.455-2.045a2.632,2.632,0,0,0,.858,1.695,2.531,2.531,0,0,1,.542,2.848c-.985,3.825-2.459,8.884,3.285,12.58s13.833-6.975,13.833-6.975l-4.015,12.728s-6.2,4.573-13.405-1.857-2.43-15.788-2.43-15.788S2456.072,1893.578,2458.515,1888.908Z" transform="translate(-2457.889 -1876.191)" fill="url(#linear-gradient-22)"/>
        <path id="Trazado_116478" data-name="Trazado 116478" d="M2715.541,1748.5s-1.664-7.465,6.887-5.489c0,0,4.15-.678,4.362,3.239,0,0,2.675,1.763.716,5.153,0,0,7.951-3.071,11.416,3.9s.28,10.8-3.058,11.8a3.324,3.324,0,0,1,1.424,4.424c-1.28,3.066-7.764,5.228-11.593,1.5,0,0-10.9,1.44-10.68-6.257,0,0-5.069-3.273.255-9.635S2715.541,1748.5,2715.541,1748.5Z" transform="translate(-2691.003 -1742.682)" fill="url(#linear-gradient-23)"/>
        <path id="Trazado_116479" data-name="Trazado 116479" d="M2667.684,2007.823a11.729,11.729,0,0,1,11.479,2.925,2.946,2.946,0,0,1,.849,2.936c-1.278,4.706-4.65,18.608-1.693,24.623,0,0-5.211,5.744-10.9,1.114,0,0-2.551-11.116-5.891-16-2.307-3.369,3.678-12.652,5.191-14.894A1.775,1.775,0,0,1,2667.684,2007.823Z" transform="translate(-2643.616 -1984.698)" fill="#ffb30b"/>
        <path id="Trazado_116480" data-name="Trazado 116480" d="M2758.03,1903.552s2.541,7.188,2.732,10.359a5.436,5.436,0,0,1-5.455-.878s-.278-7.179-.679-8.465Z" transform="translate(-2729.218 -1889.776)" fill="url(#linear-gradient-24)"/>
        <path id="Trazado_116481" data-name="Trazado 116481" d="M2711.064,1788.54s-6.646,9.3-2.673,12,8.7-3.908,8.7-3.908,1.542-5.091-.071-6.818S2711.064,1788.54,2711.064,1788.54Z" transform="translate(-2685.782 -1784.565)" fill="url(#linear-gradient-25)"/>
        <path id="Trazado_116482" data-name="Trazado 116482" d="M2751.595,1761.822s-3.053.723-3.481,2.1,4.33,2.663,5.663,2.725l1.074,5.575s3.175-5.244,1.918-8.273S2751.595,1761.822,2751.595,1761.822Z" transform="translate(-2723.236 -1760.07)" fill="url(#linear-gradient-26)"/>
        <path id="Trazado_116483" data-name="Trazado 116483" d="M2808.515,1857.446s2.587-3,3.616-1.043-2.328,3.42-3.491,2.461Z" transform="translate(-2778.49 -1846.06)" fill="url(#linear-gradient-27)"/>
        <path id="Trazado_116484" data-name="Trazado 116484" d="M2643.089,2654.294c.02.5-.866,4.507-1.349,6.643a3.515,3.515,0,0,0,.378,2.522l16.7,28.107a3.84,3.84,0,0,1,.439,1.093,24.125,24.125,0,0,1,.609,7.492l-.864,1.794,3.736-.848.813-10.034-1.058-.645a5.027,5.027,0,0,1-2.033-2.38c-1.51-3.668-5.26-13-6.227-17.555-1.1-5.172-6.841-9.372-6.841-9.372l1.009-2.385Z" transform="translate(-2625.917 -2576.231)" fill="url(#linear-gradient-28)"/>
        <path id="Trazado_116485" data-name="Trazado 116485" d="M2840.144,3082.083a22.811,22.811,0,0,1-2.255-4.444c-.237-1.245-.9-3.444-2.142-2.782a73.02,73.02,0,0,0-.384,8.412c.2,2.364-2.672,2.287-2.672,2.287a2.684,2.684,0,0,0-1.372.691.673.673,0,0,0,.451,1.132,16.175,16.175,0,0,0,4-.227,1.225,1.225,0,0,0,.988-1.13l.414-6.962,2.545,3.214Z" transform="translate(-2799.17 -2960.669)" fill="url(#linear-gradient-29)"/>
        <path id="Trazado_116486" data-name="Trazado 116486" d="M2737.814,2699.348s.589,25.141.669,28.712-.564,11.484-4.144,13.849l1.558,1.153a20.813,20.813,0,0,0,3.848-4.839,29.406,29.406,0,0,1,2.782-4.23l-.709-1.452a3.194,3.194,0,0,1-.259-2.047c.772-3.744,3.353-16.2,4.057-18.878a12.079,12.079,0,0,0-2-10.932C2740.726,2697.146,2737.814,2699.348,2737.814,2699.348Z" transform="translate(-2710.667 -2616.808)" fill="url(#linear-gradient-30)"/>
        <path id="Trazado_116487" data-name="Trazado 116487" d="M2722.38,3114.936a.219.219,0,0,0,.221-.188,32.538,32.538,0,0,1,1.021-5.068c.465-1,1.983-5.191,0-5.547,0,0-4.932,7.206-5.879,8.178a1.856,1.856,0,0,1-2.142.339,3.564,3.564,0,0,0-1.618,1.162.653.653,0,0,0,.515,1.049l3.322.032a2.338,2.338,0,0,0,2.191-1.473c.585-1.46,1.589-3.6,2.76-4.554l-.608,5.825A.222.222,0,0,0,2722.38,3114.936Z" transform="translate(-2691.927 -2987.548)" fill="url(#linear-gradient-31)"/>
        <path id="Trazado_116488" data-name="Trazado 116488" d="M2645.935,2332.506a11.8,11.8,0,0,1-.4,6.317l-7.135,24.915a.772.772,0,0,0,.482.939,47.6,47.6,0,0,0,18.727,2.271,1.088,1.088,0,0,0,.991-.846c.631-2.841,2.784-12.532,3.227-14.523,1.689-7.588,3.575-15.77-4.722-20.718C2653.28,2332.5,2649.714,2333.463,2645.935,2332.506Z" transform="translate(-2622.913 -2280.493)" fill="url(#linear-gradient-32)"/>
        <path id="Trazado_116489" data-name="Trazado 116489" d="M2808.314,2051.638s8.118,6.746,10.132,15.965-11.862,10.2-11.862,10.2-1.884-2.1-4.121-1.354-.173-3.671,2.444-3.66,1.4,2.081,5.106.4c3.606-1.633,5.835-6.685-3.366-14.343a4.17,4.17,0,0,1-1.215-1.655C2803.646,2052.7,2805.063,2049.746,2808.314,2051.638Z" transform="translate(-2772.086 -2024.649)" fill="url(#linear-gradient-33)"/>
      </g>
    </g>
  </g>
</svg>
