<svg xmlns="http://www.w3.org/2000/svg" width="397.667" height="368.483" viewBox="0 0 397.667 368.483">
  <g id="Grupo_112214" data-name="Grupo 112214" transform="translate(-1487 -455)">
    <g id="Grupo_111237" data-name="Grupo 111237" transform="translate(1330.573 220.368)">
      <g id="Grupo_111224" data-name="Grupo 111224" style="isolation: isolate">
        <path id="Trazado_116104" data-name="Trazado 116104" d="M272.642,593.816c0,1.758-19.732,3.184-44.076,3.184s-44.073-1.426-44.073-3.184,19.733-3.185,44.073-3.185S272.642,592.057,272.642,593.816Z" fill="#b9ddfc" opacity="0.6" style="isolation: isolate"/>
      </g>
      <g id="Grupo_111236" data-name="Grupo 111236">
        <g id="Grupo_111225" data-name="Grupo 111225">
          <path id="Trazado_116105" data-name="Trazado 116105" d="M236.057,411.634a4.065,4.065,0,0,0,1.291,2.226,4.624,4.624,0,0,0,2.624,1.192c2.6.27,6.61.823,10.851,1.39,6.808.908,14.226,1.844,17.347,1.674a16.378,16.378,0,0,0,5.517-.766.791.791,0,0,0,.17-.057l.029-.028c.468-.412.482-1.5.34-2.6-.127-1.192-.439-2.4-.468-2.709a5.315,5.315,0,0,0-4.3-4.638,4.888,4.888,0,0,0-.709-.142c-.156-.043-.312-.1-.482-.156-6.383-2.028-13.6-2.525-18.255-3.3a15.352,15.352,0,0,0-6.723.34A13.914,13.914,0,0,0,239.135,406C237.135,407.393,235.561,409.279,236.057,411.634Z" fill="#fff"/>
          <path id="Trazado_116106" data-name="Trazado 116106" d="M267.333,414.683a4.654,4.654,0,0,0,.652,1.206q.192.234.383.425c1.66,1.6,4.241,1.3,4.724,1.234h.014c.184-.056.369-.127.581-.2.057-.029.128-.057.2-.085,4.085-1.731,12.737-8.071,18.652-12.6a.167.167,0,0,0,.057-.028c3.531-2.723,6.085-4.766,6.085-4.766l-.525-.808-2.1-3.078s-13.149,6.212-19.362,8.382a40.389,40.389,0,0,0-7.234,2.951,7.6,7.6,0,0,0-.666.439S266,410.953,267.333,414.683Z" fill="#35aad3"/>
          <path id="Trazado_116107" data-name="Trazado 116107" d="M250.823,416.442c6.808.908,14.226,1.844,17.347,1.674a16.378,16.378,0,0,0,5.517-.766.791.791,0,0,0,.17-.057l.029-.028c4.085-1.731,12.737-8.071,18.652-12.6-.851.511-12.057,7.021-18.312,10A20.964,20.964,0,0,1,270.7,416.1a12.828,12.828,0,0,1-2.327.212c-.115,0-.233,0-.352,0a16.813,16.813,0,0,1-14.093-8.04,29.671,29.671,0,0,0-2.76-3.79S250.95,411.478,250.823,416.442Z" fill="#2496b5"/>
        </g>
        <path id="Trazado_116108" data-name="Trazado 116108" d="M270.826,406.592s-1.019.735-4.01,0,.156,2.923.156,2.923l4.708-.3.4-1.215Z" fill="#fff"/>
        <g id="Grupo_111228" data-name="Grupo 111228">
          <path id="Trazado_116109" data-name="Trazado 116109" d="M223.215,440.879a17.818,17.818,0,0,1,.8,10.282c-1.514,6.815.209,7.273.209,7.273s9.237,5.862,16.919,8.258c5.506,1.713,10.2,1.424,10.067-4.655l0-.084c-.009-.369-.018-.722-.027-1.066-.26-13.662,2.589-14.357,3.291-29.655.725-15.694.569-24.986-4.457-27.518-5.476-2.758-13.01-4.654-23.694-2.129-8.026,1.891-10.67,4.021-10.6,9.96a46.5,46.5,0,0,0,.864,7.312C217.9,426.331,221.066,435.3,223.215,440.879Z" fill="#35aad3"/>
          <path id="Trazado_116110" data-name="Trazado 116110" d="M223.215,440.879a17.818,17.818,0,0,1,.8,10.282c-1.514,6.815.209,7.273.209,7.273s9.237,5.862,16.919,8.258l7.178-.68,2.874-2.258.011-1.8c-.009-.369-.018-.722-.027-1.066a53.215,53.215,0,0,1-10.839-.282,45.027,45.027,0,0,1-10.629-2.663,4.142,4.142,0,0,1-2.613-4.6,59.508,59.508,0,0,0,.994-9.53c-.022-3.008-1.415-8.091-2.553-11.759a23.692,23.692,0,0,1-.957-8.694,77.775,77.775,0,0,0-.008-9.909l-5.691-3.082-3.169,1.181a46.5,46.5,0,0,0,.864,7.312C217.9,426.331,221.066,435.3,223.215,440.879Z" fill="#2496b5"/>
          <g id="Grupo_111227" data-name="Grupo 111227">
            <g id="Grupo_111226" data-name="Grupo 111226">
              <path id="Trazado_116111" data-name="Trazado 116111" d="M248.917,384.965c-1.05.424-.611,3.983-.815,5.127-.188,1.16-1.019,5.613-3.371,6.287-2.336.674-3.794.862-3.794,1.254-.016.173.047.988.109,1.8.032.344.063.689.079.972,0,.078.015.156.015.219a.747.747,0,0,1,.016.188,4.465,4.465,0,0,1-.2,1.662l-1.536,1.019a1.143,1.143,0,0,1-.8.408L237,404.03a1.236,1.236,0,0,1-.344-.031l-.91-.267c-.125-.548-.219-.972-.235-.987-.031-.047-2.869-1.9-4.515-2.979a41.655,41.655,0,0,0-.361-4.155c-.11-.423-1.317-2.759-2.571-5.535-.11-.235-.22-.47-.314-.7-.282-.627-.549-1.27-.815-1.913a1.773,1.773,0,0,1-.11-.251,19.807,19.807,0,0,1-1.615-6.02c0-4.108.141-8.4,2.681-10.521,2.509-2.1,18.454-9.657,18.987,2.729.015.078.015.141.031.219.235.847,1.96,7.165,2.76,8.325A1.964,1.964,0,0,1,248.917,384.965Z" fill="#feaf84"/>
              <path id="Trazado_116112" data-name="Trazado 116112" d="M240.952,402.478l-.156.768a1.132,1.132,0,0,1-1.145.91l-2.728-.11a.879.879,0,0,1-.266-.047l-.91-.267c-.125-.548-.219-.972-.235-.987-.031-.047-2.869-1.9-4.515-2.979a41.655,41.655,0,0,0-.361-4.155c-.11-.423-1.317-2.759-2.571-5.535-.11-.235-.22-.47-.314-.7-.282-.627-.549-1.27-.815-1.913a1.217,1.217,0,0,1-.078-.533l.109-1.223a1.106,1.106,0,0,1,.988-1.019c1.348-.157,3.763-.423,3.888-.408a17.774,17.774,0,0,1,1.646,2.995c0,.125-.674,2.2-.862,2.76a1.537,1.537,0,0,0-.063.282c-.015.627-.109,3.2-.031,5.565a4.7,4.7,0,0,0,2.43,4.014s.079.047.2.11A40.932,40.932,0,0,0,240.952,402.478Z" fill="#f29d77"/>
              <path id="Trazado_116113" data-name="Trazado 116113" d="M249.591,386.094c3.418,3.1-.282,9.83-1.379,10.787s-8.937,3.34-13.437-.988a8.571,8.571,0,0,1-1.928-2.743.05.05,0,0,0-.016-.032,15.5,15.5,0,0,1-1.051-6.162l-1.285.314a34.75,34.75,0,0,0,.219,6.475,1.116,1.116,0,0,1-1.881.8c-2.038-1.991-5.127-6.366-6.177-15.146-1.615-13.5,11.915-14.424,14.957-14.11,2.179.235,5.942.11,6.945-.471,7.6-4.389,6.9,3.434,5.817,6.382-.361,1-1.176,2.273-1.348,2.728a25.544,25.544,0,0,0,.188,3.371,1.8,1.8,0,0,1-.815,1.395s-.768-2.524-.863-2.885c-.078-.267-.392-1.395-.533-1.9a.57.57,0,0,0-.313-.345,7.381,7.381,0,0,0-.941-.267,35.275,35.275,0,0,0-4-.329,1.831,1.831,0,0,0-1.929,1.741c-.188,4.217-2.351,4.985-3.339,5.111a.6.6,0,0,0-.533.533c-.659,5.142,1.317,8.027,2.164,8.168.878.157,3.559-2.148,3.559-2.148S246.189,382.99,249.591,386.094Z" fill="#0b0b3a"/>
            </g>
            <path id="Trazado_116114" data-name="Trazado 116114" d="M232.189,383.517s-.208-2.307-1.977-1.986c-2.1.381-3.137,5.281.093,6.471a1.116,1.116,0,0,0,1.476-1.04A15.756,15.756,0,0,1,232.189,383.517Z" fill="#f29d77"/>
          </g>
          <path id="Trazado_116115" data-name="Trazado 116115" d="M242.6,407.268s8.326,27.292,6.66,40.365l-3.067,5.581-3.353-6.086s2.726-26.137-2.494-39.4Z" fill="#16405a"/>
          <path id="Trazado_116116" data-name="Trazado 116116" d="M243.175,404.946l-.044.358a7.079,7.079,0,0,1-.533,1.964h0l-2.254.462-1.963-1.462,2.252-2.618.349.089a4.982,4.982,0,0,1,2.16,1.177Z" fill="#103649"/>
          <path id="Trazado_116117" data-name="Trazado 116117" d="M230.932,398.688s-.563.674-1.639,2.292a19.511,19.511,0,0,1,2.855,1.374c1.175.718,6.824,4.707,6.824,4.707l1.661-3.411S234.126,399.582,230.932,398.688Z" fill="#2496b5"/>
          <path id="Trazado_116118" data-name="Trazado 116118" d="M240.633,403.65a4.727,4.727,0,0,1,2.584,2.152s.955-2.927.15-4.537a4.339,4.339,0,0,0-2.349-2.239Z" fill="#2496b5"/>
        </g>
        <g id="Grupo_111229" data-name="Grupo 111229">
          <path id="Trazado_116119" data-name="Trazado 116119" d="M249.429,584.676a9.844,9.844,0,0,1,.684,3.324c-.1,1.319-4.3,1.417-4.789.733s-.733-6.745-.733-6.745" fill="#feaf84"/>
          <path id="Trazado_116120" data-name="Trazado 116120" d="M244.213,589.9a28.043,28.043,0,0,0,.383,3.617h4.844l.238-.809a7.606,7.606,0,0,0,2.8.809h4.089c2.992,0,4.692-.381,4.767-.908.316-2.2-3.259-2.1-4.19-2.1-2.673,0-5.567-1.251-6.2-2.608-.457-.985-.255-1.234-.808-1.05a1.388,1.388,0,0,0-.83.717,2.457,2.457,0,0,1-2.526,1.378,2.925,2.925,0,0,1-1.637-.79A1.767,1.767,0,0,0,244.213,589.9Z" fill="#3a3a3a"/>
        </g>
        <g id="Grupo_111230" data-name="Grupo 111230">
          <path id="Trazado_116121" data-name="Trazado 116121" d="M202.3,580.108a39.7,39.7,0,0,1-1.476,4.736c-.58,1.189-4.52-.277-4.721-1.093s1.817-6.537,1.817-6.537" fill="#feaf84"/>
          <path id="Trazado_116122" data-name="Trazado 116122" d="M194.645,584.421c-.509,1.277-1.264,3.754-1.264,3.754l3.671,2.19.72-.544a7.16,7.16,0,0,0,1.932,2.018,15.746,15.746,0,0,0,3.635,1.507c3.354.766,5.945.4,6.21-.066,1.109-1.928-3.336-2.987-4.2-3.332a6,6,0,0,1-3.7-4.89c-.06-1.084.22-1.241-.362-1.274a1.383,1.383,0,0,0-1.036.358,2.456,2.456,0,0,1-2.857.344,2.926,2.926,0,0,1-1.228-1.339A1.766,1.766,0,0,0,194.645,584.421Z" fill="#3a3a3a"/>
        </g>
        <g id="Grupo_111234" data-name="Grupo 111234">
          <path id="Trazado_116123" data-name="Trazado 116123" d="M219.325,485.636s-6.582-15.76,4.9-27.2c0,0,9.8,4.384,17.64,4.914a38.856,38.856,0,0,0,9.314-.223,144.106,144.106,0,0,1,1.634,30.367Z" fill="#243a6c"/>
          <path id="Trazado_116124" data-name="Trazado 116124" d="M244.014,586.2c.2.015.4.015.582.015a33.227,33.227,0,0,0,6.411-.44v-1.177c-.227-18.042,1.957-47.531,2.383-56.85a10.386,10.386,0,0,0-.057-1.787c-.709-6.822-7.758-5.929-10.723.34a25.066,25.066,0,0,0-1.674,4.823,44.208,44.208,0,0,0-1.092,6.808C238.468,553.5,242.809,574.566,244.014,586.2Z" fill="#243a6c"/>
          <path id="Trazado_116125" data-name="Trazado 116125" d="M231.788,492.908c.028.184.071.383.113.582,1.56,8.212,6.624,30.41,9.035,37.616v.014a4.337,4.337,0,0,0,3.107,2.269c3.546.965,8.836-.354,9.29-7.432a17.176,17.176,0,0,0-.028-2.553c-.3-3.689-.56-19.441-.494-29.912.037-5.944-1.4-9.544-1.492-10.64-.241-3.064-.794-7.532-2.411-8.1C240.837,471.958,229.674,481.419,231.788,492.908Z" fill="#243a6c"/>
          <path id="Trazado_116126" data-name="Trazado 116126" d="M239.844,537.928c-1.376,15.574,2.965,36.638,4.17,48.268.2.015.4.015.582.015,0,0-1.007-18.425-2.653-31.191a50.608,50.608,0,0,1,2.1-21.631c.326-.993.553-1.532.553-1.532l-1.986-5.56c-2.213-7.233-2.269-24.112-2.269-24.112,5.39-11.887,6.141-26.851,6.141-26.851l-4.609.638-8.256,9.9L231.9,493.49c1.56,8.212,6.624,30.41,9.035,37.616v.014A44.208,44.208,0,0,0,239.844,537.928Z" fill="#1c3059"/>
          <path id="Trazado_116127" data-name="Trazado 116127" d="M239.32,525.585a39.6,39.6,0,0,1,.524,12.343c-.86,6.1,2.922-5.366,2.922-5.366l-2.009-4.137Z" fill="#1c3059"/>
          <path id="Trazado_116128" data-name="Trazado 116128" d="M215.709,525.837c5.464-5.14,13.064-2.707,9.515,5.27-3.8,8.529-15.535,32.207-21.9,49.086l-.439,1.1a34.542,34.542,0,0,1-6.661-2.158c3.028-10.956,5.23-29.838,11.524-43A35.6,35.6,0,0,1,215.709,525.837Z" fill="#243a6c"/>
          <g id="Grupo_111233" data-name="Grupo 111233">
            <g id="Grupo_111232" data-name="Grupo 111232">
              <g id="Grupo_111231" data-name="Grupo 111231">
                <path id="Trazado_116129" data-name="Trazado 116129" d="M246.489,475.338c1.061-12.689-14.755-4.262-22.34-.072-3.193,1.763-4.361,5.292-4.79,8.613s-4.528,37.515-5.351,43.754c-1.856,14.064,10.428,6.373,11.589,2.476C228.527,520.271,245.91,482.253,246.489,475.338Z" fill="#243a6c"/>
              </g>
            </g>
          </g>
          <path id="Trazado_116130" data-name="Trazado 116130" d="M215.1,518.916s-.5,6.73-6.155,15.029c0,0,9.251-4.272,9.7-4.9s2.065-7.147,1.886-7.838S215.1,518.916,215.1,518.916Z" fill="#243a6c"/>
        </g>
        <path id="Trazado_116131" data-name="Trazado 116131" d="M339.966,330,329.2,367.785,195.239,512.09,194,513.422l-12.873,13.52L156.433,504l13.7-14.413,2.665-2.885L304.5,344.848Z" fill="#ffc25b"/>
        <rect id="Rectángulo_40642" data-name="Rectángulo 40642" width="10.339" height="33.703" transform="matrix(0.68, -0.733, 0.733, 0.68, 156.426, 504.011)" fill="#fe7f9a"/>
        <rect id="Rectángulo_40643" data-name="Rectángulo 40643" width="10.339" height="33.703" transform="matrix(0.681, -0.732, 0.732, 0.681, 163.469, 496.421)" fill="#ffe7c5"/>
        <path id="Trazado_116132" data-name="Trazado 116132" d="M304.5,344.848,329.2,367.785,339.966,330Z" fill="#ffe7c5"/>
        <path id="Trazado_116133" data-name="Trazado 116133" d="M327.274,335.314l8.967,7.752L339.966,330Z" fill="#ffc25b"/>
        <path id="Trazado_116134" data-name="Trazado 116134" d="M339.966,330l-15.839,33.077L174.28,520.582l6.846,6.359L329.2,367.785Z" fill="#ffc25b" style="mix-blend-mode: multiply;isolation: isolate"/>
        <path id="Trazado_116135" data-name="Trazado 116135" d="M234.243,465.38l-.078.894-1.239,1.333a3.971,3.971,0,0,1-1.913-1.192,12.116,12.116,0,0,1-1.223-2.007l-.559.656s-14.009-10.9-20.039-21.428l2.537-2.745,2.3.909s6.742,6.789,7.181,7.416c.439.643,5.205,7.839,5.205,7.839Z" fill="#bec4cc" opacity="0.67" style="mix-blend-mode: multiply;isolation: isolate"/>
        <g id="Grupo_111235" data-name="Grupo 111235">
          <path id="Trazado_116136" data-name="Trazado 116136" d="M227.894,462.531l4.411-3.668s1.3,2.15,2.253,2.447a6.844,6.844,0,0,0,1.166-.137,7.828,7.828,0,0,1,3.562,1.105c1.039.476,2.408.909,2.463,1.325s-.666,1.071-1.392,1.017a1.858,1.858,0,0,1-.357-.075,1.628,1.628,0,0,1-.083.439c-.3.925-4.63,6.97-8.934.395A12.375,12.375,0,0,0,227.894,462.531Z" fill="#ffbc9f"/>
          <path id="Trazado_116137" data-name="Trazado 116137" d="M225.667,419.521c-1.458,4.484-3.011,11.571-5.943,17.575-.062.141-.125.267-.187.377-.016.031-.032.047-.048.078a5.031,5.031,0,0,1-.219.659,5.356,5.356,0,0,1-5.237,3.59c-.156,0-.58.016-1.113.047a20.276,20.276,0,0,1-2.179,0c-.909-.063-1.709-.235-1.976-.69-.015,0-.015-.016-.015-.016a2.633,2.633,0,0,1-.11-.454,1.178,1.178,0,0,1-.047-.251,1.4,1.4,0,0,1-.047-.267c-.031-.25-.047-.5-.063-.752a3.161,3.161,0,0,1-.015-.376,25.685,25.685,0,0,1,.3-3.669c.471-5.049,5.456-20.853,7.15-27.438a4.547,4.547,0,0,1,1.552-2.43,4.017,4.017,0,0,1,2.367-.94c.016,0,.016,0,.032-.016a2.95,2.95,0,0,1,.376,0c2.211.063,3.732,1.8,4.75,3.888a13.53,13.53,0,0,1,1.3,4.374A15.489,15.489,0,0,1,225.667,419.521Z" fill="#35aad3"/>
          <path id="Trazado_116138" data-name="Trazado 116138" d="M233.255,460.943l-2.759,2.493-.016.016-.721.627s-5.6-4.86-9.956-8.968c-4.029-3.826-8.137-8.09-10.693-13.2-.125-.236-.251-.5-.36-.737v-.032a2.633,2.633,0,0,1-.11-.454,1.178,1.178,0,0,1-.047-.251,1.4,1.4,0,0,1-.047-.267c-.031-.25-.047-.5-.063-.752a3.161,3.161,0,0,1-.015-.376,4.58,4.58,0,0,1,1.019-2.948c.062-.078.141-.157.2-.235a4.906,4.906,0,0,1,1.913-1.145,7.764,7.764,0,0,1,6.24.847c.173.172.361.361.533.564.377.408.769.863,1.161,1.349a22.654,22.654,0,0,1,3.01,5.032C225.212,448.667,233.255,460.943,233.255,460.943Z" fill="#35aad3"/>
        </g>
        <path id="Trazado_116139" data-name="Trazado 116139" d="M298.957,400.36s6.722-4.679,7.022-8.256c.332-3.951-2.445-5.848-4.272-3.669-2.875,3.428-2.1,9.619-2.1,9.619l-.649,2.306Z" fill="#ffbc9f"/>
        <path id="Trazado_116140" data-name="Trazado 116140" d="M230.5,463.436l-.016.016-.721.627s-5.6-4.86-9.956-8.968c-4.029-3.826-8.137-8.09-10.693-13.2-.125-.236-.251-.5-.36-.737v-.032a2.633,2.633,0,0,1-.11-.454,1.178,1.178,0,0,1-.047-.251,1.4,1.4,0,0,1-.047-.267c-.031-.25-.047-.5-.063-.752a3.161,3.161,0,0,1-.015-.376,25.685,25.685,0,0,1,.3-3.669c.471-5.049,5.456-20.853,7.15-27.438a4.547,4.547,0,0,1,1.552-2.43,4.017,4.017,0,0,1,2.367-.94c.016,0,.016,0,.032-.016a2.95,2.95,0,0,1,.376,0c-1.05,1.693-2.54,5.111-4.217,11.963-2.227,9.14-3.795,14.659-4.422,18.2a12.344,12.344,0,0,0-.282,3.81,11.774,11.774,0,0,0,1.6,3.324C216.761,448.212,226.513,460.708,230.5,463.436Z" fill="#2496b5"/>
      </g>
    </g>
    <g id="Grupo_111223" data-name="Grupo 111223" transform="translate(1331.573 225.368)">
      <path id="Trazado_116097" data-name="Trazado 116097" d="M553.093,592.907c0,2.876-55.879,5.208-124.808,5.208s-124.808-2.332-124.808-5.208,55.878-5.208,124.808-5.208S553.093,590.031,553.093,592.907Z" fill="#b9ddfc" style="isolation: isolate"/>
      <path id="Trazado_116098" data-name="Trazado 116098" d="M430.662,229.632a12.526,12.526,0,0,0-12.526,12.525V258.21h25.051V242.157A12.525,12.525,0,0,0,430.662,229.632Zm0,19.713a7.027,7.027,0,1,1,7.027-7.027A7.027,7.027,0,0,1,430.662,249.345Z" fill="#e8505b"/>
      <path id="Trazado_116099" data-name="Trazado 116099" d="M437.689,242.318a7.027,7.027,0,0,0-7.027-7.027,6.934,6.934,0,0,0-1.056.107,5.143,5.143,0,0,1,2.851-.683,7.028,7.028,0,0,1,7.028,7.027c0,3.519-1.8,5.426-4.508,6.122A7.684,7.684,0,0,0,437.689,242.318Zm-15.726,14.289V240.555a12.222,12.222,0,0,1,5.265-10.434,12.521,12.521,0,0,0-9.092,12.036V258.21h25.051v-1.6Z" fill="#b03d44" opacity="0.45"/>
      <rect id="Rectángulo_40635" data-name="Rectángulo 40635" width="236.082" height="333.796" rx="9.742" transform="translate(310.244 259.053)" fill="#3e89cc"/>
      <rect id="Rectángulo_40636" data-name="Rectángulo 40636" width="208.716" height="307.613" transform="translate(323.927 272.145)" fill="#c3ecfe"/>
      <rect id="Rectángulo_40637" data-name="Rectángulo 40637" width="192.665" height="288.818" transform="translate(331.952 281.542)" fill="#fff"/>
      <path id="Trazado_116100" data-name="Trazado 116100" d="M504.217,264.578v12.546H352.348V264.578a8.811,8.811,0,0,1,8.807-8.807H495.409A8.8,8.8,0,0,1,504.217,264.578Z" fill="#e8505b"/>
      <path id="Trazado_116101" data-name="Trazado 116101" d="M504.217,273.988v3.136H352.348V264.578a8.811,8.811,0,0,1,8.807-8.807h1.217a13.189,13.189,0,0,0-4.152,9.134v9.083Z" fill="#b03d44" opacity="0.45"/>
      <g id="Grupo_111222" data-name="Grupo 111222">
        <g id="Grupo_111214" data-name="Grupo 111214">
          <g id="Grupo_111213" data-name="Grupo 111213" opacity="0.15">
            <line id="Línea_198" data-name="Línea 198" x2="31.296" transform="translate(385.383 312.246)" fill="none" stroke="#0964af" stroke-linecap="round" stroke-linejoin="round" stroke-width="3.122"/>
            <line id="Línea_199" data-name="Línea 199" x2="23.796" transform="translate(486.91 322.224)" fill="none" stroke="#0964af" stroke-linecap="round" stroke-linejoin="round" stroke-width="3.122"/>
            <line id="Línea_200" data-name="Línea 200" x2="91.215" transform="translate(385.383 322.224)" fill="none" stroke="#0964af" stroke-linecap="round" stroke-linejoin="round" stroke-width="3.122"/>
            <line id="Línea_201" data-name="Línea 201" x2="125.323" transform="translate(385.383 332.201)" fill="none" stroke="#0964af" stroke-linecap="round" stroke-linejoin="round" stroke-width="3.122"/>
            <line id="Línea_202" data-name="Línea 202" x2="39.834" transform="translate(470.871 342.179)" fill="none" stroke="#0964af" stroke-linecap="round" stroke-linejoin="round" stroke-width="3.122"/>
            <line id="Línea_203" data-name="Línea 203" x2="75.573" transform="translate(385.383 342.179)" fill="none" stroke="#0964af" stroke-linecap="round" stroke-linejoin="round" stroke-width="3.122"/>
            <line id="Línea_204" data-name="Línea 204" x2="83.757" transform="translate(426.948 312.246)" fill="none" stroke="#0964af" stroke-linecap="round" stroke-linejoin="round" stroke-width="3.122"/>
          </g>
        </g>
        <g id="Grupo_111216" data-name="Grupo 111216">
          <g id="Grupo_111215" data-name="Grupo 111215" opacity="0.15">
            <line id="Línea_205" data-name="Línea 205" x2="31.296" transform="translate(385.383 383.971)" fill="none" stroke="#0964af" stroke-linecap="round" stroke-linejoin="round" stroke-width="3.122"/>
            <line id="Línea_206" data-name="Línea 206" x2="23.796" transform="translate(486.91 393.948)" fill="none" stroke="#0964af" stroke-linecap="round" stroke-linejoin="round" stroke-width="3.122"/>
            <line id="Línea_207" data-name="Línea 207" x2="91.215" transform="translate(385.383 393.948)" fill="none" stroke="#0964af" stroke-linecap="round" stroke-linejoin="round" stroke-width="3.122"/>
            <line id="Línea_208" data-name="Línea 208" x2="125.323" transform="translate(385.383 403.926)" fill="none" stroke="#0964af" stroke-linecap="round" stroke-linejoin="round" stroke-width="3.122"/>
            <line id="Línea_209" data-name="Línea 209" x2="39.834" transform="translate(470.871 413.903)" fill="none" stroke="#0964af" stroke-linecap="round" stroke-linejoin="round" stroke-width="3.122"/>
            <line id="Línea_210" data-name="Línea 210" x2="75.573" transform="translate(385.383 413.903)" fill="none" stroke="#0964af" stroke-linecap="round" stroke-linejoin="round" stroke-width="3.122"/>
            <line id="Línea_211" data-name="Línea 211" x2="83.757" transform="translate(426.948 383.971)" fill="none" stroke="#0964af" stroke-linecap="round" stroke-linejoin="round" stroke-width="3.122"/>
          </g>
        </g>
        <g id="Grupo_111218" data-name="Grupo 111218">
          <g id="Grupo_111217" data-name="Grupo 111217" opacity="0.15">
            <line id="Línea_212" data-name="Línea 212" x2="31.296" transform="translate(385.383 453.186)" fill="none" stroke="#0964af" stroke-linecap="round" stroke-linejoin="round" stroke-width="3.122"/>
            <line id="Línea_213" data-name="Línea 213" x2="23.796" transform="translate(486.91 463.163)" fill="none" stroke="#0964af" stroke-linecap="round" stroke-linejoin="round" stroke-width="3.122"/>
            <line id="Línea_214" data-name="Línea 214" x2="91.215" transform="translate(385.383 463.163)" fill="none" stroke="#0964af" stroke-linecap="round" stroke-linejoin="round" stroke-width="3.122"/>
            <line id="Línea_215" data-name="Línea 215" x2="125.323" transform="translate(385.383 473.141)" fill="none" stroke="#0964af" stroke-linecap="round" stroke-linejoin="round" stroke-width="3.122"/>
            <line id="Línea_216" data-name="Línea 216" x2="39.834" transform="translate(470.871 483.119)" fill="none" stroke="#0964af" stroke-linecap="round" stroke-linejoin="round" stroke-width="3.122"/>
            <line id="Línea_217" data-name="Línea 217" x2="75.573" transform="translate(385.383 483.119)" fill="none" stroke="#0964af" stroke-linecap="round" stroke-linejoin="round" stroke-width="3.122"/>
            <line id="Línea_218" data-name="Línea 218" x2="83.757" transform="translate(426.948 453.186)" fill="none" stroke="#0964af" stroke-linecap="round" stroke-linejoin="round" stroke-width="3.122"/>
          </g>
        </g>
        <g id="Grupo_111220" data-name="Grupo 111220">
          <g id="Grupo_111219" data-name="Grupo 111219" opacity="0.15">
            <line id="Línea_219" data-name="Línea 219" x2="31.296" transform="translate(385.383 523.656)" fill="none" stroke="#0964af" stroke-linecap="round" stroke-linejoin="round" stroke-width="3.122"/>
            <line id="Línea_220" data-name="Línea 220" x2="23.796" transform="translate(486.91 533.634)" fill="none" stroke="#0964af" stroke-linecap="round" stroke-linejoin="round" stroke-width="3.122"/>
            <line id="Línea_221" data-name="Línea 221" x2="91.215" transform="translate(385.383 533.634)" fill="none" stroke="#0964af" stroke-linecap="round" stroke-linejoin="round" stroke-width="3.122"/>
            <line id="Línea_222" data-name="Línea 222" x2="125.323" transform="translate(385.383 543.611)" fill="none" stroke="#0964af" stroke-linecap="round" stroke-linejoin="round" stroke-width="3.122"/>
            <line id="Línea_223" data-name="Línea 223" x2="39.834" transform="translate(470.871 553.589)" fill="none" stroke="#0964af" stroke-linecap="round" stroke-linejoin="round" stroke-width="3.122"/>
            <line id="Línea_224" data-name="Línea 224" x2="75.573" transform="translate(385.383 553.589)" fill="none" stroke="#0964af" stroke-linecap="round" stroke-linejoin="round" stroke-width="3.122"/>
            <line id="Línea_225" data-name="Línea 225" x2="83.757" transform="translate(426.948 523.656)" fill="none" stroke="#0964af" stroke-linecap="round" stroke-linejoin="round" stroke-width="3.122"/>
          </g>
        </g>
        <g id="Grupo_111221" data-name="Grupo 111221">
          <rect id="Rectángulo_40638" data-name="Rectángulo 40638" width="28.691" height="28.691" rx="2.102" transform="translate(346.125 309.235)" fill="none" stroke="#2396b5" stroke-miterlimit="10" stroke-width="1.157"/>
          <rect id="Rectángulo_40639" data-name="Rectángulo 40639" width="28.691" height="28.691" rx="2.102" transform="translate(346.125 380.727)" fill="none" stroke="#2396b5" stroke-miterlimit="10" stroke-width="1.157"/>
          <rect id="Rectángulo_40640" data-name="Rectángulo 40640" width="28.691" height="28.691" rx="2.102" transform="translate(346.125 452.219)" fill="none" stroke="#2396b5" stroke-miterlimit="10" stroke-width="1.157"/>
          <rect id="Rectángulo_40641" data-name="Rectángulo 40641" width="28.691" height="28.691" rx="2.102" transform="translate(346.125 523.71)" fill="none" stroke="#2396b5" stroke-miterlimit="10" stroke-width="1.157"/>
          <path id="Trazado_116102" data-name="Trazado 116102" d="M349.656,318.53l10.815,13.06,20.808-32.831" fill="none" stroke="#ffa829" stroke-linecap="round" stroke-linejoin="round" stroke-width="3.47"/>
          <path id="Trazado_116103" data-name="Trazado 116103" d="M349.656,389.427l10.815,13.06,20.808-32.831" fill="none" stroke="#ffa829" stroke-linecap="round" stroke-linejoin="round" stroke-width="3.47"/>
        </g>
      </g>
    </g>
  </g>
</svg>
