<svg xmlns="http://www.w3.org/2000/svg" xmlns:xlink="http://www.w3.org/1999/xlink" width="561.468" height="489.401" viewBox="0 0 561.468 489.401">
  <defs>
    <filter id="Rectángulo_40816" x="30.401" y="27" width="505" height="435" filterUnits="userSpaceOnUse">
      <feOffset dy="3" input="SourceAlpha"/>
      <feGaussianBlur stdDeviation="3" result="blur"/>
      <feFlood flood-color="#403e3e" flood-opacity="0.161" result="color"/>
      <feComposite operator="out" in="SourceGraphic" in2="blur"/>
      <feComposite operator="in" in="color"/>
      <feComposite operator="in" in2="SourceGraphic"/>
    </filter>
  </defs>
  <g id="Grupo_112220" data-name="Grupo 112220" transform="translate(-569.266 -1682)">
    <g data-type="innerShadowGroup">
      <rect id="Rectángulo_40816-2" data-name="Rectángulo 40816" width="505" height="435" rx="23" transform="translate(599.667 1709)" fill="#ffb30b" opacity="0.15"/>
      <g transform="matrix(1, 0, 0, 1, 569.27, 1682)" filter="url(#Rectángulo_40816)">
        <rect id="Rectángulo_40816-3" data-name="Rectángulo 40816" width="505" height="435" rx="23" transform="translate(30.4 27)" fill="#fff" opacity="0.15"/>
      </g>
    </g>
    <g id="Grupo_112045" data-name="Grupo 112045" transform="translate(-34.333 102)">
      <g id="Grupo_112044" data-name="Grupo 112044" transform="translate(685 1641)">
        <g id="Grupo_111255" data-name="Grupo 111255" transform="translate(0 0)">
          <g id="_1" data-name="1" transform="translate(60.78 0)">
            <path id="Trazado_116164" data-name="Trazado 116164" d="M518.634,409.962l0-.036c-.362-9.158-.9-18.32-1.713-27.449a135.277,135.277,0,0,0-2.349-17.793c-1.625-7.189-4.894-14.506-10.389-19.587a29.007,29.007,0,0,0-13.549-7.239,32.284,32.284,0,0,0-6.975-.666c-.478.009-2.026.009-2.5,0a32.281,32.281,0,0,0-6.974.666,29.006,29.006,0,0,0-13.548,7.239c-5.495,5.082-8.765,12.4-10.389,19.587a135.287,135.287,0,0,0-2.349,17.793c-.812,9.129-1.351,18.291-1.713,27.449l0,.036a7.049,7.049,0,1,0,14.1.1q.513-13.186,1.615-26.349c.3-3.542.648-7.083,1.111-10.608a50.621,50.621,0,0,1,2.679-10.829,30.173,30.173,0,0,1,2.8-4.943,23.923,23.923,0,0,1,2.973-3.029,14.762,14.762,0,0,1,7.241-3,12.616,12.616,0,0,1,2.359-.02,12.461,12.461,0,0,1,2.706,0,12.613,12.613,0,0,1,2.359.02,14.764,14.764,0,0,1,7.241,3,23.947,23.947,0,0,1,2.973,3.029,30.223,30.223,0,0,1,2.8,4.943,50.625,50.625,0,0,1,2.679,10.829c.463,3.525.809,7.066,1.111,10.608q1.122,13.148,1.616,26.349a7.049,7.049,0,1,0,14.1-.1Z" transform="translate(-446.175 -296.801)" fill="#ffb30b"/>
            <path id="Trazado_116165" data-name="Trazado 116165" d="M489.843,509.627V440.1a8.224,8.224,0,0,0-16.447-.118v69.532a8.224,8.224,0,1,0,16.447.118Z" transform="translate(-455.33 -328.625)" fill="#ffb30b"/>
            <path id="Trazado_116166" data-name="Trazado 116166" d="M519.8,509.627V440.1a8.224,8.224,0,0,0-16.447-.118v69.532a8.224,8.224,0,1,0,16.447.118Z" transform="translate(-465.406 -328.625)" fill="#ffb30b"/>
            <path id="Trazado_116167" data-name="Trazado 116167" d="M507.969,350.055H475.153a1.958,1.958,0,0,0-1.757,2.11v61.553a1.958,1.958,0,0,0,1.757,2.111h14.693v-.007a1.716,1.716,0,0,1,3.431,0v.007h14.692a1.958,1.958,0,0,0,1.758-2.111V352.165A1.958,1.958,0,0,0,507.969,350.055Z" transform="translate(-455.33 -301.129)" fill="#ffb30b"/>
            <circle id="Elipse_4720" data-name="Elipse 4720" cx="17.696" cy="17.696" r="17.696" transform="translate(17.217 2.743) rotate(-4.445)" fill="#ffb30b"/>
          </g>
          <g id="Grupo_111253" data-name="Grupo 111253" transform="translate(0 290.875)">
            <path id="Trazado_116030" data-name="Trazado 116030" d="M2.838,0H123.162C124.729,0,126,1.666,126,3.721V28.279c0,2.055-1.271,3.721-2.838,3.721H2.838C1.271,32,0,30.334,0,28.279V3.721C0,1.666,1.271,0,2.838,0Z" transform="translate(0 -0.084)" fill="#b9ddfc"/>
            <text id="Caso_1" data-name="Caso 1" transform="translate(8 4)" fill="#12263f" font-size="20" font-family="Roboto-Bold, Roboto" font-weight="700"><tspan x="-30.928" y="21">Caso 1</tspan></text>
          </g>
          <g id="Grupo_111254" data-name="Grupo 111254" transform="translate(276.602 290.875)">
            <path id="Trazado_116030-2" data-name="Trazado 116030" d="M2.838,0H123.162C124.729,0,126,1.666,126,3.721V28.279c0,2.055-1.271,3.721-2.838,3.721H2.838C1.271,32,0,30.334,0,28.279V3.721C0,1.666,1.271,0,2.838,0Z" transform="translate(0 -0.084)" fill="#b9ddfc"/>
            <text id="Caso_2" data-name="Caso 2" transform="translate(8 4)" fill="#12263f" font-size="20" font-family="Roboto-Bold, Roboto" font-weight="700"><tspan x="-30.928" y="21">Caso 2</tspan></text>
          </g>
          <line id="Línea_226" data-name="Línea 226" x2="190.068" y2="171.524" transform="translate(149.118 93.854)" fill="none" stroke="#707070" stroke-linecap="round" stroke-width="2"/>
          <line id="Línea_227" data-name="Línea 227" x1="123.621" transform="translate(142.937 310.191)" fill="none" stroke="#707070" stroke-linecap="round" stroke-width="2" stroke-dasharray="2 5"/>
          <path id="Polígono_24" data-name="Polígono 24" d="M6.954,0l6.954,17H0Z" transform="translate(348.622 263.777) rotate(129)" fill="#636363"/>
          <path id="Polígono_25" data-name="Polígono 25" d="M6.954,0l6.954,17H0Z" transform="translate(131.88 316.996) rotate(-89)" fill="#636363"/>
          <text id="_Extiende_" data-name="&lt;&lt; Extiende &gt;&gt;" transform="translate(126.712 361.868)" fill="#12263f" font-size="21" font-family="Roboto-Regular, Roboto"><tspan x="0" y="0">&lt;&lt; Extiende &gt;&gt;</tspan></text>
          <text id="Nombre_del_actor" data-name="Nombre del actor" transform="translate(16.012 218.159)" fill="#12263f" font-size="21" font-family="Roboto-Bold, Roboto" font-weight="700"><tspan x="0" y="0">Nombre del actor</tspan></text>
        </g>
      </g>
    </g>
    <g id="Grupo_112047" data-name="Grupo 112047" transform="translate(1131.734 1738.473) rotate(135)" style="isolation: isolate">
      <path id="Trazado_114472" data-name="Trazado 114472" d="M1.308,31.118,32.426,0V17.665L17.712,32.379a2.682,2.682,0,0,0,0,3.793L32.426,50.885V68.55L1.308,37.432A4.465,4.465,0,0,1,1.308,31.118Z" transform="translate(-4.95 6.364)" fill="#ffb30b" style="mix-blend-mode: overlay;isolation: isolate"/>
    </g>
    <g id="Grupo_112048" data-name="Grupo 112048" transform="translate(568.266 2114.929) rotate(-45)" style="isolation: isolate">
      <path id="Trazado_114472-2" data-name="Trazado 114472" d="M1.308,31.118,32.426,0V17.665L17.712,32.379a2.682,2.682,0,0,0,0,3.793L32.426,50.885V68.55L1.308,37.432A4.465,4.465,0,0,1,1.308,31.118Z" transform="translate(-4.95 6.364)" fill="#ffb30b" style="mix-blend-mode: overlay;isolation: isolate"/>
    </g>
  </g>
</svg>
