<svg xmlns="http://www.w3.org/2000/svg" width="346.826" height="230.771" viewBox="0 0 346.826 230.771">
  <g id="Grupo_112241" data-name="Grupo 112241" transform="translate(-285 -7329.464)">
    <rect id="BG" width="346.826" height="230.771" transform="translate(631.826 7560.235) rotate(180)" fill="#fee3a8" opacity="0.949"/>
    <g id="Grupo_111362" data-name="Grupo 111362" transform="translate(-35.351 7241.299)">
      <path id="Trazado_116196" data-name="Trazado 116196" d="M641.147,925.473c-.07-2.218-.143-4.437-.243-6.656-.2-4.486-.515-8.973-1.145-13.421-1.055-7.448-3.83-14.075-5.771-21.266a82.948,82.948,0,0,1-1.835-8.658,99.255,99.255,0,0,1-1.157-16.4c.046-5.382.436-10.816,2.326-15.9,1.026-2.766,2.165-6.233,4.414-8.263.356-.321.988-.674,1.281-.975,0,0,0-.005,0-.008.111-.085.22-.173.323-.266.077-.5.17-.993.245-1.5.006-.038.011-.077.016-.115-1.161-.094-2.444.746-3.465,1.189-2.434,1.059-4.933,1.963-7.358,3.046-1.116.5-2.249,1.02-3.34,1.55-1.064.518-1.9,1.389-2.97,1.91-1.2.582-2.393,1.158-3.608,1.7-.919.412-1.841.819-2.756,1.24a25.5,25.5,0,0,0,2.534,5.036c-.033.114-.065.228-.1.341-.9,2.869-2.662,5.346-3.862,8.083-.295.672-.542,1.357-.786,2.038h0c.55.3.573.97.759,1.549,1.55,4.8-.991,7.577-1.689,12.069-.56,3.6.786,6.851.637,10.364-.1,2.267-1.355,4.208-1.937,6.349a23.6,23.6,0,0,0-.58,2.918c-1.3,9.376-3.411,18.7-5.247,28-.44,2.228-.821,4.635-1.4,6.989h.005c.591,7.194.668,14.553.613,21.824H641.1c.158-3.25.277-6.5.287-9.755C641.406,934.121,641.286,929.836,641.147,925.473Zm-7.961-12.589a1.982,1.982,0,0,1,1.516-2.811,1.884,1.884,0,0,1,1.529.385c1.113.87.645,2.292-.133,3.214S633.6,913.8,633.186,912.883Zm4.183,21.718c-.772.915-2.5.13-2.912-.788A1.981,1.981,0,0,1,635.971,931a1.883,1.883,0,0,1,1.529.385C638.614,932.257,638.146,933.68,637.369,934.6Z" transform="translate(-235.529 -647.326)" fill="#4f95cf"/>
      <path id="Trazado_116197" data-name="Trazado 116197" d="M634.325,399.115a.6.6,0,0,1,.066.964,1.486,1.486,0,0,1-1.2.275c-.6-.082-1.224-.121-1.824-.151-.709-.035-1.421-.039-2.131-.063-.516-.018-1.425.079-1.839-.3-.526-.481-.076-.95.478-1.066a6.325,6.325,0,0,1,1.531.024c.365.014.737.032,1.107.045.788.027,1.577.014,2.365.021A2.721,2.721,0,0,1,634.325,399.115Z" transform="translate(-255.719 -262.328)" fill="#ffbc3b"/>
      <path id="Trazado_116198" data-name="Trazado 116198" d="M608.714,299.625c.671.042.622.779.213,1.112-.056.224-.409.286-.589.421-.271.2-1.748,1.346-1.978,1.591a4.241,4.241,0,0,1-.7.506c-.321.23-1.388,1.043-1.731.412a.64.64,0,0,1,.069-.6,2.541,2.541,0,0,1,1.009-.833,3.188,3.188,0,0,0,.987-.744c.236-.293,1.737-1.335,2.023-1.566A1.044,1.044,0,0,1,608.714,299.625Z" transform="translate(-235.037 -174.271)" fill="#ffbc3b"/>
      <path id="Trazado_116199" data-name="Trazado 116199" d="M603.883,471.681a.6.6,0,0,1-.631.732,1.486,1.486,0,0,1-1.05-.651c-.368-.479-.782-.947-1.188-1.391-.479-.524-.982-1.028-1.469-1.545-.354-.376-1.069-.946-1.1-1.507-.037-.712.615-.729,1.088-.42a6.289,6.289,0,0,1,1.071,1.092c.249.269.5.543.754.812.541.574,1.111,1.119,1.666,1.68A2.739,2.739,0,0,1,603.883,471.681Z" transform="translate(-230.208 -322.726)" fill="#ffbc3b"/>
      <path id="Trazado_116200" data-name="Trazado 116200" d="M566.095,406.234c.164,1.026-1.019.991-1.768.947a3.748,3.748,0,0,1,.887-1.184C565.581,405.679,566,405.665,566.095,406.234Z" transform="translate(-199.892 -268.589)" fill="#ffbc3b"/>
      <path id="Trazado_116201" data-name="Trazado 116201" d="M524.092,506.511c0,.031-.106-.015-.163-.035-.11-.035-.226-.078-.331-.121a4.448,4.448,0,0,0-.694-.242c-1.216-.288-2.427-.723-3.617-1.1h-.034c0-.34.017-.685-.005-1.02-.014-.216-.094-.46-.1-.691h.018a18.124,18.124,0,0,0,2.393.922,13.925,13.925,0,0,1,2.353.774c.094.048.22.172.314.14h.041a8.5,8.5,0,0,1-.106,1.39Z" transform="translate(-159.748 -355.235)" fill="#dedede"/>
      <path id="Trazado_116202" data-name="Trazado 116202" d="M524.793,520.123c.058.02.163.066.163.035l.066.011c-.02.12-.044.24-.072.358a3.9,3.9,0,0,1-.326,1.038,2.824,2.824,0,0,1-.169.265l-.013-.008c-.321-.13-.65-.316-.989-.427-1.06-.347-2.13-.812-3.156-1.247h-.111a7.553,7.553,0,0,0-.034-.927,4.4,4.4,0,0,1-.035-.564h.034c1.19.379,2.4.815,3.617,1.1a4.457,4.457,0,0,1,.694.242C524.568,520.045,524.683,520.088,524.793,520.123Z" transform="translate(-160.612 -368.883)" fill="#dedede"/>
      <path id="Trazado_116203" data-name="Trazado 116203" d="M517.713,415.314H517.7c-.085-1.222-.468-2.4-.654-3.62a23.883,23.883,0,0,0-.9-4.6,6.793,6.793,0,0,0-.293-.685l.25-.014a3.252,3.252,0,0,0,.871-.219,2.484,2.484,0,0,0,.808-.537,3.682,3.682,0,0,0,.671-.644l.055-.087a3.287,3.287,0,0,0,1.632,1.269,3.226,3.226,0,0,0,.871.219l.248.014a6.5,6.5,0,0,0-.292.685,160.668,160.668,0,0,0-1.477,7.941c0,.1.015.207.017.31C518.9,415.348,518.3,415.331,517.713,415.314Z" transform="translate(-156.816 -267.815)" fill="#ffbc3b"/>
      <path id="Trazado_116204" data-name="Trazado 116204" d="M524.995,533.694l.013.008a2.634,2.634,0,0,1-.493.526,2.407,2.407,0,0,1-1.744.35,2.3,2.3,0,0,1-1.62-1.07,2.6,2.6,0,0,1-.372-.953,3.567,3.567,0,0,1-.041-.534h.111c1.026.435,2.1.9,3.156,1.247C524.345,533.379,524.673,533.565,524.995,533.694Z" transform="translate(-161.163 -380.756)" fill="#dedede"/>
      <path id="Trazado_116205" data-name="Trazado 116205" d="M535.2,380.4a3.422,3.422,0,0,1-.407,1.807,3.684,3.684,0,0,1-.572-1.412c-.075-.409-.075-1.16.359-1.4S535.195,380.166,535.2,380.4Z" transform="translate(-173.108 -245.113)" fill="#ffbc3b"/>
      <path id="Trazado_116206" data-name="Trazado 116206" d="M532.267,253.106c.141.182-.027.5-.032.723-.007.338-.017,2.206.035,2.537a4.212,4.212,0,0,1-.031.863c-.017.395-.034,1.735-.743,1.617a.636.636,0,0,1-.43-.424,2.523,2.523,0,0,1-.034-1.308,3.225,3.225,0,0,0,.021-1.235c-.086-.367.02-2.192.014-2.558a1.046,1.046,0,0,1,.192-.733C531.707,252.085,532.256,252.578,532.267,253.106Z" transform="translate(-170.248 -132.293)" fill="#ffbc3b"/>
      <path id="Trazado_116207" data-name="Trazado 116207" d="M532.472,498.253c0,.016,0,.024-.013.039,0-.013,0-.027,0-.039Z" transform="translate(-171.576 -350.754)" fill="#8cc295"/>
      <path id="Trazado_116208" data-name="Trazado 116208" d="M466.655,343.19l-.131.066-.032-.1a6.1,6.1,0,0,0-.622-1.27,10.794,10.794,0,0,0-2.6-2.165,10.145,10.145,0,0,1-3.566-7.211c-.228-4.441,3.16-8.639,7.714-8.742a9.7,9.7,0,0,1,5.838,1.572,9.026,9.026,0,0,1,3.2,10.438,9.668,9.668,0,0,1-1.424,2.613c-.651.851-1.618,1.369-2.283,2.179-.6.734-1.449,1.474-1.532,2.483l-.011.107-.061.024c-.5.045-1.016.062-1.534.065,0-.1-.017-.207-.017-.31A160.564,160.564,0,0,1,471.068,335a6.5,6.5,0,0,1,.292-.685c.748.044,1.931.079,1.768-.947-.09-.57-.513-.555-.881-.237a3.748,3.748,0,0,0-.887,1.184l-.248-.014a3.227,3.227,0,0,1-.871-.219,3.287,3.287,0,0,1-1.632-1.268,3.421,3.421,0,0,0,.407-1.807c0-.231-.18-1.246-.62-1.005s-.434.991-.359,1.4a3.685,3.685,0,0,0,.572,1.412l-.055.087a3.679,3.679,0,0,1-.671.644,2.485,2.485,0,0,1-.808.537,3.253,3.253,0,0,1-.871.219l-.25.014a3.751,3.751,0,0,0-.886-1.184c-.368-.319-.789-.333-.881.237-.164,1.026,1.019.991,1.767.947a6.822,6.822,0,0,1,.293.685,23.893,23.893,0,0,1,.9,4.6c.186,1.215.569,2.4.654,3.62C467.416,343.21,467.031,343.2,466.655,343.19Z" transform="translate(-106.925 -195.722)" fill="#ffbc3b"/>
      <path id="Trazado_116209" data-name="Trazado 116209" d="M519.155,498.344h-.018a.623.623,0,0,1,.2-.529l.131-.066c.376.007.761.02,1.152.031,0,.013,0,.027,0,.039.015-.016.008-.024.013-.039.588.017,1.188.034,1.786.03.517,0,1.03-.02,1.534-.065l.06-.024c.231.148.243.486.243.732,0,.334-.018.664-.011,1,.006.241.01.483.008.724h-.041c-.094.032-.22-.092-.314-.139a13.93,13.93,0,0,0-2.353-.774A18.112,18.112,0,0,1,519.155,498.344Z" transform="translate(-159.74 -350.282)" fill="#dedede"/>
      <path id="Trazado_116210" data-name="Trazado 116210" d="M500.752,406a3.749,3.749,0,0,1,.887,1.184c-.748.044-1.931.079-1.767-.947C499.962,405.665,500.384,405.679,500.752,406Z" transform="translate(-142.609 -268.589)" fill="#ffbc3b"/>
      <path id="Trazado_116211" data-name="Trazado 116211" d="M430.513,466.9c.475-.309,1.125-.292,1.09.42-.028.561-.743,1.13-1.1,1.507-.488.517-.989,1.021-1.47,1.545-.4.444-.82.912-1.188,1.391a1.487,1.487,0,0,1-1.049.651.6.6,0,0,1-.633-.732,2.742,2.742,0,0,1,.857-1.2c.555-.561,1.125-1.107,1.666-1.68.252-.269.5-.543.754-.812A6.275,6.275,0,0,1,430.513,466.9Z" transform="translate(-77.122 -322.726)" fill="#ffbc3b"/>
      <path id="Trazado_116212" data-name="Trazado 116212" d="M407.514,307.407c.39.41.491,1.053-.214,1.147-.557.073-1.247-.524-1.682-.8-.6-.385-1.184-.786-1.787-1.163-.51-.319-1.046-.641-1.584-.915a1.494,1.494,0,0,1-.833-.913.6.6,0,0,1,.6-.754,2.732,2.732,0,0,1,1.335.623c.653.444,1.293.9,1.956,1.331.31.2.626.4.935.593A6.366,6.366,0,0,1,407.514,307.407Z" transform="translate(-55.124 -178.164)" fill="#ffbc3b"/>
      <path id="Trazado_116213" data-name="Trazado 116213" d="M386.313,398.775c.555.116,1.005.585.478,1.066-.414.378-1.322.281-1.838.3-.71.024-1.422.028-2.133.063-.6.03-1.224.069-1.823.151a1.49,1.49,0,0,1-1.205-.275.6.6,0,0,1,.066-.964,2.725,2.725,0,0,1,1.453-.25c.788-.007,1.577.006,2.365-.021.369-.013.74-.031,1.107-.045A6.314,6.314,0,0,1,386.313,398.775Z" transform="translate(-35.746 -262.328)" fill="#ffbc3b"/>
      <path id="Trazado_116214" data-name="Trazado 116214" d="M926.38,752.361l0-.073c3.256-.108,7.058-2,9.856-4.179l.059.074c-.119.941-.063,1.975-.133,2.82a31.86,31.86,0,0,0-.1,5.035c-1.934.117-3.8.613-5.806.453a24.45,24.45,0,0,1-6.711-1.57,21.615,21.615,0,0,1-5.04-3.084,23.447,23.447,0,0,1-2.823-2.732c-.163-.172-.335-.4-.516-.632,1.063.6,2.145,1.163,3.246,1.739a20.991,20.991,0,0,0,4.266,1.576A16.127,16.127,0,0,0,926.38,752.361Z" transform="translate(-511.616 -572.752)" fill="#e39476"/>
      <path id="Trazado_116215" data-name="Trazado 116215" d="M863.945,1532.142c1.113.87.645,2.292-.133,3.214s-2.5.13-2.912-.788a1.982,1.982,0,0,1,1.516-2.811A1.883,1.883,0,0,1,863.945,1532.142Z" transform="translate(-463.243 -1269.011)" fill="#37628f"/>
      <path id="Trazado_116216" data-name="Trazado 116216" d="M1136.806,948.419h-29.5c.041-4.52.1-9.073-.3-13.554a97.643,97.643,0,0,1-.44-11.337c.084-3.109-.163-6.261-.058-9.392.117-3.5.87-6.986,1.014-10.5a45.1,45.1,0,0,1,1.114-7.726c.637-2.942.6-5.974,1.4-8.909.813-2.964,1.675-5.91,2.263-8.945.535-2.761.865-5.545,1.43-8.292a51.646,51.646,0,0,0,.3-18.8c-.3-1.831-.424-3.652-.877-5.461a18.439,18.439,0,0,0-5.268-9.454c-1.023-.91-2.422-1.35-3.421-2.2-.093-.495-.2-.987-.292-1.489-.007-.038-.014-.076-.02-.114,1.158-.13,2.466.668,3.5,1.079,2.466.981,4.993,1.806,7.451,2.811,1.132.462,2.281.949,3.387,1.444,1.08.484,1.944,1.328,3.029,1.815,1.213.544,2.429,1.081,3.66,1.587a62.319,62.319,0,0,1,7.722,3.536,36.484,36.484,0,0,1,8.915,6.582,44.744,44.744,0,0,1,6.028,9.2,72.9,72.9,0,0,1,4.514,11.053,21.205,21.205,0,0,1,.925,2.742c.33,1.757.449,3.59.714,5.367q.451,3.013.823,6.039c.507,4.1.92,8.212,1.276,12.327.454,5.248.4,10.529.96,15.768.55,5.133,2.553,9.738,3.417,14.775.56,3.267-.093,6.544-.306,9.81-.115,1.76.533,3.46.511,5.211-.02,1.686-.473,3.333-.519,5.025Z" transform="translate(-679.524 -647.494)" fill="#4f95cf"/>
      <path id="Trazado_116217" data-name="Trazado 116217" d="M524.034,646.262c-.177-.833-.284-1.673-.441-2.521-.165-.9-.367-1.786-.569-2.674-.843-3.712-1.479-7.174-.308-10.894,1.051-3.34,2.875-6.4,3.673-9.827a27.062,27.062,0,0,0,.341-7.1c-.1-2.934.058-5.877.075-8.811.013-2.054-.228-5.039,1.808-6.286a1.38,1.38,0,0,1,1.545-.081c1.761.8,2.092,3.4,2.168,5.065.213,4.669.038,9.321.019,13.994,0,.253.046.41.056.64a5.788,5.788,0,0,1,1.9.232c2.723.821,4.574,3.241,6.246,5.426.38-1.6,1.266-3.529,2.935-4.09a2.049,2.049,0,0,1,1.446-.105,3.17,3.17,0,0,1,1.837,1.509c.79,1.614-.026,3.625-.382,5.248a15.364,15.364,0,0,0-.539,3.387c.005,1.272.217,2.531.248,3.8.025,1.033.02,2.074-.058,3.109a16.424,16.424,0,0,1-.675,3.716c-.9,2.868-2.662,5.346-3.862,8.083-.295.672-.541,1.357-.786,2.038-.709,1.973-1.4,3.895-3.2,5.276-2.373,1.821-5.549,1.223-7.96-.192a12.238,12.238,0,0,1-3.425-2.992,3.859,3.859,0,0,1-.853-1.949c-.2-1.055-.708-2.065-1.009-3.094C524.171,646.867,524.1,646.565,524.034,646.262Z" transform="translate(-162.351 -439.262)" fill="#f5b49b"/>
      <path id="Trazado_116218" data-name="Trazado 116218" d="M964.164,606.734c.559,1.376-.655,2.924-1.564,3.858a6.648,6.648,0,0,1-5.673,2.165,7.2,7.2,0,0,1-3.267-1.127,9.78,9.78,0,0,1-2.528-2.292c-.531-.719-.951-2.028-.355-2.835a2.486,2.486,0,0,1,2.236-.818c.732.075,1.484.087,2.218.139a17.66,17.66,0,0,0,2.059-.01c.9-.041,1.8,0,2.7-.113a7.078,7.078,0,0,1,2.445-.264A2.222,2.222,0,0,1,964.164,606.734Z" transform="translate(-542.996 -445.942)" fill="#fff"/>
      <path id="Trazado_116219" data-name="Trazado 116219" d="M730.446,150.019c-.127-.889-.227-1.779-.332-2.664a15.507,15.507,0,0,0-.5-2.9c-.6-1.886-1.768-3.529-2.41-5.4a7.433,7.433,0,0,1-.46-2.612c.015-1.014.149-2.021.237-3.031a34.037,34.037,0,0,1,.893-5c.52-2.168,1.3-4.409,1.067-6.66-.028-.261-.061-.52-.094-.781a6.987,6.987,0,0,1,1.135-4.419A13.17,13.17,0,0,1,735.267,111c2.52-1.322,5.6-1.768,8.231-2.911a22.8,22.8,0,0,0,3.257-1.749c.425-.274.748-.628,1.2-.86.674-.35,1.389-.634,2.082-.931a12.084,12.084,0,0,1,2.607-.793,18.719,18.719,0,0,1,8.306.442c2.6.746,5.3,2.336,5.939,5.163.165.727.709.658,1.37.658a8.372,8.372,0,0,1,5.781.952c2.526,1.383,3.38,3.786,4.739,6.129a51.172,51.172,0,0,0,4.375,5.7c1.881,2.4,3.313,5.1,2.847,8.239a23.864,23.864,0,0,0-.4,4.3,17.809,17.809,0,0,1-1.039,4.614,21.512,21.512,0,0,1-.693,2.8,14.948,14.948,0,0,0-.911,6.514c.006.162.014.323.024.486a14.642,14.642,0,0,1-.05,1.783,4.568,4.568,0,0,1-.219,1.242c-.127.35-.42.887-.846.951-1.392.205-1.125-3.838-1.147-4.583a13.815,13.815,0,0,0-1.92-7.286,11.382,11.382,0,0,1-1.486-3.714,17.381,17.381,0,0,1-.421-4.164c0-2.232.164-4.485-1.031-6.514-1.093-1.855-3.337-2.674-5.386-2.827-.491-.038-.8-.006-1.284-.035a21.241,21.241,0,0,0-9.658,1.323,7.6,7.6,0,0,1-3.085.555c-2.7-.049-5.256-1.128-7.871-1.677a13.537,13.537,0,0,0-3.811-.246,6.664,6.664,0,0,0-3.821,1.039,6.349,6.349,0,0,0-2.091,3.1,12.178,12.178,0,0,0-.51,2.565c-.109,1.089.206,2.125.115,3.2a13.21,13.21,0,0,1-1.412,5.352c-.236.435-.4.9-.6,1.351a7.539,7.539,0,0,1-.7,1.078,15.082,15.082,0,0,0-1.494,2.5c-.842,2.064-.311,4.325-.281,6.473a3.86,3.86,0,0,1-.573,2.555c-.6.744-1.394.539-1.962-.13a4.753,4.753,0,0,1-.81-2.442C730.563,150.82,730.5,150.42,730.446,150.019Z" transform="translate(-344.203 0)" fill="#1e244a"/>
      <path id="Trazado_116220" data-name="Trazado 116220" d="M1103.6,832.359c.006.038.013.076.02.114-.039-.024-.076-.019-.089-.105C1103.552,832.364,1103.575,832.362,1103.6,832.359Z" transform="translate(-678.975 -647.608)" fill="#8cc295"/>
      <path id="Trazado_116221" data-name="Trazado 116221" d="M1076.9,477.624a3.144,3.144,0,0,1-.534,2.271,2.132,2.132,0,0,1-2.326.6,2.312,2.312,0,0,1-1.045-3.872,2.353,2.353,0,0,1,2.688-.708A2.775,2.775,0,0,1,1076.9,477.624Z" transform="translate(-651.244 -330.734)" fill="#2b1a0f"/>
      <path id="Trazado_116222" data-name="Trazado 116222" d="M875.34,1719.861c1.114.87.646,2.292-.132,3.214s-2.5.13-2.912-.788a1.981,1.981,0,0,1,1.515-2.811A1.882,1.882,0,0,1,875.34,1719.861Z" transform="translate(-473.369 -1435.8)" fill="#37628f"/>
      <path id="Trazado_116223" data-name="Trazado 116223" d="M379.12,1037.309c1.55,4.8-.991,7.577-1.689,12.069-.56,3.6.786,6.851.637,10.364-.1,2.267-1.355,4.208-1.937,6.349a23.574,23.574,0,0,0-.58,2.918c-1.3,9.376-3.411,18.7-5.247,28-.44,2.228-.821,4.635-1.4,6.989a21.005,21.005,0,0,1-3.627,8.222c-4.415,5.55-15.03,7.7-20.636,2.59-3.346-3.054-4.633-7.914-5.089-12.265-1.012-9.645,1.891-19.976,5.122-28.954,1.13-3.14,2.655-6.122,3.806-9.255a36.473,36.473,0,0,0,2.122-9.025,16.812,16.812,0,0,1,1.81-6.342c1.243-2.306,3.392-3.964,4.152-6.543,1.033-3.508.368-7.573,3.944-9.836a6.488,6.488,0,0,0,1.173-.693c.064.3.138.605.226.906.3,1.029.812,2.039,1.009,3.094a3.858,3.858,0,0,0,.853,1.949,12.237,12.237,0,0,0,3.425,2.993c2.411,1.415,5.587,2.012,7.96.192,1.8-1.381,2.494-3.3,3.2-5.276h0C378.911,1036.06,378.933,1036.73,379.12,1037.309Z" transform="translate(0 -824.902)" fill="#4f95cf"/>
      <path id="Trazado_116224" data-name="Trazado 116224" d="M909.393,758c0-.079,0-.157.006-.234a45.506,45.506,0,0,0,.006-4.732c-.046-.788-.123-1.574-.239-2.354-.05-.331-.157-.66-.216-.975-.054-.294.028-.748-.177-.991l.145-.252q.282.163.568.324c.182.232.353.46.516.632a23.456,23.456,0,0,0,2.823,2.732,21.618,21.618,0,0,0,5.04,3.084,24.451,24.451,0,0,0,6.711,1.57c2,.16,3.872-.336,5.806-.452q.03.433.083.86c.025.2.056.4.091.605l-.069.009c.013.086.05.081.089.105.09.5.2.994.292,1.489a8.713,8.713,0,0,1,.18,2.069,9.637,9.637,0,0,1-1.018,3.771,10.73,10.73,0,0,1-5.609,5.2c-.479.187-.952.4-1.437.57a7.454,7.454,0,0,1-2.782.375,14.075,14.075,0,0,1-2.811-.472,11.089,11.089,0,0,1-4.009-1.737,10.566,10.566,0,0,1-4-5.768,5.084,5.084,0,0,1-.073-2.489,6.374,6.374,0,0,0,.105-1.259C909.422,759.111,909.383,758.547,909.393,758Z" transform="translate(-505.934 -573.062)" fill="#f5b49b"/>
      <path id="Trazado_116225" data-name="Trazado 116225" d="M1067.1,400.463a.867.867,0,0,1-.644,1.36,3.9,3.9,0,0,1-1.816-.38c-.263-.093-.546-.2-.813-.267a4.6,4.6,0,0,0-.99.013,8.056,8.056,0,0,0-2.708.625,1.007,1.007,0,0,1-.785-.035c-.822-.474-.179-1.277.316-1.718a3.232,3.232,0,0,1,1.088-.662,9.361,9.361,0,0,1,1.783-.531,5.931,5.931,0,0,1,1.547-.059A4.36,4.36,0,0,1,1067.1,400.463Z" transform="translate(-639.366 -262.373)" fill="#1e244a"/>
      <path id="Trazado_116226" data-name="Trazado 116226" d="M876.625,400.463a.867.867,0,0,1-.644,1.36,3.9,3.9,0,0,1-1.815-.38c-.263-.093-.547-.2-.813-.267a4.608,4.608,0,0,0-.991.013,8.064,8.064,0,0,0-2.708.625,1,1,0,0,1-.783-.035c-.822-.474-.179-1.277.316-1.718a3.22,3.22,0,0,1,1.088-.662,9.379,9.379,0,0,1,1.782-.531,5.936,5.936,0,0,1,1.548-.059A4.358,4.358,0,0,1,876.625,400.463Z" transform="translate(-470.13 -262.373)" fill="#1e244a"/>
      <path id="Trazado_116227" data-name="Trazado 116227" d="M889.365,477.624a3.145,3.145,0,0,1-.535,2.271,2.132,2.132,0,0,1-2.326.6,2.313,2.313,0,0,1-1.045-3.872,2.353,2.353,0,0,1,2.688-.708A2.778,2.778,0,0,1,889.365,477.624Z" transform="translate(-484.622 -330.734)" fill="#2b1a0f"/>
      <path id="Trazado_116228" data-name="Trazado 116228" d="M735.957,343.492q-.286-.162-.568-.325c-1.088-.624-2.156-1.288-3.2-2.029a25.492,25.492,0,0,1-5.791-5.169c-.9-1.207-1.833-2.362-2.776-3.543-.838-1.05-1.38-2.3-2.192-3.368-.863-1.138-1.836-1.318-3.035-2a10,10,0,0,1-3.189-2.786,7.127,7.127,0,0,1-.882-1.288,11.012,11.012,0,0,1-.635-1.667,5.57,5.57,0,0,1,.145-3.546,2.923,2.923,0,0,1,2.335-1.724c1.331-.133,1.788.831,2.48,1.741.055.4.117.8.187,1.2a4.753,4.753,0,0,0,.81,2.442c.569.669,1.366.875,1.962.13a3.861,3.861,0,0,0,.573-2.555c-.03-2.148-.561-4.409.281-6.473a15.08,15.08,0,0,1,1.494-2.5,7.536,7.536,0,0,0,.7-1.078c.2-.451.361-.916.6-1.351a13.212,13.212,0,0,0,1.412-5.352c.09-1.079-.224-2.115-.115-3.2a12.174,12.174,0,0,1,.51-2.565,6.349,6.349,0,0,1,2.091-3.1,6.663,6.663,0,0,1,3.821-1.039,13.535,13.535,0,0,1,3.811.246c2.615.549,5.171,1.628,7.871,1.677a7.6,7.6,0,0,0,3.085-.555,21.241,21.241,0,0,1,9.658-1.323c.481.029.793,0,1.284.035,2.049.153,4.293.972,5.386,2.827,1.2,2.029,1.034,4.282,1.031,6.514a17.387,17.387,0,0,0,.421,4.164A11.384,11.384,0,0,0,767,309.644a13.815,13.815,0,0,1,1.92,7.286c.021.744-.246,4.788,1.147,4.583.426-.064.719-.6.846-.951a4.57,4.57,0,0,0,.219-1.242,14.653,14.653,0,0,0,.05-1.783c-.01-.163-.018-.325-.024-.486l.065,0c1.181-1.766,3.724-.852,4.426.836a5.747,5.747,0,0,1,.149,3.66,11.41,11.41,0,0,1-.655,1.721,7.44,7.44,0,0,1-.91,1.331,10.329,10.329,0,0,1-3.294,2.875c-.93.528-1.912.952-2.865,1.436l-.068-.03a33.618,33.618,0,0,1-4.545,7.84,63.486,63.486,0,0,1-4.847,5.045,20.2,20.2,0,0,1-1.586,1.367c-2.8,2.178-6.6,4.072-9.856,4.179l0,.073a16.131,16.131,0,0,1-3.7-.573,21,21,0,0,1-4.266-1.576C738.1,344.655,737.02,344.088,735.957,343.492Zm23.537-36.271a.867.867,0,0,0,.644-1.36,4.36,4.36,0,0,0-3.021-1.654,5.928,5.928,0,0,0-1.548.059,9.358,9.358,0,0,0-1.783.531,3.234,3.234,0,0,0-1.088.662c-.5.441-1.138,1.244-.316,1.718a1.006,1.006,0,0,0,.785.035,8.057,8.057,0,0,1,2.708-.625,4.6,4.6,0,0,1,.99-.012c.267.065.55.174.813.267A3.9,3.9,0,0,0,759.494,307.22Zm-1.971,9.711a3.144,3.144,0,0,0,.534-2.271,2.776,2.776,0,0,0-1.217-1.708,2.352,2.352,0,0,0-2.688.708,2.312,2.312,0,0,0,1.045,3.872A2.132,2.132,0,0,0,757.523,316.931Zm-5.514,15.49c.908-.935,2.123-2.483,1.564-3.858a2.222,2.222,0,0,0-1.732-1.3,7.078,7.078,0,0,0-2.445.264c-.894.116-1.8.071-2.7.113a17.637,17.637,0,0,1-2.059.01c-.734-.053-1.486-.064-2.218-.139a2.486,2.486,0,0,0-2.236.818c-.6.807-.177,2.115.355,2.835a9.784,9.784,0,0,0,2.528,2.292,7.2,7.2,0,0,0,3.267,1.127A6.648,6.648,0,0,0,752.009,332.421Zm-13.753-25.2a.867.867,0,0,0,.644-1.36,4.358,4.358,0,0,0-3.021-1.654,5.932,5.932,0,0,0-1.548.059,9.372,9.372,0,0,0-1.782.531,3.221,3.221,0,0,0-1.088.662c-.5.441-1.138,1.244-.316,1.718a1,1,0,0,0,.783.035,8.064,8.064,0,0,1,2.708-.625,4.607,4.607,0,0,1,.991-.012c.267.065.55.174.813.267A3.9,3.9,0,0,0,738.256,307.22Zm-1.643,9.711a3.145,3.145,0,0,0,.535-2.271,2.778,2.778,0,0,0-1.218-1.708,2.353,2.353,0,0,0-2.688.708,2.313,2.313,0,0,0,1.045,3.872A2.132,2.132,0,0,0,736.613,316.931Z" transform="translate(-332.405 -167.771)" fill="#f5b49b"/>
      <path id="Trazado_116229" data-name="Trazado 116229" d="M485.437,355.486a2.163,2.163,0,0,0-1.3,1.206c-.06.272.024.562-.048.831-.12.449-.606.673-.954.981a1.992,1.992,0,0,0-.525,2.145c.223.584.728,1.064.793,1.686.056.527-.2,1.148.159,1.541.3.333.838.257,1.26.412.542.2.867.777,1.393,1.015.763.346,1.633-.119,2.47-.156a9.263,9.263,0,0,1,1.511.176,2,2,0,0,0,1.459-.275c.443-.337.6-.922.934-1.37a6.71,6.71,0,0,1,1.222-1.086,2.068,2.068,0,0,0,.855-1.346c.056-.74-.539-1.358-.751-2.069a7.964,7.964,0,0,1-.163-1.445c-.049-.453-.2-1.048-.668-1.226a7.427,7.427,0,0,0-.8-.169c-.84-.215-1.4-1.021-2.2-1.354a2.846,2.846,0,0,0-1.643-.11,9.6,9.6,0,0,1-1.556.445A3.526,3.526,0,0,0,485.437,355.486Z" transform="translate(-127.175 -223.298)" fill="#fff"/>
      <path id="Trazado_116230" data-name="Trazado 116230" d="M1123.41,1270.507c-.217,4.044-3.833,6.971-5.626,10.6-1.566,3.172-1.7,6.835-1.809,10.371" transform="translate(-690.033 -1036.903)" fill="none"/>
      <path id="Trazado_116231" data-name="Trazado 116231" d="M924.909,1516.249a23.474,23.474,0,0,1-.577-3.621c-.5-2.97-.836-5.966-1.1-8.966a33.7,33.7,0,0,0-.369-4.43,19.541,19.541,0,0,1-.4-3.315,73.253,73.253,0,0,0-2.834-16.331c.064.383.124.767.179,1.154.605,4.273.918,8.58,1.12,12.889q.013.266.025.532c.1,2.218.173,4.437.243,6.656.139,4.364.259,8.648.244,13.024-.01,3.253-.129,6.505-.287,9.755h4.75c-.073-.978-.206-1.957-.341-2.924A25.6,25.6,0,0,0,924.909,1516.249Z" transform="translate(-515.582 -1222.672)" fill="#ededed"/>
      <path id="Trazado_116232" data-name="Trazado 116232" d="M881.655,863.844c-.3-1.831-.424-3.652-.877-5.461a18.44,18.44,0,0,0-5.268-9.454c-1.023-.91-2.422-1.35-3.421-2.2a8.715,8.715,0,0,1,.18,2.069,9.638,9.638,0,0,1-1.018,3.771,10.73,10.73,0,0,1-5.609,5.2c-.479.187-.952.4-1.437.57a7.451,7.451,0,0,1-2.782.375,14.074,14.074,0,0,1-2.811-.472A11.088,11.088,0,0,1,854.6,856.5a10.565,10.565,0,0,1-4-5.768,5.081,5.081,0,0,1-.073-2.489,6.378,6.378,0,0,0,.105-1.259c-.293.3-.925.654-1.281.975-2.248,2.03-3.387,5.5-4.414,8.263-1.89,5.088-2.28,10.521-2.326,15.9a99.251,99.251,0,0,0,1.157,16.4,82.932,82.932,0,0,0,1.835,8.658c1.84,6.817,4.428,13.129,5.592,20.112a73.245,73.245,0,0,1,2.834,16.331,19.561,19.561,0,0,0,.4,3.315,33.68,33.68,0,0,1,.369,4.43c.265,3,.6,6,1.1,8.967a23.493,23.493,0,0,0,.577,3.62,25.586,25.586,0,0,1,.657,4.424c.135.967.268,1.946.341,2.923h17.457c.041-4.52.1-9.073-.3-13.554a97.6,97.6,0,0,1-.44-11.337c.084-3.109-.163-6.261-.058-9.392.116-3.5.87-6.986,1.014-10.5a45.115,45.115,0,0,1,1.114-7.726c.637-2.942.6-5.974,1.4-8.909.813-2.964,1.675-5.91,2.263-8.945.535-2.761.865-5.545,1.43-8.292A51.645,51.645,0,0,0,881.655,863.844Z" transform="translate(-447.153 -660.38)" fill="#fffbf2"/>
      <g id="Grupo_111339" data-name="Grupo 111339" transform="translate(417.063 114.573)">
        <path id="Trazado_116233" data-name="Trazado 116233" d="M1036.658,211.724a.313.313,0,0,1-.223-.533,17.657,17.657,0,0,0,4.056-8.014.313.313,0,1,1,.6.165c-1.332,4.891-2.878,6.935-4.214,8.289A.312.312,0,0,1,1036.658,211.724Z" transform="translate(-1036.345 -202.946)"/>
      </g>
      <g id="Grupo_111340" data-name="Grupo 111340" transform="translate(422.097 120.21)">
        <path id="Trazado_116234" data-name="Trazado 116234" d="M1081.8,256.765a.313.313,0,0,1-.1-.609,13.415,13.415,0,0,0,4.442-2.575.313.313,0,0,1,.413.471,14.043,14.043,0,0,1-4.648,2.7A.313.313,0,0,1,1081.8,256.765Z" transform="translate(-1081.486 -253.503)"/>
      </g>
      <g id="Grupo_111341" data-name="Grupo 111341" transform="translate(402.513 112.817)">
        <path id="Trazado_116235" data-name="Trazado 116235" d="M911.365,194.816a.313.313,0,0,1-.306-.247c-.7-3.261-2.533-5.729-5.018-6.769a.313.313,0,1,1,.242-.578c2.676,1.121,4.64,3.751,5.388,7.215a.314.314,0,0,1-.306.379Z" transform="translate(-905.849 -187.197)"/>
      </g>
      <g id="Grupo_111342" data-name="Grupo 111342" transform="translate(391.581 118.329)">
        <path id="Trazado_116236" data-name="Trazado 116236" d="M813.7,238.585a.311.311,0,0,1-.152-.04,8.607,8.607,0,0,0-5.392-1.228.313.313,0,0,1-.087-.621,9.215,9.215,0,0,1,5.784,1.3.313.313,0,0,1-.153.587Z" transform="translate(-807.799 -236.626)"/>
      </g>
      <g id="Grupo_111343" data-name="Grupo 111343" transform="translate(412.29 143.488)">
        <path id="Trazado_116237" data-name="Trazado 116237" d="M996.11,474.428a2.6,2.6,0,0,1-1.041-.238,4.715,4.715,0,0,1-1.437-.91.313.313,0,1,1,.436-.45,4.123,4.123,0,0,0,1.252.786,1.8,1.8,0,0,0,1,.169,2.6,2.6,0,0,0,.685-.213c.3-.137,1.2-.554.606-2.5-.2-.642-.426-1.287-.65-1.911-.2-.57-.415-1.159-.6-1.75a4.512,4.512,0,0,1-.164-.994c-.013-.154-.026-.3-.047-.447a13.4,13.4,0,0,1,.071-3.422.313.313,0,1,1,.622.074,12.845,12.845,0,0,0-.073,3.26c.023.164.037.325.05.48a3.986,3.986,0,0,0,.137.861c.182.579.391,1.162.592,1.726.226.631.459,1.283.659,1.94.621,2.04-.17,2.894-.942,3.251a3.235,3.235,0,0,1-.85.263A1.969,1.969,0,0,1,996.11,474.428Z" transform="translate(-993.537 -462.272)" fill="#ab684d"/>
      </g>
      <g id="Grupo_111344" data-name="Grupo 111344" transform="translate(382.486 150.976)">
        <path id="Trazado_116238" data-name="Trazado 116238" d="M730.931,536.019a.313.313,0,0,1-.28-.173,2.167,2.167,0,0,0-.8-.752,2.411,2.411,0,0,1-1.01-1.054,1.969,1.969,0,0,1,.061-1.4,3.412,3.412,0,0,0,.131-.512,1.033,1.033,0,0,0-.1-.507c-.033-.091-.068-.186-.1-.29a1.208,1.208,0,0,0-.368-.694,1.9,1.9,0,0,0-1.256-.569.611.611,0,0,0-.421.284.313.313,0,0,1-.512-.361,1.22,1.22,0,0,1,.848-.544,2.388,2.388,0,0,1,1.738.706,1.818,1.818,0,0,1,.575,1.013c.022.08.05.158.081.241a1.589,1.589,0,0,1,.131.813,3.954,3.954,0,0,1-.153.607,1.4,1.4,0,0,0-.078.979,1.855,1.855,0,0,0,.779.767,2.71,2.71,0,0,1,1.005.99.313.313,0,0,1-.28.454Z" transform="translate(-726.227 -529.439)" fill="#ab684d"/>
      </g>
      <g id="Grupo_111345" data-name="Grupo 111345" transform="translate(437.502 151.157)">
        <path id="Trazado_116239" data-name="Trazado 116239" d="M1219.967,537.829a.314.314,0,0,1-.28-.454,2.792,2.792,0,0,1,1.034-1.018,1.923,1.923,0,0,0,.808-.8,1.47,1.47,0,0,0-.08-1.017,4.084,4.084,0,0,1-.158-.625,1.63,1.63,0,0,1,.135-.834c.031-.086.061-.167.083-.25a1.867,1.867,0,0,1,.591-1.041,2.452,2.452,0,0,1,1.786-.726,1.248,1.248,0,0,1,.869.557.313.313,0,1,1-.512.361.641.641,0,0,0-.441-.3,1.97,1.97,0,0,0-1.3.59,1.256,1.256,0,0,0-.383.722c-.029.108-.065.205-.1.3a1.073,1.073,0,0,0-.1.529,3.558,3.558,0,0,0,.136.53,2.024,2.024,0,0,1,.064,1.435,2.446,2.446,0,0,1-1.039,1.083,2.243,2.243,0,0,0-.825.78A.313.313,0,0,1,1219.967,537.829Z" transform="translate(-1219.653 -531.055)" fill="#ab684d"/>
      </g>
      <g id="Grupo_111346" data-name="Grupo 111346" transform="translate(376.647 183.947)">
        <path id="Trazado_116240" data-name="Trazado 116240" d="M674.352,835.522a.5.5,0,0,1-.173-.033.11.11,0,0,0-.037-.008.313.313,0,1,1,.049-.625.7.7,0,0,1,.172.034.322.322,0,0,1,.091-.007c.832.062,1.556-.975,1.817-1.641a7.551,7.551,0,0,0,.361-3.812,7.022,7.022,0,0,0-1.034-3.295q-.184-.238-.37-.481a.313.313,0,0,1,.5-.381l.368.479a7.508,7.508,0,0,1,1.16,3.593,8.165,8.165,0,0,1-.4,4.126,4.087,4.087,0,0,1-.886,1.358,2.05,2.05,0,0,1-1.51.682A.564.564,0,0,1,674.352,835.522Z" transform="translate(-673.853 -825.151)" fill="#ab684d"/>
      </g>
      <g id="Grupo_111347" data-name="Grupo 111347" transform="translate(365.975 178.208)">
        <path id="Trazado_116241" data-name="Trazado 116241" d="M578.451,775.613a.313.313,0,0,1-.189-.564,7.106,7.106,0,0,1,3.614-1.372.313.313,0,0,1,.054.624,6.469,6.469,0,0,0-3.292,1.248A.312.312,0,0,1,578.451,775.613Z" transform="translate(-578.138 -773.676)" fill="#ab684d"/>
      </g>
      <g id="Grupo_111348" data-name="Grupo 111348" transform="translate(367.185 185.602)">
        <path id="Trazado_116242" data-name="Trazado 116242" d="M594.477,853.464a1.459,1.459,0,0,1-1.108-.419.788.788,0,0,0-.148-.079.685.685,0,0,1-.481-.538.313.313,0,0,1,.618-.095,1.285,1.285,0,0,0,.127.064,1.038,1.038,0,0,1,.342.22c.47.5,1.8.046,2.374-.34a5.688,5.688,0,0,0,1.765-6.6,4.449,4.449,0,0,0-.591-1c-.09-.127-.184-.258-.269-.389-1.362-2.075-2.707-3.266-4-3.54a9.706,9.706,0,0,0-3.735.106.313.313,0,0,1-.127-.614,10.341,10.341,0,0,1,3.993-.105c1.479.315,2.916,1.561,4.392,3.809.079.121.165.242.256.37a4.9,4.9,0,0,1,.67,1.15c.842,2.342.425,5.708-2.007,7.33A4.213,4.213,0,0,1,594.477,853.464Z" transform="translate(-588.996 -839.986)" fill="#ab684d"/>
      </g>
      <g id="Grupo_111349" data-name="Grupo 111349" transform="translate(364.869 191.59)">
        <path id="Trazado_116243" data-name="Trazado 116243" d="M571.807,904.515a1.878,1.878,0,0,1-1.5-.782,2.755,2.755,0,0,1-.565-1.4,3.552,3.552,0,0,1,.021-.586,1.606,1.606,0,0,0-.049-.792,3.933,3.933,0,0,0-1.213-1.322l-.164-.133a.313.313,0,0,1,.4-.485l.161.131a4.464,4.464,0,0,1,1.388,1.545,2.112,2.112,0,0,1,.1,1.113,3.066,3.066,0,0,0-.02.483,2.139,2.139,0,0,0,.438,1.062,1.262,1.262,0,0,0,1.822.266A4.632,4.632,0,0,0,574.288,900a6.139,6.139,0,0,0-.292-2.044,5.287,5.287,0,0,0-1.439-1.974l-.143-.145a6.327,6.327,0,0,0-2.29-1.534.313.313,0,1,1,.219-.587,6.946,6.946,0,0,1,2.518,1.682l.141.144a5.827,5.827,0,0,1,1.592,2.23,6.763,6.763,0,0,1,.319,2.254,5.108,5.108,0,0,1-1.943,4.112A2.1,2.1,0,0,1,571.807,904.515Z" transform="translate(-568.219 -893.698)" fill="#ab684d"/>
      </g>
      <g id="Grupo_111350" data-name="Grupo 111350" transform="translate(371.906 197.612)">
        <path id="Trazado_116244" data-name="Trazado 116244" d="M631.653,953.139a.314.314,0,0,1-.3-.4,11.339,11.339,0,0,1,1.768-3.662c.137-.182.26-.35.381-.516.178-.242.345-.47.545-.732a.313.313,0,0,1,.5.381c-.2.256-.362.482-.538.722-.122.167-.247.337-.385.521a10.74,10.74,0,0,0-1.669,3.468A.314.314,0,0,1,631.653,953.139Z" transform="translate(-631.339 -947.702)" fill="#ab684d"/>
      </g>
      <g id="Grupo_111351" data-name="Grupo 111351" transform="translate(368.651 210.544)">
        <path id="Trazado_116245" data-name="Trazado 116245" d="M602.454,1132.327a.305.305,0,0,1-.073-.009.313.313,0,0,1-.232-.377c.367-1.541.657-3.107.936-4.622.135-.734.263-1.427.4-2.119.454-2.3.933-4.643,1.4-6.908,1.41-6.9,2.869-14.031,3.848-21.078a23.575,23.575,0,0,1,.588-2.958,21.368,21.368,0,0,1,.84-2.349,11.877,11.877,0,0,0,1.086-3.929,23.591,23.591,0,0,0-.378-4.471,19.306,19.306,0,0,1-.256-5.927,24.336,24.336,0,0,1,1.118-4.147c.848-2.517,1.58-4.691.583-7.778-.047-.145-.083-.291-.118-.433-.1-.415-.192-.774-.494-.938a.313.313,0,1,1,.3-.55,1.843,1.843,0,0,1,.8,1.337c.034.137.066.267.106.391,1.061,3.284.261,5.657-.586,8.17a23.832,23.832,0,0,0-1.093,4.044,18.826,18.826,0,0,0,.256,5.739,24.047,24.047,0,0,1,.384,4.59,12.522,12.522,0,0,1-1.131,4.136,20.913,20.913,0,0,0-.817,2.28,22.948,22.948,0,0,0-.572,2.88c-.982,7.067-2.443,14.21-3.855,21.118-.463,2.264-.941,4.6-1.4,6.9-.136.688-.264,1.38-.4,2.111-.281,1.523-.572,3.1-.943,4.654A.313.313,0,0,1,602.454,1132.327Z" transform="translate(-602.141 -1063.694)" fill="#2e5378"/>
      </g>
      <g id="Grupo_111352" data-name="Grupo 111352" transform="translate(360.322 222.095)">
        <path id="Trazado_116246" data-name="Trazado 116246" d="M535.517,1177.13a.312.312,0,0,1-.222-.092,89.74,89.74,0,0,1-7.792-9.248.313.313,0,1,1,.5-.379,89.2,89.2,0,0,0,7.737,9.185.313.313,0,0,1-.222.534Z" transform="translate(-527.44 -1167.287)" fill="#2e5378"/>
      </g>
      <g id="Grupo_111353" data-name="Grupo 111353" transform="translate(358.338 237.583)">
        <path id="Trazado_116247" data-name="Trazado 116247" d="M514.64,1307.65a15.509,15.509,0,0,1-4.775-.838.313.313,0,0,1,.192-.6,12.725,12.725,0,0,0,6.968.537.313.313,0,0,1,.142.61A11.089,11.089,0,0,1,514.64,1307.65Z" transform="translate(-509.648 -1306.201)" fill="#2e5378"/>
      </g>
      <g id="Grupo_111354" data-name="Grupo 111354" transform="translate(453.087 214.146)">
        <path id="Trazado_116248" data-name="Trazado 116248" d="M1363.631,1183.2h0a.313.313,0,0,1-.31-.316c.02-2.152-.17-4.375-.353-6.523-.159-1.866-.323-3.8-.349-5.671-.049-3.452-.224-6.963-.392-10.359-.061-1.223-.124-2.487-.18-3.731-.332-7.363-.835-14.365-1.538-21.408a136.093,136.093,0,0,1-.919-21.914,68.561,68.561,0,0,1,3.522-17.068.313.313,0,0,1,.6.195,67.928,67.928,0,0,0-3.493,16.912,135.585,135.585,0,0,0,.917,21.813c.7,7.054,1.207,14.068,1.54,21.442.056,1.242.119,2.506.18,3.728.169,3.4.344,6.917.393,10.381.026,1.852.189,3.771.347,5.626.184,2.163.375,4.4.355,6.582A.313.313,0,0,1,1363.631,1183.2Z" transform="translate(-1359.436 -1095.997)" fill="#2e5378"/>
      </g>
      <g id="Grupo_111355" data-name="Grupo 111355" transform="translate(466.535 280.218)">
        <path id="Trazado_116249" data-name="Trazado 116249" d="M1480.364,1697.615a.313.313,0,0,1-.2-.553,25.627,25.627,0,0,0,6.911-8.3.313.313,0,0,1,.568.266,26.23,26.23,0,0,1-7.075,8.511A.312.312,0,0,1,1480.364,1697.615Z" transform="translate(-1480.05 -1688.584)" fill="#2e5378"/>
      </g>
      <g id="Grupo_111356" data-name="Grupo 111356" transform="translate(359.333 150.912)">
        <path id="Trazado_116250" data-name="Trazado 116250" d="M523.067,531.242a.353.353,0,0,1-.132-.026c-.138-.056-.275-.12-.408-.182a5.08,5.08,0,0,0-.559-.237c-.98-.321-1.961-.738-2.91-1.141l-.274-.116a.352.352,0,0,1,.275-.649l.275.117c.935.4,1.9.808,2.854,1.12a5.6,5.6,0,0,1,.639.269c.13.061.252.118.371.167a.352.352,0,0,1-.132.679Z" transform="translate(-518.57 -528.862)" fill="#a19086"/>
      </g>
      <g id="Grupo_111357" data-name="Grupo 111357" transform="translate(359.187 149.421)">
        <path id="Trazado_116251" data-name="Trazado 116251" d="M522.406,517.708a.686.686,0,0,1-.236-.052l-.029-.01c-.137-.045-.252-.088-.354-.129l-.08-.033a3.445,3.445,0,0,0-.561-.194c-.931-.22-1.861-.526-2.761-.822-.3-.1-.589-.194-.882-.287a.352.352,0,0,1,.214-.671c.295.094.591.192.888.289.885.292,1.8.593,2.7.806a4.105,4.105,0,0,1,.667.228l.078.032c.088.036.189.073.311.113l.03.01a.354.354,0,0,1,.353.236.362.362,0,0,1-.087.38A.35.35,0,0,1,522.406,517.708Zm-.325-.253h0Z" transform="translate(-517.257 -515.492)" fill="#a19086"/>
      </g>
      <g id="Grupo_111358" data-name="Grupo 111358" transform="translate(359.311 147.851)">
        <path id="Trazado_116252" data-name="Trazado 116252" d="M523.508,503.815a.712.712,0,0,1-.391-.15.584.584,0,0,0-.051-.033,8.472,8.472,0,0,0-1.64-.566c-.214-.058-.436-.119-.655-.185-.154-.047-1.579-.53-2.184-.794a.352.352,0,0,1,.282-.646c.57.249,1.963.722,2.106.765.21.064.427.122.636.179a9.141,9.141,0,0,1,1.774.618,1.171,1.171,0,0,1,.126.077l.036.024a.352.352,0,0,1,.107.686A.451.451,0,0,1,523.508,503.815Z" transform="translate(-518.376 -501.412)" fill="#a19086"/>
      </g>
      <g id="Grupo_111359" data-name="Grupo 111359" transform="translate(356.894 134.25)">
        <path id="Trazado_116253" data-name="Trazado 116253" d="M502.471,393.1h0a.352.352,0,0,1-.35-.355,10.4,10.4,0,0,1,.334-2.2c.093-.41.181-.8.24-1.187.048-.311.091-.625.135-.942a18,18,0,0,1,.789-3.729q.048-.132.1-.257a4.763,4.763,0,0,1-.712-.207,3.611,3.611,0,0,1-1.521-1.027c-.1.1-.209.189-.309.272-.06.05-.119.1-.175.149a2.828,2.828,0,0,1-.927.607,4.763,4.763,0,0,1-.712.207q.051.125.1.257a18,18,0,0,1,.789,3.729c.044.316.087.631.135.941.072.475.179.958.282,1.425a17.605,17.605,0,0,1,.349,1.924.352.352,0,1,1-.7.074,17.062,17.062,0,0,0-.336-1.847c-.105-.478-.214-.972-.29-1.47-.048-.314-.092-.632-.136-.951a17.473,17.473,0,0,0-.752-3.583q-.086-.235-.178-.442a2.142,2.142,0,0,1-1.665-.431,1.075,1.075,0,0,1-.234-.935.823.823,0,0,1,.5-.712.972.972,0,0,1,.955.262,3.907,3.907,0,0,1,.863,1.087h.025a3.012,3.012,0,0,0,.772-.2,2.2,2.2,0,0,0,.691-.467c.062-.056.128-.111.195-.166a3.037,3.037,0,0,0,.339-.31,4.088,4.088,0,0,1-.493-1.341,1.664,1.664,0,0,1,.537-1.772.586.586,0,0,1,.587,0c.5.291.555,1.3.555,1.31a3.968,3.968,0,0,1-.346,1.788,2.917,2.917,0,0,0,1.334.961,3.013,3.013,0,0,0,.772.2h.025a3.908,3.908,0,0,1,.863-1.086.972.972,0,0,1,.955-.263.823.823,0,0,1,.5.712,1.075,1.075,0,0,1-.234.935,2.14,2.14,0,0,1-1.665.431q-.093.207-.178.442a17.47,17.47,0,0,0-.752,3.583c-.044.32-.088.637-.136.951-.063.414-.158.832-.249,1.236a9.886,9.886,0,0,0-.317,2.051A.352.352,0,0,1,502.471,393.1Zm3.131-10.034a.536.536,0,0,0-.246.138,2.991,2.991,0,0,0-.513.58,1.151,1.151,0,0,0,.756-.2c.024-.027.1-.109.06-.35a.309.309,0,0,0-.057-.165Zm-8.138,0a.465.465,0,0,0-.049.16c-.039.242.036.324.06.35a1.151,1.151,0,0,0,.756.2,2.993,2.993,0,0,0-.513-.58A.45.45,0,0,0,497.464,383.072Zm3.918-2.9a1.384,1.384,0,0,0-.119.973,3.486,3.486,0,0,0,.183.647,3.784,3.784,0,0,0,.1-.97A1.946,1.946,0,0,0,501.381,380.173Z" transform="translate(-496.699 -379.422)" fill="#a84216"/>
      </g>
      <g id="Grupo_111360" data-name="Grupo 111360" transform="translate(394.224 240.229)">
        <path id="Trazado_116254" data-name="Trazado 116254" d="M836.99,1348.48a.313.313,0,0,1-.31-.268,54.723,54.723,0,0,0-2.315-9.088c-.3-.917-.667-1.86-1.02-2.772a28.323,28.323,0,0,1-1.843-6.065.313.313,0,1,1,.62-.089,27.882,27.882,0,0,0,1.807,5.928c.356.919.724,1.87,1.031,2.8a55.316,55.316,0,0,1,2.339,9.193.314.314,0,0,1-.264.356A.367.367,0,0,1,836.99,1348.48Z" transform="translate(-831.499 -1329.93)" fill="#2e5378"/>
      </g>
      <g id="Grupo_111361" data-name="Grupo 111361" transform="translate(458.22 205.898)">
        <path id="Trazado_116255" data-name="Trazado 116255" d="M1405.781,1028.4a.313.313,0,0,1-.29-.432,22.316,22.316,0,0,1,1.93-3.482c.473-.744.962-1.513,1.37-2.3a.313.313,0,0,1,.556.289c-.42.807-.916,1.588-1.4,2.343a21.848,21.848,0,0,0-1.878,3.383A.314.314,0,0,1,1405.781,1028.4Z" transform="translate(-1405.468 -1022.024)" fill="#2e5378"/>
      </g>
    </g>
  </g>
</svg>
