<svg xmlns="http://www.w3.org/2000/svg" xmlns:xlink="http://www.w3.org/1999/xlink" width="445.303" height="381.271" viewBox="0 0 445.303 381.271">
  <defs>
    <linearGradient id="linear-gradient" y1="0.5" x2="1" y2="0.5" gradientUnits="objectBoundingBox">
      <stop offset="0" stop-color="#febbba"/>
      <stop offset="1" stop-color="#ff928e"/>
    </linearGradient>
    <linearGradient id="linear-gradient-2" x1="0.571" y1="-0.551" x2="0.471" y2="1.401" gradientUnits="objectBoundingBox">
      <stop offset="0" stop-color="#09005d"/>
      <stop offset="1" stop-color="#1a0f91"/>
    </linearGradient>
    <linearGradient id="linear-gradient-3" x1="0.503" y1="0.236" x2="0.285" y2="9.824" xlink:href="#linear-gradient-2"/>
    <linearGradient id="linear-gradient-4" x1="0" y1="0.5" x2="1" y2="0.5" xlink:href="#linear-gradient"/>
    <linearGradient id="linear-gradient-5" x1="0.743" y1="-0.026" x2="0.259" y2="1.1" xlink:href="#linear-gradient-2"/>
    <linearGradient id="linear-gradient-6" x1="1.475" y1="-0.487" x2="0.545" y2="0.269" xlink:href="#linear-gradient-2"/>
    <linearGradient id="linear-gradient-7" x1="0.179" y1="0.808" x2="0.787" y2="0.018" xlink:href="#linear-gradient"/>
    <linearGradient id="linear-gradient-8" x1="0.496" y1="0.208" x2="0.509" y2="1.351" xlink:href="#linear-gradient"/>
    <linearGradient id="linear-gradient-9" x1="7.321" y1="12.09" x2="7.97" y2="13.2" xlink:href="#linear-gradient-2"/>
    <linearGradient id="linear-gradient-10" x1="40.906" y1="49.002" x2="37.075" y2="51.943" xlink:href="#linear-gradient"/>
    <linearGradient id="linear-gradient-11" x1="14.343" y1="14.945" x2="17.669" y2="14.945" xlink:href="#linear-gradient"/>
    <linearGradient id="linear-gradient-12" x1="0.5" y1="0.572" x2="0.547" y2="-1.829" gradientUnits="objectBoundingBox">
      <stop offset="0" stop-color="#fe7062"/>
      <stop offset="1" stop-color="#ff928e"/>
    </linearGradient>
    <linearGradient id="linear-gradient-13" x1="3.574" y1="41.13" x2="3.455" y2="47.393" xlink:href="#linear-gradient"/>
    <linearGradient id="linear-gradient-14" x1="0.571" y1="-0.551" x2="0.471" y2="1.401" xlink:href="#linear-gradient-2"/>
  </defs>
  <g id="Grupo_112240" data-name="Grupo 112240" transform="translate(-180 -1029)">
    <path id="BG" d="M0,0H445.3V381.271H0Z" transform="translate(625.303 1410.271) rotate(180)" fill="#e8e8e8" opacity="0.949"/>
    <g id="Grupo_111252" data-name="Grupo 111252" transform="translate(-409.384 883.702)">
      <path id="Rectángulo_40644" data-name="Rectángulo 40644" d="M29.316,0h76.5a29.316,29.316,0,0,1,29.316,29.316V215.538a0,0,0,0,1,0,0H0a0,0,0,0,1,0,0V29.316A29.316,29.316,0,0,1,29.316,0Z" transform="translate(834.21 272.283)" fill="#91b3fa"/>
      <path id="Rectángulo_40645" data-name="Rectángulo 40645" d="M30.526,0H87.251a30.526,30.526,0,0,1,30.526,30.526V148.662a0,0,0,0,1,0,0H0a0,0,0,0,1,0,0V30.526A30.526,30.526,0,0,1,30.526,0Z" transform="translate(763.076 339.16)" fill="#084a93" style="isolation: isolate"/>
      <path id="Rectángulo_40646" data-name="Rectángulo 40646" d="M28.513,0H82.458a28.513,28.513,0,0,1,28.513,28.513V96.577a0,0,0,0,1,0,0H0a0,0,0,0,1,0,0V28.513A28.513,28.513,0,0,1,28.513,0Z" transform="translate(697.769 391.245)" fill="#91b3fa"/>
      <path id="Rectángulo_40647" data-name="Rectángulo 40647" d="M21.92,0H79.565a21.92,21.92,0,0,1,21.92,21.92V65.155a0,0,0,0,1,0,0H0a0,0,0,0,1,0,0V21.92A21.92,21.92,0,0,1,21.92,0Z" transform="translate(639.504 423.378)" fill="#084a93" style="isolation: isolate"/>
      <g id="Grupo_111247" data-name="Grupo 111247" transform="translate(726.329 175.429)">
        <g id="Grupo_111244" data-name="Grupo 111244" transform="translate(0)" opacity="0.35" style="isolation: isolate">
          <path id="Trazado_116141" data-name="Trazado 116141" d="M757.132,242.573a2.033,2.033,0,0,1-1.369-2.349c.467-2.249,1.039-4.51,1.7-6.722a2.033,2.033,0,0,1,2.53-1.367l.037.012a2.033,2.033,0,0,1,1.329,2.518c-.628,2.1-1.171,4.25-1.615,6.385a2.033,2.033,0,0,1-2.4,1.577A1.885,1.885,0,0,1,757.132,242.573Zm5.515-16.831a2.135,2.135,0,0,1-.226-.087,2.033,2.033,0,0,1-1.009-2.693c.955-2.1,2.01-4.178,3.134-6.179a2.033,2.033,0,1,1,3.545,1.991c-1.069,1.9-2.07,3.877-2.978,5.873A2.034,2.034,0,0,1,762.647,225.742Zm9.083-15.2a2.034,2.034,0,0,1-1-3.17c1.4-1.83,2.888-3.623,4.436-5.328a2.033,2.033,0,0,1,3.01,2.734c-1.47,1.619-2.888,3.321-4.213,5.059A2.033,2.033,0,0,1,771.73,210.544Zm12.256-12.788a2.034,2.034,0,0,1-.679-3.5c1.771-1.473,3.626-2.887,5.515-4.2a2.033,2.033,0,1,1,2.324,3.337c-1.794,1.25-3.557,2.592-5.239,3.993A2.034,2.034,0,0,1,783.986,197.756Zm14.8-9.734a2.033,2.033,0,0,1-.3-3.749c2.048-1.041,4.17-2.008,6.306-2.875a2.033,2.033,0,1,1,1.529,3.767c-2.031.824-4.048,1.744-5.994,2.733A2.03,2.03,0,0,1,798.786,188.022Zm16.584-6.217a2.033,2.033,0,0,1,.12-3.909c2.231-.563,4.515-1.037,6.786-1.408a2.033,2.033,0,0,1,.657,4.013c-2.159.353-4.328.8-6.448,1.338A2.023,2.023,0,0,1,815.371,181.805Zm72.437,18.06a2.027,2.027,0,0,1-.744-.43c-1.62-1.467-3.325-2.882-5.068-4.205a2.033,2.033,0,0,1,2.459-3.238c1.836,1.395,3.632,2.885,5.337,4.428a2.034,2.034,0,0,1-1.984,3.445Zm-54.9-20.447a2.033,2.033,0,0,1,.572-3.969c2.3-.053,4.632-.006,6.929.139a2.033,2.033,0,1,1-.256,4.058c-2.181-.138-4.394-.182-6.579-.132A2.042,2.042,0,0,1,832.908,179.419Zm40.514,10.116a2.07,2.07,0,0,1-.376-.162c-1.907-1.068-3.886-2.066-5.881-2.969a2.033,2.033,0,1,1,1.677-3.7c2.1.95,4.182,2,6.189,3.123a2.033,2.033,0,0,1-1.609,3.712Zm-22.884-8.524a2.033,2.033,0,0,1,1.031-3.928c2.252.463,4.514,1.03,6.722,1.685l.042.013a2.033,2.033,0,0,1-1.2,3.885c-2.1-.622-4.247-1.16-6.386-1.6C850.678,181.052,850.608,181.033,850.539,181.011Z" transform="translate(-755.72 -175.429)" fill="#ffb30b"/>
          <path id="Trazado_116142" data-name="Trazado 116142" d="M944.3,219.988a2.023,2.023,0,0,1-.994-.7c-.637-.832-1.3-1.664-1.978-2.475a2.032,2.032,0,1,1,3.124-2.6c.711.852,1.411,1.727,2.081,2.6a2.033,2.033,0,0,1-2.234,3.173Z" transform="translate(-802.542 -185.052)" fill="#ffb30b"/>
        </g>
        <g id="Grupo_111245" data-name="Grupo 111245" transform="translate(12.579 87.756)" opacity="0.35">
          <path id="Trazado_116143" data-name="Trazado 116143" d="M965.737,300.085a2.034,2.034,0,0,1-1.39-2.241c.158-1.036.3-2.093.41-3.142a2.033,2.033,0,1,1,4.042.443c-.121,1.1-.266,2.217-.431,3.307a2.034,2.034,0,0,1-2.315,1.706A2.066,2.066,0,0,1,965.737,300.085Z" transform="translate(-821.054 -292.891)" fill="#ffb30b"/>
          <path id="Trazado_116144" data-name="Trazado 116144" d="M817.983,368.4q-1.337-.427-2.669-.9a2.034,2.034,0,0,1,1.367-3.83c2.049.731,4.123,1.378,6.189,1.928a2.033,2.033,0,1,1-1.046,3.929C820.546,369.18,819.254,368.8,817.983,368.4ZM805.476,363.2a2.063,2.063,0,0,1-.32-.133c-2.013-1.044-4.005-2.186-5.919-3.393a2.033,2.033,0,1,1,2.168-3.439c1.818,1.146,3.71,2.229,5.623,3.223a2.033,2.033,0,0,1-1.552,3.741Zm26.853,8.347a2.033,2.033,0,0,1,.871-3.954c2.131.264,4.3.44,6.456.522a2.033,2.033,0,0,1-.157,4.064c-2.267-.087-4.554-.273-6.8-.551A2.076,2.076,0,0,1,832.329,371.549Zm-41.35-18.031a2.029,2.029,0,0,1-.69-.382c-1.733-1.46-3.425-3.012-5.028-4.612a2.033,2.033,0,1,1,2.873-2.877c1.522,1.519,3.128,2.993,4.775,4.379a2.034,2.034,0,0,1-1.93,3.492Zm58.768,18.242a2.033,2.033,0,0,1,.418-3.96c2.136-.211,4.294-.518,6.412-.909a2.033,2.033,0,1,1,.74,4c-2.231.413-4.5.735-6.752.958A2.023,2.023,0,0,1,849.746,371.76Zm17.043-3.614a2.033,2.033,0,0,1-.02-3.868c2.044-.675,4.084-1.446,6.063-2.287a2.033,2.033,0,1,1,1.593,3.741c-2.082.886-4.229,1.7-6.38,2.407A2.03,2.03,0,0,1,866.789,368.146Zm15.849-7.245a2.033,2.033,0,0,1-.424-3.682c1.851-1.106,3.674-2.3,5.421-3.553a2.033,2.033,0,0,1,2.369,3.3c-1.838,1.318-3.758,2.577-5.7,3.739A2.029,2.029,0,0,1,882.638,360.9Zm13.891-10.528a2.033,2.033,0,0,1-.779-3.41c1.563-1.482,3.08-3.048,4.509-4.654a2.033,2.033,0,1,1,3.038,2.7c-1.505,1.692-3.1,3.341-4.749,4.9A2.03,2.03,0,0,1,896.529,350.373Zm11.245-13.325a2.036,2.036,0,0,1-1.072-3.068c1.195-1.786,2.329-3.647,3.371-5.531a2.033,2.033,0,1,1,3.558,1.969c-1.1,1.984-2.291,3.942-3.549,5.822A2.034,2.034,0,0,1,907.774,337.048Zm8.037-15.46q-.059-.019-.119-.043a2.032,2.032,0,0,1-1.159-2.631c.573-1.477,1.107-2.99,1.589-4.5q.261-.818.5-1.638a2.033,2.033,0,0,1,2.526-1.373,2.01,2.01,0,0,1,1.373,2.526q-.254.863-.53,1.723c-.507,1.585-1.069,3.177-1.672,4.731A2.033,2.033,0,0,1,915.811,321.588Z" transform="translate(-775.618 -297.552)" fill="#ffb30b"/>
          <path id="Trazado_116145" data-name="Trazado 116145" d="M775.879,348.6a2.023,2.023,0,0,1-1-.707c-.665-.877-1.325-1.785-1.959-2.7a2.033,2.033,0,1,1,3.337-2.322c.6.867,1.23,1.73,1.861,2.563a2.032,2.032,0,0,1-2.24,3.164Z" transform="translate(-772.556 -305.311)" fill="#ffb30b"/>
        </g>
        <g id="Grupo_111246" data-name="Grupo 111246" transform="translate(16.014 20.381)">
          <path id="Trazado_116146" data-name="Trazado 116146" d="M782.532,294.649a.991.991,0,0,0,.965.628l12.064-.521A52.615,52.615,0,0,0,807.4,307.018l-.942,12.031a.992.992,0,0,0,.594.987l13.283,5.777a.992.992,0,0,0,1.127-.239l8.157-8.893a52.6,52.6,0,0,0,17.04.292l7.846,9.179a.992.992,0,0,0,1.118.278l13.476-5.308a.99.99,0,0,0,.627-.965l-.521-12.064a52.6,52.6,0,0,0,12.263-11.834l12.031.941a.99.99,0,0,0,.987-.593l5.776-13.283a.991.991,0,0,0-.239-1.127l-8.894-8.157a52.579,52.579,0,0,0,.292-17.04l9.179-7.846a.991.991,0,0,0,.279-1.118l-5.308-13.476a.991.991,0,0,0-.966-.628l-12.064.521A52.578,52.578,0,0,0,870.7,222.19l.941-12.031a.992.992,0,0,0-.593-.987L857.768,203.4a.993.993,0,0,0-1.127.239l-8.157,8.893a52.579,52.579,0,0,0-17.039-.292l-7.846-9.179a.991.991,0,0,0-1.118-.279L809,208.087a.993.993,0,0,0-.628.966l.521,12.064a52.6,52.6,0,0,0-12.264,11.833l-12.031-.941a.991.991,0,0,0-.987.593l-5.777,13.283a1,1,0,0,0,.239,1.127l8.894,8.157a52.619,52.619,0,0,0-.292,17.039l-9.179,7.846a.992.992,0,0,0-.278,1.118Z" transform="translate(-777.154 -202.709)" fill="#ffb30b" opacity="0.8" style="isolation: isolate"/>
          <path id="Trazado_116147" data-name="Trazado 116147" d="M850.631,294.494a14.57,14.57,0,1,1,2.079.5A14.581,14.581,0,0,1,850.631,294.494Zm7.86-24.5a11.311,11.311,0,0,0-1.61-.387,11.123,11.123,0,1,0,1.61.387Z" transform="translate(-793.177 -218.732)" fill="#fff" opacity="0.6"/>
          <path id="Trazado_116148" data-name="Trazado 116148" d="M837.417,307.38a36.5,36.5,0,0,1-3.443-1.295h0q-.534-.232-1.062-.482a36.041,36.041,0,0,1-4.971-2.858l-.064-.044-.182-.126-.351-.249a.849.849,0,0,1,.99-1.38,34.139,34.139,0,0,0,39.016.548,33.9,33.9,0,0,0,12.172-14.64,34.646,34.646,0,0,0,1.236-3.285,34.1,34.1,0,0,0-63.78-23.912,34.11,34.11,0,0,0-2.551,17.985.849.849,0,1,1-1.684.219,35.8,35.8,0,1,1,69.634,6.222,36.526,36.526,0,0,1-1.3,3.448,35.806,35.806,0,0,1-43.662,19.849Z" transform="translate(-786.079 -211.497)" fill="#fff" opacity="0.6"/>
        </g>
      </g>
      <g id="Grupo_111251" data-name="Grupo 111251" transform="translate(665.169 289.006)">
        <path id="Trazado_116149" data-name="Trazado 116149" d="M678.487,496.3l-1.67,3.434a1.4,1.4,0,0,0,1.107,1.371,5.458,5.458,0,0,0,2.418.024,1.34,1.34,0,0,0,1-1.148l3.242-8.67Z" transform="translate(-674.605 -368.893)" fill="url(#linear-gradient)"/>
        <g id="Grupo_111248" data-name="Grupo 111248" transform="translate(32.875 98.912)">
          <path id="Trazado_116150" data-name="Trazado 116150" d="M734.574,465.084c-3.34-2.908-10.518-5.237-10.518-5.237l-4.318.094c-1.1,1.233-1.591,3.623-1.8,5.121.813.487,2.337.914,5.13,1.047A42.024,42.024,0,0,0,734.574,465.084Z" transform="translate(-717.879 -459.847)" fill="url(#linear-gradient-2)"/>
          <path id="Trazado_116151" data-name="Trazado 116151" d="M734.555,466.849a42.023,42.023,0,0,1-11.508,1.024c-2.793-.133-4.317-.56-5.13-1.047-.017.12-.033.237-.046.344a1.273,1.273,0,0,0,.9,1.373c3.945,1.209,12.621.82,16,.61a.89.89,0,0,0,.637-1.451A7.574,7.574,0,0,0,734.555,466.849Z" transform="translate(-717.86 -461.612)" fill="url(#linear-gradient-3)"/>
        </g>
        <path id="Trazado_116152" data-name="Trazado 116152" d="M722.49,454.983l-1.67,3.434a1.4,1.4,0,0,0,1.107,1.371,5.461,5.461,0,0,0,2.419.024,1.34,1.34,0,0,0,1-1.148l2.1-3.68Z" transform="translate(-685.734 -359.705)" fill="url(#linear-gradient-4)"/>
        <path id="Trazado_116153" data-name="Trazado 116153" d="M678.857,475.378l3.7-.27a1.909,1.909,0,0,0,1.574-1.233c1.4-5.923,22.711-52.85,27.525-61.467l-15.09-6.6S677.16,475.327,678.857,475.378Z" transform="translate(-675.095 -347.268)" fill="url(#linear-gradient-5)"/>
        <path id="Trazado_116154" data-name="Trazado 116154" d="M741.182,402.93c-5.524-2.964-20.908-5.527-20.908-5.527l-17.894-4.845s-4.914,14.656,3.7,17.3,21.053,1.393,26.27.7c0,0-6.975,5.009-15.325,29.274a29.264,29.264,0,0,1,5.1.595s18.635-23.194,20.589-29.178C744,407.3,745.8,405.407,741.182,402.93Z" transform="translate(-680.717 -343.918)" fill="url(#linear-gradient-6)"/>
        <path id="Trazado_116155" data-name="Trazado 116155" d="M763.833,341.749c-3.871-.273-15.631,2.284-15.631,2.284L754.241,349s4.76-1.158,7.932-1.778C762.173,347.22,770,342.184,763.833,341.749Z" transform="translate(-692.659 -331.063)" fill="url(#linear-gradient-7)"/>
        <g id="Grupo_111249" data-name="Grupo 111249" transform="translate(68.616)">
          <path id="Trazado_116156" data-name="Trazado 116156" d="M782.082,343.336s-5.186,4.816-8.337,6.123-4.993,2.733-6.945-.755a8.372,8.372,0,0,1,1.405-10.089s4-4.389,6.228-4.5S782.082,343.336,782.082,343.336Z" transform="translate(-765.699 -329.137)" fill="url(#linear-gradient-8)"/>
          <path id="Trazado_116157" data-name="Trazado 116157" d="M771.262,337.393l.165.47s3.289-3.33,4.584-1.874,5.035,7.709,7.935,8.323a4.711,4.711,0,0,0,5.511-3.865.265.265,0,0,0-.229-.277l-.348-.052a.267.267,0,0,1-.116-.482.266.266,0,0,0-.09-.477c-.871-.194-2.457-.991-4.188-4.012-2.456-4.288-5.376-6.666-8.571-5.628a.268.268,0,0,1-.344-.318c.087-.411-.006-.986-.869-1.5-1.5-.887-4.066.592-5.355,4.145a.266.266,0,0,1-.409.131c-.5-.386-1.538-.86-1.892,1.436-.362,2.347.164,3.477.432,3.879a.27.27,0,0,0,.329.1l2.746-1.16a.268.268,0,0,1,.356.158Z" transform="translate(-766.009 -327.453)" fill="url(#linear-gradient-9)"/>
          <path id="Trazado_116158" data-name="Trazado 116158" d="M771.354,339.817s3.554-2.39,1.842-3.759-4.063,2.449-3.714,3.91Z" transform="translate(-766.647 -329.555)" fill="url(#linear-gradient-10)"/>
        </g>
        <path id="Trazado_116159" data-name="Trazado 116159" d="M815.253,356.246s2.917,1.036,3.456-.7-.966-6.365-.011-7,2.6-3.833,2.081-5.293l-1.2,1.136s.814-2.679-.08-3.82l-2.263,5.818S814.243,353.305,815.253,356.246Z" transform="translate(-709.563 -330.769)" fill="url(#linear-gradient-11)"/>
        <path id="Trazado_116160" data-name="Trazado 116160" d="M734.149,345.47s5.2-5.738,16.571,3.219c7.836,6.173,36.074,4.918,36.074,4.918a13.807,13.807,0,0,0,.539,3.531s-23.7,6.4-41.484,2.057c0,0-19.654,22.279-21.168,26.642,0,0-12.772,1.908-21.829-5.646,0,0,2.429-7.534,10.294-16.269A122.638,122.638,0,0,1,734.149,345.47Z" transform="translate(-681.19 -331.552)" fill="url(#linear-gradient-12)"/>
        <path id="Trazado_116161" data-name="Trazado 116161" d="M748.355,361.321a.2.2,0,0,1,.122-.372c.067.019,6.766,1.9,7.823,2.161a.2.2,0,0,1-.094.381c-1.062-.264-7.768-2.146-7.835-2.166Z" transform="translate(-692.665 -335.922)" fill="url(#linear-gradient-13)"/>
        <g id="Grupo_111250" data-name="Grupo 111250" transform="translate(0 131.045)">
          <path id="Trazado_116162" data-name="Trazado 116162" d="M690.571,508.1c-3.34-2.908-10.518-5.237-10.518-5.237l-4.318.094c-1.1,1.233-1.591,3.623-1.8,5.121.813.487,2.336.914,5.13,1.047A42.024,42.024,0,0,0,690.571,508.1Z" transform="translate(-673.876 -502.858)" fill="url(#linear-gradient-14)"/>
          <path id="Trazado_116163" data-name="Trazado 116163" d="M690.552,509.86a42.023,42.023,0,0,1-11.508,1.024c-2.794-.133-4.318-.56-5.13-1.047-.017.12-.033.237-.046.344a1.273,1.273,0,0,0,.9,1.373c3.945,1.209,12.621.82,16,.61a.89.89,0,0,0,.637-1.451A7.576,7.576,0,0,0,690.552,509.86Z" transform="translate(-673.857 -504.623)" fill="url(#linear-gradient-3)"/>
        </g>
      </g>
    </g>
  </g>
</svg>
