<svg xmlns="http://www.w3.org/2000/svg" xmlns:xlink="http://www.w3.org/1999/xlink" width="733" height="453" viewBox="0 0 733 453">
  <defs>
    <filter id="Rectángulo_40831" x="0" y="0" width="733" height="453" filterUnits="userSpaceOnUse">
      <feOffset dy="3" input="SourceAlpha"/>
      <feGaussianBlur stdDeviation="3" result="blur"/>
      <feFlood flood-color="#403e3e" flood-opacity="0.161"/>
      <feComposite operator="in" in2="blur"/>
      <feComposite in="SourceGraphic"/>
    </filter>
  </defs>
  <g id="Grupo_112228" data-name="Grupo 112228" transform="translate(2689.254 6964.74)">
    <g transform="matrix(1, 0, 0, 1, -2689.25, -6964.74)" filter="url(#Rectángulo_40831)">
      <rect id="Rectángulo_40831-2" data-name="Rectángulo 40831" width="715" height="435" rx="23" transform="translate(9 6)" fill="#ecf2f9"/>
    </g>
    <g id="Grupo_112221" data-name="Grupo 112221" transform="translate(-2863.921 -11904.291)">
      <g id="Grupo_111294" data-name="Grupo 111294">
        <path id="Trazado_116171" data-name="Trazado 116171" d="M10.283,12.569h0Z" transform="translate(610.829 5087.957) rotate(90)" fill="#636363"/>
        <line id="Línea_228" data-name="Línea 228" x2="188" transform="translate(414.167 5093.1)" fill="none" stroke="#636363" stroke-linecap="round" stroke-width="3"/>
        <g id="Grupo_111125" data-name="Grupo 111125" transform="translate(166 74.55)">
          <path id="Trazado_116030" data-name="Trazado 116030" d="M5.541,0H240.459A5.291,5.291,0,0,1,246,5V38a5.291,5.291,0,0,1-5.541,5H5.541A5.291,5.291,0,0,1,0,38V5A5.291,5.291,0,0,1,5.541,0Z" transform="translate(458.667 4997)" fill="#e8e8e8"/>
          <text id="Asociación_de_comunicación" data-name="Asociación de comunicación" transform="translate(478.667 5024)" fill="#12263f" font-size="16" font-family="Roboto-Bold, Roboto" font-weight="700"><tspan x="0" y="0">Asociación de comunicación</tspan></text>
        </g>
      </g>
    </g>
    <g id="Grupo_112222" data-name="Grupo 112222" transform="translate(-2863.921 -11913.74)">
      <path id="Polígono_26" data-name="Polígono 26" d="M5.142,0l5.142,12.569H0Z" transform="translate(414.167 5180.69) rotate(-90)" fill="#636363"/>
      <line id="Línea_229" data-name="Línea 229" x1="188" transform="translate(422.829 5175.55)" fill="none" stroke="#636363" stroke-linecap="round" stroke-width="3" stroke-dasharray="5 7"/>
      <g id="Grupo_111287" data-name="Grupo 111287" transform="translate(-7 -55)">
        <rect id="Rectángulo_40670" data-name="Rectángulo 40670" width="97" height="43" rx="5" transform="translate(631.667 5209)" fill="#e8e8e8"/>
        <text id="Extensión" transform="translate(644.667 5236)" fill="#12263f" font-size="16" font-family="Roboto-Bold, Roboto" font-weight="700"><tspan x="0" y="0">Extensión</tspan></text>
      </g>
    </g>
    <g id="Grupo_112223" data-name="Grupo 112223" transform="translate(-2863.921 -11904.74)">
      <path id="Trazado_116170" data-name="Trazado 116170" d="M5,0H114a5,5,0,0,1,5,5V62a5,5,0,0,1-5,5H5a5,5,0,0,1-5-5V5A5,5,0,0,1,5,0Z" transform="translate(228.667 5284)" fill="#00defc" opacity="0.35"/>
      <text id="LIMITE_DEL_SISTEMA" data-name="LIMITE DEL SISTEMA" transform="translate(241.667 5296)" fill="#12263f" font-size="16" font-family="Roboto-Bold, Roboto" font-weight="700"><tspan x="-41.477" y="17">LIMITE DEL </tspan><tspan x="-34.008" y="41">SISTEMA</tspan></text>
    </g>
    <g id="Grupo_112224" data-name="Grupo 112224" transform="translate(-2863.921 -11916.74)">
      <path id="Polígono_27" data-name="Polígono 27" d="M5.142,0l5.142,12.569H0Z" transform="translate(414.167 5256.69) rotate(-90)" fill="#636363"/>
      <line id="Línea_230" data-name="Línea 230" x1="188" transform="translate(422.829 5251.55)" fill="none" stroke="#636363" stroke-linecap="round" stroke-width="3" stroke-dasharray="5 7"/>
      <g id="Grupo_111288" data-name="Grupo 111288" transform="translate(-7 21)">
        <rect id="Rectángulo_40670-2" data-name="Rectángulo 40670" width="92" height="43" rx="5" transform="translate(631.667 5209)" fill="#e8e8e8"/>
        <text id="Inclusión" transform="translate(644.667 5236)" fill="#12263f" font-size="16" font-family="Roboto-Bold, Roboto" font-weight="700"><tspan x="0" y="0">Inclusión</tspan></text>
      </g>
    </g>
    <g id="Grupo_112225" data-name="Grupo 112225" transform="translate(-2863.921 -11904.74)">
      <path id="Polígono_28" data-name="Polígono 28" d="M5.142,0l5.142,12.569H0Z" transform="translate(610.829 5307.407) rotate(90)" fill="#636363"/>
      <line id="Línea_231" data-name="Línea 231" x2="188" transform="translate(414.167 5312.55)" fill="none" stroke="#636363" stroke-linecap="round" stroke-width="3"/>
      <g id="Grupo_111289" data-name="Grupo 111289" transform="translate(-7 82)">
        <rect id="Rectángulo_40670-3" data-name="Rectángulo 40670" width="133" height="43" rx="5" transform="translate(631.667 5209)" fill="#e8e8e8"/>
        <text id="Generalización" transform="translate(644.667 5236)" fill="#12263f" font-size="16" font-family="Roboto-Bold, Roboto" font-weight="700"><tspan x="0" y="0">Generalización</tspan></text>
      </g>
    </g>
    <g id="Grupo_112226" data-name="Grupo 112226" transform="translate(-2863.921 -11905.74)">
      <ellipse id="Elipse_4722" data-name="Elipse 4722" cx="76" cy="41" rx="76" ry="41" transform="translate(211.667 5175)" fill="#00defc" opacity="0.35"/>
      <text id="CASO_DE_USO" data-name="CASO DE USO" transform="translate(237.667 5222)" fill="#12263f" font-size="16" font-family="Roboto-Bold, Roboto" font-weight="700"><tspan x="0" y="0">CASO DE USO</tspan></text>
    </g>
    <g id="Grupo_112227" data-name="Grupo 112227" transform="translate(-2867.921 -11904.867)">
      <g id="Grupo_111292" data-name="Grupo 111292">
        <g id="_1" data-name="1" transform="translate(264.667 4977.126)">
          <path id="Trazado_116164" data-name="Trazado 116164" d="M499.753,391v-.027c-.267-6.772-.666-13.547-1.267-20.3a100.01,100.01,0,0,0-1.737-13.157c-1.2-5.316-3.619-10.726-7.682-14.483a21.448,21.448,0,0,0-10.018-5.353,23.875,23.875,0,0,0-5.157-.493c-.353.006-1.5.006-1.852,0a23.872,23.872,0,0,0-5.157.493,21.448,21.448,0,0,0-10.018,5.353c-4.063,3.758-6.481,9.168-7.682,14.483a100.035,100.035,0,0,0-1.737,13.157c-.6,6.75-1,13.525-1.267,20.3V391a5.212,5.212,0,1,0,10.424.075q.379-9.75,1.194-19.483c.223-2.619.479-5.238.822-7.844a37.432,37.432,0,0,1,1.981-8.007,22.308,22.308,0,0,1,2.069-3.655,17.692,17.692,0,0,1,2.2-2.24,10.916,10.916,0,0,1,5.354-2.216,9.331,9.331,0,0,1,1.744-.015,9.212,9.212,0,0,1,2,0,9.33,9.33,0,0,1,1.744.015,10.916,10.916,0,0,1,5.354,2.216,17.708,17.708,0,0,1,2.2,2.24,22.348,22.348,0,0,1,2.07,3.655,37.436,37.436,0,0,1,1.981,8.007c.343,2.606.6,5.225.821,7.844q.83,9.722,1.195,19.483A5.212,5.212,0,1,0,499.753,391Z" transform="translate(-446.175 -307.324)" fill="#084a93"/>
          <path id="Trazado_116165" data-name="Trazado 116165" d="M485.557,489.35V437.937a6.081,6.081,0,0,0-12.161-.087v51.414a6.081,6.081,0,1,0,12.161.087Z" transform="translate(-460.037 -355.514)" fill="#084a93"/>
          <path id="Trazado_116166" data-name="Trazado 116166" d="M515.518,489.35V437.937a6.081,6.081,0,0,0-12.161-.087v51.414a6.081,6.081,0,1,0,12.161.087Z" transform="translate(-475.295 -355.514)" fill="#084a93"/>
          <path id="Trazado_116167" data-name="Trazado 116167" d="M498.96,350.055H474.7a1.448,1.448,0,0,0-1.3,1.561v45.513a1.448,1.448,0,0,0,1.3,1.561H485.56v0a1.269,1.269,0,0,1,2.537,0v0H498.96a1.448,1.448,0,0,0,1.3-1.561V351.616A1.448,1.448,0,0,0,498.96,350.055Z" transform="translate(-460.037 -313.878)" fill="#084a93"/>
          <circle id="Elipse_4720" data-name="Elipse 4720" cx="13.085" cy="13.085" r="13.085" transform="translate(12.731 2.028) rotate(-4.445)" fill="#084a93"/>
        </g>
        <text id="ACTOR" transform="translate(265.667 5143)" fill="#12263f" font-size="16" font-family="Roboto-Bold, Roboto" font-weight="700"><tspan x="0" y="0">ACTOR</tspan></text>
      </g>
    </g>
  </g>
</svg>
