<svg xmlns="http://www.w3.org/2000/svg" width="408.598" height="382.401" viewBox="0 0 408.598 382.401">
  <g id="Grupo_111859" data-name="Grupo 111859" transform="translate(-172 -3032.569)">
    <g id="Grupo_111856" data-name="Grupo 111856" transform="translate(151.715 3010.029)">
      <g id="Background_Simple" data-name="Background Simple" transform="translate(35.285 61.982)">
        <g id="Grupo_111848" data-name="Grupo 111848">
          <path id="Trazado_116741" data-name="Trazado 116741" d="M317.134,383.364s70.684-52.413,87.346-134.189S352.625,150.9,312.434,123.18,257.447,64.272,199.217,62.35,110.868,81.484,89.851,122.292s-32.239,82.714-38.84,123.613-3.348,73.568,34.031,89.87,54.725,9.155,72.483,27.924S256.322,424.957,317.134,383.364Z" transform="translate(-63.285 -72.229)" fill="#ffb30b" opacity="0.7"/>
          <path id="Trazado_116838" data-name="Trazado 116838" d="M317.134,383.364s70.684-52.413,87.346-134.189S352.625,150.9,312.434,123.18,257.447,64.272,199.217,62.35,110.868,81.484,89.851,122.292s-32.239,82.714-38.84,123.613-3.348,73.568,34.031,89.87,54.725,9.155,72.483,27.924S256.322,424.957,317.134,383.364Z" transform="translate(-55.285 -59.23)" fill="none" stroke="#ffb30b" stroke-width="2" stroke-dasharray="5" opacity="0.7"/>
        </g>
      </g>
      <g id="Hand_2" data-name="Hand 2" transform="translate(208.905 29.971)">
        <g id="Grupo_111855" data-name="Grupo 111855" transform="translate(0 0)">
          <g id="Grupo_111852" data-name="Grupo 111852" transform="translate(2.401 27.79)">
            <path id="Trazado_116742" data-name="Trazado 116742" d="M417.859,119.577s-41.641-5.039-46.945-7.115-53.272-27.216-56.27-28.37-7.61,0-9.225.921-9.226,3.459-12.915,5.3-22.141,9.224-25.831,11.3a11.43,11.43,0,0,0-5.535,8.3c-.231,2.306-5.305,20.525-4.383,24.215s2.536,15.683,3.919,18.912,3,2.537,4.612,2.306,6.918-3,6.918-3,2.076,7.841,4.381,11.531,5.074,9.917,7.841,9.917,5.074-2.536,5.074-2.536,14.53,5.074,18.219,5.767,6.227,0,7.149-1.614-.23-5.535-.23-5.535,11.07,0,10.609-5.3-3-7.149-4.612-7.841a41.365,41.365,0,0,0-6.457-1.384h10.608s8.994,2.768,20.064,7.15,20.525,5.767,33.209,3.692,14.761-3.919,17.066-3.919,78.5,17.193,78.5,17.193" transform="translate(-256.643 -83.608)" fill="#fff" stroke="#263238" stroke-linecap="round" stroke-linejoin="round" stroke-width="1"/>
            <g id="Grupo_111849" data-name="Grupo 111849" transform="translate(30.515 63.673)">
              <path id="Trazado_116743" data-name="Trazado 116743" d="M309.989,170.866l.121.055Z" transform="translate(-293.645 -157.892)" fill="#263238" stroke="#263238" stroke-linecap="round" stroke-linejoin="round" stroke-width="1"/>
              <path id="Trazado_116744" data-name="Trazado 116744" d="M309.957,170.851l.028.013Z" transform="translate(-293.641 -157.891)" fill="#263238" stroke="#263238" stroke-linecap="round" stroke-linejoin="round" stroke-width="1"/>
              <path id="Trazado_116745" data-name="Trazado 116745" d="M309.868,170.811l.015.007Z" transform="translate(-293.63 -157.886)" fill="#263238" stroke="#263238" stroke-linecap="round" stroke-linejoin="round" stroke-width="1"/>
              <path id="Trazado_116746" data-name="Trazado 116746" d="M310.127,170.929l.237.107Z" transform="translate(-293.662 -157.9)" fill="#263238" stroke="#263238" stroke-linecap="round" stroke-linejoin="round" stroke-width="1"/>
              <path id="Trazado_116747" data-name="Trazado 116747" d="M309.885,170.819l.063.028Z" transform="translate(-293.632 -157.887)" fill="#263238" stroke="#263238" stroke-linecap="round" stroke-linejoin="round" stroke-width="1"/>
              <path id="Trazado_116748" data-name="Trazado 116748" d="M310.4,171.051l.432.2Z" transform="translate(-293.694 -157.915)" fill="#263238" stroke="#263238" stroke-linecap="round" stroke-linejoin="round" stroke-width="1"/>
              <path id="Trazado_116749" data-name="Trazado 116749" d="M311.883,171.727Z" transform="translate(-293.875 -157.997)" fill="#263238" stroke="#263238" stroke-linecap="round" stroke-linejoin="round" stroke-width="1"/>
              <path id="Trazado_116750" data-name="Trazado 116750" d="M311.708,171.647l.154.07Z" transform="translate(-293.854 -157.987)" fill="#263238" stroke="#263238" stroke-linecap="round" stroke-linejoin="round" stroke-width="1"/>
              <path id="Trazado_116751" data-name="Trazado 116751" d="M311.566,171.583l.125.056Z" transform="translate(-293.837 -157.98)" fill="#263238" stroke="#263238" stroke-linecap="round" stroke-linejoin="round" stroke-width="1"/>
              <path id="Trazado_116752" data-name="Trazado 116752" d="M310.889,171.275l.274.125Z" transform="translate(-293.754 -157.942)" fill="#263238" stroke="#263238" stroke-linecap="round" stroke-linejoin="round" stroke-width="1"/>
              <path id="Trazado_116753" data-name="Trazado 116753" d="M311.2,171.417l.321.146Z" transform="translate(-293.792 -157.959)" fill="#263238" stroke="#263238" stroke-linecap="round" stroke-linejoin="round" stroke-width="1"/>
              <path id="Trazado_116754" data-name="Trazado 116754" d="M332.656,160.256a21.538,21.538,0,0,0-6.618-.429c-.419-1.476-2.612-3-3.388-3.552-1.332-.951-23.211,2.092-26.254,4.375s-5.9,4.566-4.757,8.371l4.186,2.474s7.61-4.376,11.8-2.474c0,0,3.805-4.186,7.991-4.946l13.4.094s9.452,2.618,13.806,4.614,13.425-2.178,14.7-3.266S339.188,161.707,332.656,160.256Z" transform="translate(-291.382 -156.096)" fill="#263238" stroke="#263238" stroke-linecap="round" stroke-linejoin="round" stroke-width="1"/>
            </g>
            <g id="Grupo_111851" data-name="Grupo 111851" transform="translate(8.357 15.25)">
              <path id="Trazado_116755" data-name="Trazado 116755" d="M295.4,170.078s2.477,8.9-1.347,11.706" transform="translate(-269.549 -109.373)" fill="none" stroke="#263238" stroke-linecap="round" stroke-linejoin="round" stroke-width="1"/>
              <path id="Trazado_116756" data-name="Trazado 116756" d="M285.815,183.238a15.2,15.2,0,0,1,0-4.17c.334-2-2-5-2-5" transform="translate(-268.304 -109.858)" fill="none" stroke="#263238" stroke-linecap="round" stroke-linejoin="round" stroke-width="1"/>
              <path id="Trazado_116757" data-name="Trazado 116757" d="M302.705,185.018s-2-4.17.834-4.5,10.173,1.667,10.173,1.667a11.888,11.888,0,0,0,1,6.338" transform="translate(-270.518 -110.638)" fill="none" stroke="#263238" stroke-linecap="round" stroke-linejoin="round" stroke-width="1"/>
              <path id="Trazado_116758" data-name="Trazado 116758" d="M307.283,169.311c-1.977-.721-3.486-1.206-3.486-1.206a11.052,11.052,0,0,0-.668-2.669,5.319,5.319,0,0,0-1.727-1.985" transform="translate(-270.443 -108.567)" fill="none" stroke="#fff" stroke-linecap="round" stroke-linejoin="round" stroke-width="1"/>
              <path id="Trazado_116759" data-name="Trazado 116759" d="M320.9,180.405s-1.611-4.151-4.279-6.319c-1.6-1.3-5.579-2.892-8.522-3.964" transform="translate(-271.257 -109.378)" fill="none" stroke="#263238" stroke-linecap="round" stroke-linejoin="round" stroke-width="1"/>
              <line id="Línea_261" data-name="Línea 261" x2="2.168" y2="0.334" transform="translate(29.185 59.038)" fill="none" stroke="#fff" stroke-linecap="round" stroke-linejoin="round" stroke-width="1"/>
              <path id="Trazado_116760" data-name="Trazado 116760" d="M317.8,174.263s0-2,3.5-2.168,7.5-1.167,8.172.167,1.5,4.5.667,5.67-7.671,1.167-7.671,1.167" transform="translate(-272.437 -109.555)" fill="none" stroke="#263238" stroke-linecap="round" stroke-linejoin="round" stroke-width="1"/>
              <path id="Trazado_116761" data-name="Trazado 116761" d="M315.374,164.185a8.988,8.988,0,0,0-2.5-2.669,11.827,11.827,0,0,0-2.669-1.5" transform="translate(-271.513 -108.149)" fill="none" stroke="#fff" stroke-linecap="round" stroke-linejoin="round" stroke-width="1"/>
              <g id="Grupo_111850" data-name="Grupo 111850">
                <path id="Trazado_116762" data-name="Trazado 116762" d="M273.566,147.085a20.216,20.216,0,0,0,0-7.505c-.834-3.335-1.334-5.169-1.334-5.169a27.061,27.061,0,0,0,3.836-5.337c1.334-2.669,3.5-7.338,3.5-7.338s7.171-1.667,10.84-2.669a34.539,34.539,0,0,0,7.838-3.669,16.192,16.192,0,0,0,2,4.17" transform="translate(-266.896 -102.724)" fill="none" stroke="#263238" stroke-linecap="round" stroke-linejoin="round" stroke-width="1"/>
                <path id="Trazado_116763" data-name="Trazado 116763" d="M286.51,136.642a9.733,9.733,0,0,0,2.968,1.353" transform="translate(-268.632 -105.307)" fill="none" stroke="#263238" stroke-linecap="round" stroke-linejoin="round" stroke-width="1"/>
                <path id="Trazado_116764" data-name="Trazado 116764" d="M282.105,131.916a12.854,12.854,0,0,0,2.186,2.78" transform="translate(-268.096 -104.732)" fill="none" stroke="#263238" stroke-linecap="round" stroke-linejoin="round" stroke-width="1"/>
                <path id="Trazado_116765" data-name="Trazado 116765" d="M301.783,107.225a14.3,14.3,0,0,1,.891-6.256" transform="translate(-270.487 -100.969)" fill="none" stroke="#263238" stroke-linecap="round" stroke-linejoin="round" stroke-width="1"/>
                <path id="Trazado_116766" data-name="Trazado 116766" d="M302.378,113.06s-.156-.711-.306-1.808" transform="translate(-270.524 -102.219)" fill="none" stroke="#263238" stroke-linecap="round" stroke-linejoin="round" stroke-width="1"/>
                <path id="Trazado_116767" data-name="Trazado 116767" d="M273.561,112.93s6.671,5.671,6.171,8.506" transform="translate(-267.057 -102.423)" fill="none" stroke="#263238" stroke-linecap="round" stroke-linejoin="round" stroke-width="1"/>
                <path id="Trazado_116768" data-name="Trazado 116768" d="M266.157,132.3s2.5-.167,4,3.168" transform="translate(-266.157 -104.778)" fill="none" stroke="#263238" stroke-linecap="round" stroke-linejoin="round" stroke-width="1"/>
              </g>
            </g>
          </g>
          <g id="Grupo_111853" data-name="Grupo 111853">
            <path id="Trazado_116769" data-name="Trazado 116769" d="M331.641,109.351l-4.956-4.956-4.956-4.956-31.744,31.508-27.728,30.8,3.537,3.537,3.537,3.537,30.8-27.728Z" transform="translate(-254.924 -57.743)" fill="#084a93" stroke="#263238" stroke-linecap="round" stroke-linejoin="round" stroke-width="1"/>
            <path id="Trazado_116770" data-name="Trazado 116770" d="M355.8,87.785c13.255-13.8,23.9-25.338,23.9-25.338l-4.418-4.417-4.418-4.418S359.319,64.25,345.524,77.505s-19.116,18.756-19.116,18.756l5.32,5.32,5.32,5.32S342.548,101.58,355.8,87.785Z" transform="translate(-262.725 -52.17)" fill="#084a93" stroke="#263238" stroke-linecap="round" stroke-linejoin="round" stroke-width="1"/>
            <line id="Línea_262" data-name="Línea 262" x1="2.83" y2="2.895" transform="translate(75.588 46.567)" fill="none" stroke="#263238" stroke-linecap="round" stroke-linejoin="round" stroke-width="1"/>
            <line id="Línea_263" data-name="Línea 263" x1="33.091" y2="33.852" transform="translate(80.809 10.268)" fill="none" stroke="#263238" stroke-linecap="round" stroke-linejoin="round" stroke-width="1"/>
            <line id="Línea_264" data-name="Línea 264" x1="14.752" y2="15.193" transform="translate(55.991 53.865)" fill="none" stroke="#263238" stroke-linecap="round" stroke-linejoin="round" stroke-width="1"/>
            <path id="Trazado_116771" data-name="Trazado 116771" d="M327.928,100.406c-1.039,1.047-1.521,1.545-1.521,1.545l10.64,10.64s.5-.482,1.544-1.521Z" transform="translate(-262.725 -57.861)" fill="#263238" stroke="#263238" stroke-linecap="round" stroke-linejoin="round" stroke-width="1"/>
            <rect id="Rectángulo_40768" data-name="Rectángulo 40768" width="8.274" height="4.373" transform="translate(7.773 104.373) rotate(45)" fill="#d4d4d4" stroke="#263238" stroke-linecap="round" stroke-linejoin="round" stroke-width="1"/>
            <path id="Trazado_116772" data-name="Trazado 116772" d="M258.683,174.313l-4.012,7.522,1.839,1.839,8.023-3.51Z" transform="translate(-254.002 -66.848)" fill="#d4d4d4" stroke="#263238" stroke-linecap="round" stroke-linejoin="round" stroke-width="1"/>
            <path id="Trazado_116773" data-name="Trazado 116773" d="M254.954,183.471l-1.044,2.089,2.014-1.119Z" transform="translate(-253.909 -67.961)" fill="#fff" stroke="#263238" stroke-linecap="round" stroke-linejoin="round" stroke-width="1"/>
            <path id="Rectángulo_40769" data-name="Rectángulo 40769" d="M3.549,0h2.9A3.549,3.549,0,0,1,10,3.549V3.543a0,0,0,0,1,0,0H0a0,0,0,0,1,0,0v.006A3.549,3.549,0,0,1,3.549,0Z" transform="translate(111.642 0) rotate(45)" fill="#fff" stroke="#263238" stroke-linecap="round" stroke-linejoin="round" stroke-width="1"/>
            <path id="Trazado_116774" data-name="Trazado 116774" d="M370.746,54.393l-1.968-.9L331.2,87.675s.806.8,1.253.715A14.714,14.714,0,0,0,338,84.811c1.61-1.968,1.342-3.131,2.684-4.294S370.746,54.393,370.746,54.393Z" transform="translate(-263.308 -52.156)" fill="#fff" stroke="#263238" stroke-linecap="round" stroke-linejoin="round" stroke-width="1"/>
          </g>
          <g id="Grupo_111854" data-name="Grupo 111854" transform="translate(8.035 66.098)">
            <path id="Trazado_116775" data-name="Trazado 116775" d="M323.723,127.219s-16.143,7.149-27.444,9.686-15.913,3.459-17.528,4.843-8.763,8.995-12.223,12.915-5.765,8.764.231,13.145,9.455,2.076,18.219-.922,11.762-7.841,11.762-7.841,5.535-5.075,15.683-4.151,13.837,3.228,29.058,7.149a36.453,36.453,0,0,0,31.364-6" transform="translate(-263.057 -127.219)" fill="#fff" stroke="#263238" stroke-linecap="round" stroke-linejoin="round" stroke-width="1"/>
            <path id="Trazado_116776" data-name="Trazado 116776" d="M273.144,152.8s.667,7.838,2.168,10.007a7.962,7.962,0,0,0,3.168,2.835s-2.168,4-5.336,5-6.838-1-7.839-3.168a8.541,8.541,0,0,1-.334-5.671C265.3,160.973,273.144,152.8,273.144,152.8Z" transform="translate(-263.249 -130.33)" fill="#fff" stroke="#263238" stroke-linecap="round" stroke-linejoin="round" stroke-width="1"/>
            <path id="Trazado_116777" data-name="Trazado 116777" d="M283.625,153.465a34.6,34.6,0,0,1-1.867-7.147" transform="translate(-265.331 -129.541)" fill="#fff" stroke="#263238" stroke-linecap="round" stroke-linejoin="round" stroke-width="1"/>
            <path id="Trazado_116778" data-name="Trazado 116778" d="M286.818,159.892a17.082,17.082,0,0,1-1.783-2.836" transform="translate(-265.729 -130.847)" fill="#fff" stroke="#263238" stroke-linecap="round" stroke-linejoin="round" stroke-width="1"/>
            <path id="Trazado_116779" data-name="Trazado 116779" d="M285.948,151.625a18.051,18.051,0,0,1,1.962,4.908" transform="translate(-265.84 -130.187)" fill="#fff" stroke="#263238" stroke-linecap="round" stroke-linejoin="round" stroke-width="1"/>
          </g>
        </g>
      </g>
      <g id="Hand_1" data-name="Hand 1" transform="translate(85.81 116.044)">
        <path id="Trazado_116780" data-name="Trazado 116780" d="M195.105,333.941a31.808,31.808,0,0,0-1.042,3.2c-.116-.261-.243-.516-.376-.769q.743-1.192,1.418-2.428Zm-41.057-35.693a11.263,11.263,0,0,1-4.4.816c-.307-.013-.552.5-.534.878-.649-.506-1.3-1.014-1.933-1.534a34.555,34.555,0,0,1,6.868-.161Zm8.688-1.884a12.574,12.574,0,0,1-2.36.472c-.09.011-.182.016-.273.028a11.221,11.221,0,0,1,2.633-.5ZM187.5,168.949c-2.59-.212-5.238-.657-7.836-.63-1.958.018-3.877.656-5.84.532-1.376-.086-1.762-1.309-1.767-2.455-.009-1.49-.076-2.951-.178-4.439-.755-11,.282-22.36.174-33.443,13.154,1.568,25.976,2.1,39.524,4.013.65.092,1.3.194,1.947.29a37.9,37.9,0,0,1,.43,4.506c.215,2.782.4,5.56.528,8.349.227,5.121-.06,10.225.065,15.342a39.585,39.585,0,0,1-.213,5.977,7.051,7.051,0,0,1-.843,2.765c-.688,1.146-2.481.957-3.576.839a53.758,53.758,0,0,1-5.9-1.383c-2.438-.546-5.036-.1-7.5-.064-.574.007-8.937-.191-9.016-.2Zm48.221,79.691c-.558-.325-1.106-.664-1.652-1-.017-.027-.025-.054-.043-.082-1.5-2.337-4.613-3.89-6.9-5.309-1.638-1.015-3.386-1.935-5.051-2.955-.771-.533-1.547-1.061-2.335-1.571-.362-.236-.712.849-.432,1.065a36.931,36.931,0,0,0,3.22,2.189c3.686,2.585,7.269,5.323,11.086,7.709a1.669,1.669,0,0,1,.086.225.271.271,0,0,1-.044.2c-5.675.9-11.785-1.7-17.239-2.75-3.6-.692-7.3-.415-10.943-.49-2.261-.047-4.517-.157-6.77-.354-1.007-.087-2.012-.206-3.015-.327-.159-.019-.475-.01-.816-.01-.079-7.751-.25-15.5-.6-23.242-.289-6.333-.326-12.628-.169-18.965.054-2.142.131-4.288.2-6.435,2.124,1.328,31.923,2.84,34.308,2.821-5.207,1.105-12.1,2.361-13.525,7.945-.088.344.054.643.237.182,2.176-5.491,10.149-6.173,15.081-7.38.278-.068.393-.467.393-.785.318-.016.57-.966.3-1.138-.367-.238-.743-.463-1.122-.683-2.567-3.67-8.947-4.136-11.791-7.536-.261-.3-.709.8-.453,1.1,2.974,3.472,7.181,4.976,11.061,7.116-1.583.013-33.047-1.571-34.467-2.454.117-3.864.186-7.731,0-11.584-.12-2.544-.415-5.082-.666-7.617-.193-1.956-.17-4.042-.37-6.042.327,0,.653.011.981.008,3-.028,6.051-.507,9.036-.089,2.569.36,7.877,3.187,10.1.719,1.987-2.207,1.863-5.941,1.882-8.708.033-4.742.125-9.51.016-14.251-.087-3.773-.246-7.574-.632-11.328-.138-1.334-.177-2.633-.366-3.895.5.075.992.141,1.486.222a8.33,8.33,0,0,1,1.972.309c.13.214.549-.682.377-.962-.189-.311-1.082-.38-1.382-.432-.906-.159-1.814-.293-2.723-.424a8.353,8.353,0,0,0-.964-2.309c-.162-.261-.61.694-.457.96a7.461,7.461,0,0,1,.539,1.223l-.567-.081c-14.085-1.986-26.079-3.686-40.552-3.346-.019-1.06-.065-2.115-.171-3.158-.012-.126-.171.327-.179.4-.014.151-.042.3-.063.451.032-.213.041-.211-.007.3a305.773,305.773,0,0,0-.572,31.908c.106,2.787.487,5.6.409,8.388-.034,1.265-.052,2.748,1.291,3.373,1.517.705,3.574.075,5.154-.125,2.81-.355,5.753.21,8.556.468,2.089.193,4.178.336,6.274.376.019,1.237.076,2.475.154,3.709.219,3.479.623,6.943.8,10.426.313,6.266-.125,12.591-.318,18.856-.394,12.818.517,25.6.7,38.419.057,4.233.093,12.583.078,20.208-6.164,1.243-10.242,0-16.524-.235-7.523-.28-15.025-1.574-22.549-.915a23.828,23.828,0,0,1,5.92-2.3,29.4,29.4,0,0,1,7.583-1.379c.4-.007.662-1.234.158-1.23-6.217.055-13.981.9-18.87,5.138-.2.172-.558.917-.228,1.129,3.221,2.07,6.853,3.276,10.283,4.935,2.733,1.32,4.992,4.718,8.267,4.4.285-.028.458-1.034.214-1.025-2.922.108-5.15-3.014-7.579-4.317-3.269-1.756-6.835-2.828-10.034-4.72a20.662,20.662,0,0,1,7.385-3.219,12.25,12.25,0,0,0-4.878,2.882c-.163.176-.484,1.181.02,1.117,8.477-1.073,16.977.523,25.459.737,3.52.09,12.91,1.827,15.373-.566-.012,6.087-.042,12.173-.052,18.258-.009,6.527-.444,13.006-.849,19.514-.016.281-.023.563-.04.843a91.932,91.932,0,0,1-9.531-.127c-11.089-.3-18.411-1.346-30.441-1.333a35.676,35.676,0,0,0,3.393-1.413c2.523,0,6.305.083,7.814-2.008.107-.148.483-1.039.071-1.087-2.817-.316-5.268.792-7.714,1.907-.686.014-1.371.021-2.054.025-2.792.011-6-.38-8.708.435-.316.094-.576.9-.3,1.134,3.092,2.664,6.468,4.966,9.389,7.83,2.19,2.145,4.392,3.846,7.554,3.766.216-.005.386-.791.217-.808-3.253-.36-5.626-2.4-7.87-4.6a58.741,58.741,0,0,0-5.21-4.37c.232.074,31.682,1.644,34.247,1.689,2.523.047,6.684.348,9.116-.44-.292,5.624-.286,11.256-.625,16.878a123.753,123.753,0,0,0-.28,15.533,50.526,50.526,0,0,0-6.9-6.882l.345,0c.415,0,.631-1.144.307-1.147l-1.952-.016c-.426,0-.6.855-.384,1.138,2.8,3.581,8.481,7.253,10.1,11.687.193.531.615-.442.641-.582.916-4.834,3.7-9.062,4.663-13.892l.008-.025h0c.011-.057.025-.113.036-.17.143-.758-.5-.546-.668,0a49.239,49.239,0,0,1-5.217,11.34c-.023-.037-.045-.076-.069-.115-.628-6.156-.153-12.352.213-18.511.363-6.1.34-12.66.705-18.333.81-12.608.8-25.18.825-37.812q.014-7.4-.043-14.812a68.051,68.051,0,0,0,11.048.967c3.618.083,7.169-.086,10.738.6,4.644.9,9.675,2.891,14.554,2.841-.868.328-1.683.585-1.9.66a22.862,22.862,0,0,0-3.714,1.411c-2.027,1.089-3.68,2.835-5.614,4.081-.194.124-.377,1.018-.148.918,2.159-.953,3.774-2.675,5.765-3.91,1.563-.969,3.564-1.3,5.269-1.957a9.221,9.221,0,0,0,2.451-1.357,13.449,13.449,0,0,0,2.164-.5C235.82,249.667,236.055,248.832,235.723,248.64Z" transform="translate(-97.646 -124.914)" fill-rule="evenodd"/>
        <path id="Trazado_116781" data-name="Trazado 116781" d="M287.738,221.708c-.005,1.731-9.1-.447-10.447-.694-7.354-1.348-14.48-3.4-21.915-4.362a55.2,55.2,0,0,0-7.437-.581c-.464,0-.95.005-1.441.026a77.351,77.351,0,0,0,.5-9.562c0-2.169-.095-4.337-.237-6.5-.109-1.652-.858-3.254-1.173-4.873a.614.614,0,0,1,.072-.459,2.364,2.364,0,0,1,.419,1.841.949.949,0,0,0,.054-.172,3.843,3.843,0,0,0-.128-1.951c1.066-.5,3.8.016,4.444.105,2.582.358,5.206.491,7.807.647a100.649,100.649,0,0,1,17.114,2.257c3.781.882,8.383,2.126,12.153.6.964-.39.833,6.108.784,6.731-.2,2.469-.632,4.915-.9,7.376-.353,3.221.35,6.351.338,9.569ZM245.322,219.8c.168-.813.309-1.632.433-2.452-.281.022-.56.051-.833.095a12.617,12.617,0,0,0,.4,2.358Zm-.255-12.95c.451,3.142-.235,6.281-.2,9.4.349-.059.7-.092,1.056-.119a65.4,65.4,0,0,0,.471-6.6c.07-2.977.379-6.409-.22-9.339-.323-1.575-1.606-3.94-1.129-5.58.009-.032.027-.054.038-.084-.413.115-.835.741-1.018,2.08a15.642,15.642,0,0,0-.009,3.786c.234,2.171.7,4.3,1.012,6.459Zm43.193-10.092c-.055-.147-.177-.136-.292-.078-2.664,1.338-5.964.791-8.778.3-3.226-.566-6.369-1.506-9.6-2.033a106.557,106.557,0,0,0-11.748-.971c-3.131-.158-6.223-.541-9.342-.794a3.789,3.789,0,0,0-3,.654c-.38-.1-.839.356-.985.637a12.729,12.729,0,0,0-.881,7.176c.157,1.608.461,3.2.725,4.8a24.167,24.167,0,0,1,.047,6.056c-.106,1.3-.189,2.6-.177,3.891a5,5,0,0,0-2.146,1.072c-.282.251-.287,1.483.127,1.118a4.8,4.8,0,0,1,2.063-1,14.483,14.483,0,0,0,.779,4c.148.412.508-.26.54-.394.312-1.278.552-2.571.745-3.872,1.329-.051,2.675.068,3.744.129,2.9.166,5.783.592,8.658.973,8.243,1.094,16.2,3.826,24.435,5,1.319.187,4.5.737,5.094-1.015.686-2.005-.061-4.8-.251-6.848C287.441,209.324,290.586,202.86,288.26,196.758Z" transform="translate(-109.352 -133.211)" fill-rule="evenodd"/>
        <path id="Trazado_116782" data-name="Trazado 116782" d="M141.263,237.62c-.005,1.731-9.1-.446-10.447-.693-7.354-1.349-14.481-3.4-21.915-4.363a55.214,55.214,0,0,0-7.437-.582c-.464,0-.95.006-1.441.026a77.35,77.35,0,0,0,.5-9.562c0-2.169-.095-4.336-.237-6.5-.109-1.652-.858-3.254-1.173-4.873a.614.614,0,0,1,.072-.459,2.364,2.364,0,0,1,.419,1.841.949.949,0,0,0,.054-.172,3.842,3.842,0,0,0-.128-1.951c1.066-.5,3.8.016,4.444.105,2.582.358,5.206.491,7.806.647a100.647,100.647,0,0,1,17.115,2.258c3.782.881,8.383,2.125,12.153.6.964-.391.833,6.107.784,6.73-.2,2.469-.632,4.915-.9,7.376-.353,3.221.35,6.351.338,9.569Zm-42.417-1.907c.168-.814.309-1.633.432-2.453-.28.022-.559.052-.832.095a12.636,12.636,0,0,0,.4,2.358Zm-.255-12.951c.451,3.142-.236,6.281-.2,9.4.348-.06.7-.093,1.056-.12a65.4,65.4,0,0,0,.471-6.6c.07-2.976.379-6.408-.22-9.339-.323-1.575-1.607-3.94-1.129-5.58.009-.032.027-.054.038-.084-.413.115-.835.74-1.018,2.08a15.642,15.642,0,0,0-.009,3.786c.234,2.171.7,4.3,1.012,6.459Zm43.193-10.092c-.055-.147-.177-.136-.292-.078-2.665,1.338-5.964.791-8.778.3-3.226-.566-6.369-1.506-9.6-2.034a106.572,106.572,0,0,0-11.748-.972c-3.131-.158-6.223-.541-9.342-.793a3.785,3.785,0,0,0-3,.654c-.38-.1-.839.356-.985.637a12.721,12.721,0,0,0-.881,7.176c.157,1.608.461,3.2.725,4.8a24.169,24.169,0,0,1,.047,6.056c-.107,1.3-.189,2.6-.177,3.891a5,5,0,0,0-2.146,1.072c-.282.251-.287,1.484.127,1.118a4.79,4.79,0,0,1,2.062-1,14.517,14.517,0,0,0,.78,4c.148.412.508-.26.54-.394.311-1.278.553-2.571.745-3.872,1.329-.051,2.675.068,3.744.129,2.9.166,5.783.592,8.658.973,8.242,1.094,16.2,3.826,24.435,5,1.319.188,4.5.737,5.094-1.015.686-2-.062-4.8-.251-6.848C140.966,225.236,144.11,218.772,141.785,212.67Z" transform="translate(-91.54 -135.146)" fill-rule="evenodd"/>
        <path id="Trazado_116783" data-name="Trazado 116783" d="M292.275,271.573c-2,.948-4.511.712-6.634.5-2.515-.249-4.995-.486-7.52-.6q-1.756-.083-3.508-.108a12.8,12.8,0,0,0-2.4-2.48c-.311-.24-.547.458-.566.654-.054.606-.094,1.214-.128,1.822-5.915.088-11.746.91-17.754,1.135a108.619,108.619,0,0,0-3.236-25c5.241,2.77,25.717,1.952,32.867,2.107q1.893.043,3.787.066,1.136.013,2.272.018c.94,0,.585,1.2.575,1.724-.094,5.313-.365,9.437,1.134,14.663.36,1.252,2.773,4.711,1.109,5.5Zm-20.1-.224c.329,0,.613,0,1.011,0a11.8,11.8,0,0,0-.954-.918c-.021.307-.04.612-.057.919Zm-.784,21.739c-.631-3.293.288-6.922.5-10.186s.13-6.551.219-9.822c.2,6.678-.319,13.342-.719,20.008Zm-19.636-30.732c.543,2.8,1.087,5.6,1.49,8.422a87.95,87.95,0,0,0-2.854-22c-.917-.851-.555.1-.489,1.034.1,1.407.234,2.809.422,4.208.376,2.8.893,5.571,1.432,8.34Zm41.885,7.43a11,11,0,0,0-1.193-2.706c-2.53-4.955-1.781-12.821-1.762-18.214,0-.08-.022-.353-.157-.353-8.662-.009-33.667.634-40.351-2.185-.207-.09-.321.656-.284.771.136.431.26.864.386,1.3l-.571-.6s-.067.2-.07.22c-.651,4.869.7,10.238,1.6,15.007.6,3.168,1.186,6.329,1.581,9.515-2.579.142-6.3.493-7.278,3.339-.17.5.138,1.221.436.449.878-2.276,4.864-2.41,6.982-2.53.185,1.747.312,3.5.333,5.271.01.76.591-.065.588-.453q-.021-2.431-.082-4.864c5.547-.18,10.838-.941,16.144-1.131.478-.015.959-.019,1.44-.031-1.218,1.6-2.534,3.121-3.878,4.618.922-1.262,1.868-2.508,2.876-3.7.053-.062.042-.256.066-.281a129.745,129.745,0,0,0-9.867,12.261c-.135.2-.285,1.25.1.8,3.488-4.019,7.589-8.594,10.754-12.712-.1,3.715,0,7.437-.342,11.144-.336,3.61-1.185,7.554.206,11.042.218.546.615-.562.623-.723.375-7.491,1.043-14.974.768-22.478.492-.006.984,0,1.477,0,2.351,3.23,3.458,7.327,6.2,10.335.266.291.663-.786.436-1.067-2.247-2.765-3.458-6.271-5.351-9.257,2.282.037,4.565.145,6.815.363C284.845,273.182,294.69,275.082,293.641,269.787Z" transform="translate(-109.791 -139.677)" fill-rule="evenodd"/>
        <path id="Trazado_116784" data-name="Trazado 116784" d="M297.456,301.247c-.007-.107-.05-.443-.247-.362-11.629,4.853-43.937,1.208-56.631-.279-.288-.2-.433.545-.445.7-.791,9.46,1.077,17.243,1.148,26.619.007.74.564-.074.562-.443,0-.776-.025-1.552-.054-2.327-.217-7.834-1.686-15.459-1.207-23.332,12.646.145,44.679,5.075,56.231.35.072,2.114.077,21.07-1.523,21.506-5.234,1.422-48.23-4.307-50.786,1.471-.139.316.028,1.137.316.532,2.482-5.187,50.824,2.453,52.451-2.444C297.295,323.17,297.5,302.023,297.456,301.247Z" transform="translate(-109.116 -146.274)" fill-rule="evenodd"/>
        <path id="Trazado_116785" data-name="Trazado 116785" d="M171.2,228.347c-5.17-.661-11.135,1.015-15.751-2.041l0,.015c-.163-.02-.357.631-.244.769a5.569,5.569,0,0,0,3.06,1.737,9.641,9.641,0,0,1,.952.772c-.015-.014.133-.254.081-.3-.125-.115-.258-.22-.386-.331a25.74,25.74,0,0,0,3.285.346c11.352.692,21.513,2.981,32.629,2.2C195.3,230.915,174.918,228.822,171.2,228.347Z" transform="translate(-98.807 -137.243)" fill-rule="evenodd"/>
        <path id="Trazado_116786" data-name="Trazado 116786" d="M141.706,325.279c-.1,1.316-.143,2.618-.161,3.941a14.189,14.189,0,0,1-.269,3.921c-13.419-.106-27.722,1.485-41.014,2.741a28.636,28.636,0,0,1-7.3-.148.215.215,0,0,1,.005-.023c.772-6.1-.757-16.445-.589-23.43.7-2.5,46.586-.19,52.251-1.968a72.98,72.98,0,0,0-2.92,14.965Zm-13.326,52.4c.929-.084,8.657-1.35,8.645-.267-.019,1.654-.329,21.645-.524,22.079-9.686,2.316-29.181,2.152-40.467,3.277a34.014,34.014,0,0,1-1.151-5.663,74.755,74.755,0,0,1-.429-7.473,66.526,66.526,0,0,0-.417-8.964c.96-.274,31.086-2.689,34.343-2.989Zm16.885-68.766c-8.064,2.927-51.348-1.795-52.888,3.251a14.4,14.4,0,0,1,.466-2.857c.006-.078-.332-.086-.4-.095-.864-.108-.272,22.475.05,26.5a5.135,5.135,0,0,0-1.222.1c-.167.035-.372,1.136-.206,1.157,9.654,1.232,11.677-.263,23.451-1.783,0,.134.015.267.018.4-.981,1.4-2.324,4.138-2.54,4.492a41.065,41.065,0,0,0-4.3,10.807c-.264.889-.495,1.79-.684,2.7-.009.032-.017.064-.024.1h0c-.01.051-.022.1-.033.148-.126.634.393.468.505-.021q.306-1.331.654-2.647c1.466-5.016,4.088-9.654,6.475-14.292.153,2.652.535,5.267.9,7.923.574,4.229.3,8.688.266,12.946-.045,6.607-.19,13.38.846,19.947-.468.087-.939.178-1.411.278-6.794,1.427-16.751.473-21.229,2.247a14.513,14.513,0,0,0-.772-2.754,1.782,1.782,0,0,0-.1.3c.043,1.445.529,3.673.685,6.161.143,2.271.145,4.55.185,6.824.027,1.553.549,12.536,1.5,12.872.188.067,38.028-.755,43.46-3.939.3-.177.461-1.327,0-1.073a8.674,8.674,0,0,1-1.724.7c.062-.178.471-21.518.486-23.093,0-.094-.025-.35-.166-.363-3.637-.31-7.215.6-10.836.784a79.805,79.805,0,0,0-9.2.907c-1.121-7.161-1.069-14.412-1.074-21.671a85.236,85.236,0,0,0-.4-11.737c-.3-2.106-.708-4.191-.981-6.3-.065-.5-.113-1-.154-1.5l.042-.084c1.492,5.819,6.606,9.936,9.712,14.9.189.3.577-.73.471-.979-2.416-5.609-8.359-8.852-9.734-15.057,5.893,1.493,20.8-1.268,26.528-.7.463.045.731-1.2.331-1.236-.083-.008-.163-.01-.244-.016a22.372,22.372,0,0,0,.3-5.687,64.42,64.42,0,0,1,3.218-17.86C145.534,309.49,145.6,308.8,145.265,308.917Z" transform="translate(-91.005 -147.287)" fill-rule="evenodd"/>
        <path id="Trazado_116787" data-name="Trazado 116787" d="M258.713,382.019a22.687,22.687,0,0,1,6.551,6.008c-.913.376-1.881.695-2.861,1.009.173-2.4-1.557-4.549-3.018-6.283-.215-.255-.45-.488-.672-.734Zm7.554,5.774c-3.1-5.433-9.409-7.61-13.749-11.814-.3-.292-.727.82-.45,1.093,1.716,1.691,3.541,3.265,5.23,4.984,1.6,1.629,4.382,4.266,4.5,6.823A64.074,64.074,0,0,1,246.67,387.6c-4.078-.727-8.2-1.758-12.342-2.182a69.546,69.546,0,0,1,1.01-8.367c.769-4.243,2.8-8.247,2.013-12.64-.011-.063-.061-.23-.157-.23-12.178.005-25.279,1.086-37.728,1.535-10.4.374-20.1,1.1-30.568.977.041-.284.077-.568.122-.85s-.1-.008-.128.1c-.061.248-.11.5-.164.745a4.57,4.57,0,0,1-1.284-.194c-.06-.018-.211.46-.133.492a6.63,6.63,0,0,0,1.276.334c-1.448,7.364-1.432,42.7.079,46.068a31.482,31.482,0,0,0,3.146.684c12.953,3.592,41.823,2.611,56.061,2.8,3.063.04,6.514-.125,9.167-1.824.306-.2.491-1.4-.013-1.124-5.426,2.975-51.9,1.334-62.882-.473-4.432-.732-5.607-1.361-5.823-5.7-.509-10.442-.756-30.683.482-40.394,6,.894,16.1.531,22.1.054,13.293-1.057,32.186-2.014,45.208-2.025,1.753,0,.414,4.682.184,5.575-5.26,20.467.94,31.287-2.53,42.7-.107.352.077.661.248.188,2.552-7.12.632-14.856.272-22.2-.087-1.768-.083-3.548,0-5.327,4.243.908,8.522,1.723,12.782,2.506a66.264,66.264,0,0,0,12.253,1.271,11.929,11.929,0,0,0-3.973,2.384c-2.272,2.188-4.991,3.895-5.558,7.2-.083.491.22.315.3-.04.635-2.628,3.811-5,5.9-6.552,2.941-2.176,6.678-2.7,9.923-4.243A.92.92,0,0,0,266.268,387.793Z" transform="translate(-100.281 -154.01)" fill-rule="evenodd"/>
      </g>
    </g>
    <g id="Grupo_111857" data-name="Grupo 111857" transform="translate(209.903 3068.599)">
      <g id="Grupo_111541" data-name="Grupo 111541" transform="translate(58.498 0)">
        <path id="Trazado_116402" data-name="Trazado 116402" d="M2946.437,769.617a.5.5,0,0,1-.458.1c-.641-.174-1.288-.334-1.923-.478a.5.5,0,1,1,.22-.977c.648.146,1.309.31,1.964.487a.5.5,0,0,1,.353.614A.49.49,0,0,1,2946.437,769.617Z" transform="translate(-2943.666 -768.255)" fill="#91b3fa"/>
        <path id="Trazado_116403" data-name="Trazado 116403" d="M3019.971,870c-.887.763-1.811,1.5-2.748,2.193a.5.5,0,1,1-.6-.8c1.078-.8,2.135-1.655,3.146-2.545l0,0a.5.5,0,0,1,.658.756Q3020.205,869.8,3019.971,870Zm5.122-5.133a.5.5,0,0,1-.706-.706c.873-1.02,1.714-2.091,2.5-3.183a.5.5,0,1,1,.813.585c-.8,1.115-1.661,2.208-2.552,3.25A.45.45,0,0,1,3025.093,864.867ZM3031.12,856a.5.5,0,0,1-.769-.614c.629-1.19,1.214-2.42,1.738-3.654a.5.5,0,1,1,.922.392c-.534,1.26-1.132,2.515-1.774,3.73A.5.5,0,0,1,3031.12,856Zm3.918-9.971a.5.5,0,0,1-.811-.509c.347-1.3.643-2.624.877-3.948a.5.5,0,1,1,.986.175c-.24,1.353-.541,2.71-.9,4.033A.5.5,0,0,1,3035.038,846.033Zm1.59-10.592a.5.5,0,0,1-.827-.4c.049-1.341.041-2.7-.025-4.046a.5.5,0,1,1,1-.049c.067,1.372.075,2.762.025,4.132A.5.5,0,0,1,3036.628,835.441Zm-.8-10.684a.5.5,0,0,1-.818-.287c-.25-1.323-.559-2.649-.919-3.941a.5.5,0,0,1,.966-.269c.366,1.32.682,2.674.937,4.024A.5.5,0,0,1,3035.824,824.757Zm-3.145-10.244a.5.5,0,0,1-.786-.18c-.535-1.233-1.13-2.458-1.768-3.64a.5.5,0,1,1,.882-.476c.651,1.207,1.259,2.458,1.805,3.717A.5.5,0,0,1,3032.678,814.513Zm-5.342-9.291-.03.024a.5.5,0,0,1-.7-.107c-.7-.956-1.452-1.9-2.224-2.795q-.155-.18-.312-.358a.5.5,0,0,1,.046-.707l0,0a.5.5,0,0,1,.7.049q.161.182.318.366c.789.917,1.553,1.878,2.272,2.854A.5.5,0,0,1,3027.337,805.222Zm-7.283-7.86a.5.5,0,0,1-.653,0c-1.016-.875-2.085-1.719-3.177-2.509a.5.5,0,0,1,.587-.812c1.115.806,2.205,1.668,3.243,2.561a.5.5,0,0,1,.052.707A.507.507,0,0,1,3020.054,797.362Zm-8.846-6.052a.5.5,0,0,1-.562.063c-1.19-.633-2.418-1.221-3.65-1.748a.5.5,0,1,1,.394-.921c1.258.538,2.511,1.138,3.726,1.785a.5.5,0,0,1,.207.678A.492.492,0,0,1,3011.208,791.31Z" transform="translate(-2998.474 -786.001)" fill="#91b3fa"/>
        <path id="Trazado_116404" data-name="Trazado 116404" d="M3027.158,1450.67a.509.509,0,0,1-.089.061c-.6.324-1.2.636-1.8.927a.5.5,0,0,1-.44-.9c.583-.285,1.176-.591,1.762-.908a.5.5,0,0,1,.566.82Z" transform="translate(-3014.003 -1360.919)" fill="#91b3fa"/>
      </g>
      <g id="Grupo_111542" data-name="Grupo 111542" transform="translate(0 2.797)">
        <path id="Trazado_116405" data-name="Trazado 116405" d="M2739.692,1473.853a.5.5,0,0,1-.479.1c-.636-.2-1.281-.422-1.916-.653a.5.5,0,0,1,.343-.941c.622.227,1.253.442,1.876.639a.5.5,0,0,1,.326.629A.5.5,0,0,1,2739.692,1473.853Z" transform="translate(-2705.424 -1383.315)" fill="#91b3fa"/>
        <path id="Trazado_116406" data-name="Trazado 116406" d="M2521.452,904.241a.5.5,0,0,1-.561.063c-1.19-.629-2.372-1.318-3.512-2.048a.5.5,0,1,1,.541-.844c1.117.715,2.274,1.39,3.44,2.007a.5.5,0,0,1,.209.677A.508.508,0,0,1,2521.452,904.241Zm-8.732-5.912a.5.5,0,0,1-.651,0c-1.031-.876-2.035-1.8-2.985-2.761a.5.5,0,1,1,.711-.706c.93.936,1.914,1.846,2.923,2.7a.5.5,0,0,1,.057.706A.549.549,0,0,1,2512.719,898.329Zm-7.231-7.677-.026.021a.5.5,0,0,1-.7-.1c-.811-1.079-1.585-2.206-2.3-3.35a.5.5,0,0,1,.848-.533c.7,1.121,1.462,2.225,2.256,3.281A.5.5,0,0,1,2505.489,890.652Zm-5.365-9.078a.491.491,0,0,1-.122.077.5.5,0,0,1-.662-.251c-.554-1.23-1.063-2.5-1.513-3.773a.5.5,0,0,1,.945-.334c.44,1.248.939,2.491,1.482,3.7A.5.5,0,0,1,2500.123,881.574Zm-3.251-10.03a.494.494,0,0,1-.225.11.5.5,0,0,1-.592-.389c-.273-1.322-.494-2.671-.656-4.012a.5.5,0,0,1,.995-.12c.158,1.313.375,2.635.642,3.929A.5.5,0,0,1,2496.872,871.545Zm-.992-10.5a.5.5,0,0,1-.827-.388c.022-1.351.1-2.716.234-4.058a.5.5,0,0,1,1,.1c-.132,1.314-.209,2.651-.23,3.974A.5.5,0,0,1,2495.88,861.049Zm1.327-10.455a.5.5,0,0,1-.814-.5c.317-1.313.694-2.628,1.12-3.909a.5.5,0,1,1,.951.317c-.417,1.253-.786,2.541-1.1,3.827A.5.5,0,0,1,2497.206,850.593Zm3.594-9.91a.5.5,0,0,1-.775-.6c.6-1.206,1.251-2.406,1.949-3.566a.5.5,0,1,1,.858.516c-.684,1.137-1.326,2.312-1.91,3.494A.492.492,0,0,1,2500.8,840.683Zm5.668-8.891a.5.5,0,0,1-.717-.694c.849-1.056,1.75-2.086,2.677-3.06a.5.5,0,0,1,.726.691c-.909.955-1.791,1.963-2.621,3A.513.513,0,0,1,2506.468,831.792Zm10.72-9.816a.441.441,0,0,1-.05.037c-1.1.734-2.183,1.524-3.216,2.347a.5.5,0,0,1-.7-.079.5.5,0,0,1,.08-.7c1.054-.841,2.16-1.647,3.284-2.4a.5.5,0,0,1,.6.8Z" transform="translate(-2495.052 -817.003)" fill="#91b3fa"/>
        <path id="Trazado_116407" data-name="Trazado 116407" d="M2704.79,790.592a.5.5,0,0,1-.128.08c-.608.264-1.214.542-1.8.826a.5.5,0,0,1-.437-.9c.6-.29,1.218-.574,1.839-.843a.5.5,0,0,1,.526.839Z" transform="translate(-2675.139 -789.711)" fill="#91b3fa"/>
      </g>
      <g id="Grupo_111545" data-name="Grupo 111545" transform="translate(11.697 10.426)">
        <path id="Trazado_116408" data-name="Trazado 116408" d="M2611.186,849.7a.575.575,0,0,0-.467.477l-1.084,6.917a30.5,30.5,0,0,0-8.323,5.324l-6.73-1.911a.576.576,0,0,0-.629.224l-4.8,6.889a.576.576,0,0,0,.007.668l4.123,5.653a30.474,30.474,0,0,0-2.115,9.652l-6.115,3.41a.574.574,0,0,0-.286.6l1.476,8.267a.575.575,0,0,0,.477.467l6.917,1.083a30.491,30.491,0,0,0,5.324,8.324l-1.911,6.731a.574.574,0,0,0,.224.629l6.889,4.8a.574.574,0,0,0,.667-.007l5.654-4.122a30.491,30.491,0,0,0,9.651,2.115l3.41,6.115a.574.574,0,0,0,.6.286l8.267-1.476a.576.576,0,0,0,.467-.477l1.083-6.917a30.488,30.488,0,0,0,8.323-5.324l6.731,1.911a.575.575,0,0,0,.629-.224l4.8-6.889a.575.575,0,0,0-.008-.668l-4.122-5.653a30.487,30.487,0,0,0,2.114-9.652l6.115-3.41a.576.576,0,0,0,.286-.6l-1.476-8.267a.575.575,0,0,0-.477-.467l-6.917-1.084a30.5,30.5,0,0,0-5.324-8.324l1.911-6.73a.575.575,0,0,0-.224-.629l-6.889-4.8a.575.575,0,0,0-.668.007l-5.654,4.122a30.5,30.5,0,0,0-9.652-2.115l-3.41-6.114a.575.575,0,0,0-.6-.286Z" transform="translate(-2584.755 -848.215)" fill="#b9ddfc"/>
        <g id="Grupo_111543" data-name="Grupo 111543" transform="translate(28.832 28.832)">
          <path id="Trazado_116409" data-name="Trazado 116409" d="M2819.44,1083.755a8.237,8.237,0,0,1-1.986,1.262,8.16,8.16,0,1,1,1.986-1.262Zm-9.743-11.3a6.669,6.669,0,0,0-1.891,2.709h0a6.665,6.665,0,1,0,1.891-2.709Zm-2.594,2.444,0,0Z" transform="translate(-2805.865 -1069.324)" fill="#fff"/>
        </g>
        <g id="Grupo_111544" data-name="Grupo 111544" transform="translate(16.083 16.25)">
          <path id="Trazado_116410" data-name="Trazado 116410" d="M2742.806,1009.735a21.016,21.016,0,0,1-30.947-27.949c.1-.144.2-.287.307-.429a21.215,21.215,0,0,1,2.325-2.667c.1-.1.2-.19.3-.284l1.024,1.1a19.666,19.666,0,0,0-2.722,3.139l-.023.032a19.5,19.5,0,1,0,17.387-8.343l.1-1.5a21.021,21.021,0,0,1,12.247,36.9Z" transform="translate(-2708.092 -972.836)" fill="#fff"/>
        </g>
      </g>
    </g>
    <g id="Grupo_111858" data-name="Grupo 111858" transform="translate(194.793 3032.569)">
      <g id="Grupo_111547" data-name="Grupo 111547" transform="translate(35.159 0)">
        <path id="Trazado_116411" data-name="Trazado 116411" d="M2650.477,492.767a.3.3,0,0,1-.275.063c-.386-.1-.774-.2-1.156-.287a.3.3,0,0,1,.132-.587c.39.088.788.186,1.181.293a.3.3,0,0,1,.118.519Z" transform="translate(-2648.811 -491.948)" fill="#91b3fa"/>
        <path id="Trazado_116412" data-name="Trazado 116412" d="M2694.673,553.1c-.533.458-1.088.9-1.652,1.318a.3.3,0,0,1-.358-.484c.648-.48,1.283-.995,1.891-1.53l0,0a.3.3,0,0,1,.4.454Zm3.078-3.085a.3.3,0,0,1-.424-.424c.525-.613,1.03-1.257,1.5-1.913a.3.3,0,1,1,.489.351c-.482.67-1,1.327-1.534,1.953A.327.327,0,0,1,2697.751,550.015Zm3.623-5.327a.3.3,0,0,1-.462-.369c.378-.715.729-1.454,1.045-2.2a.3.3,0,1,1,.554.235c-.321.757-.68,1.512-1.067,2.242A.3.3,0,0,1,2701.373,544.688Zm2.355-5.993a.3.3,0,0,1-.487-.306c.208-.779.386-1.577.527-2.373a.3.3,0,0,1,.593.105c-.145.813-.326,1.629-.539,2.424A.3.3,0,0,1,2703.728,538.7Zm.955-6.366a.3.3,0,0,1-.5-.239c.03-.806.025-1.624-.014-2.432a.3.3,0,1,1,.6-.029c.041.825.045,1.66.015,2.483A.3.3,0,0,1,2704.683,532.329Zm-.483-6.422a.3.3,0,0,1-.492-.173c-.151-.795-.336-1.592-.552-2.369a.3.3,0,1,1,.58-.161c.221.793.411,1.607.564,2.418A.3.3,0,0,1,2704.2,525.907Zm-1.89-6.157a.336.336,0,0,1-.077.048.3.3,0,0,1-.4-.156c-.322-.741-.679-1.477-1.063-2.188a.3.3,0,1,1,.53-.286c.392.726.757,1.477,1.086,2.234A.3.3,0,0,1,2702.31,519.751Zm-3.211-5.584-.018.014a.3.3,0,0,1-.421-.064c-.423-.575-.872-1.14-1.337-1.68l-.187-.215a.3.3,0,0,1,.027-.425l0,0a.3.3,0,0,1,.423.029l.191.22c.474.551.934,1.128,1.365,1.715A.3.3,0,0,1,2699.1,514.166Zm-4.377-4.724a.3.3,0,0,1-.392,0c-.611-.526-1.253-1.033-1.909-1.508a.3.3,0,0,1,.352-.488c.671.485,1.326,1,1.95,1.539a.3.3,0,0,1,0,.457Zm-5.317-3.637a.3.3,0,0,1-.337.038c-.715-.381-1.454-.734-2.194-1.051a.3.3,0,1,1,.237-.553c.756.323,1.51.684,2.24,1.073a.3.3,0,0,1,.124.407A.3.3,0,0,1,2689.405,505.8Z" transform="translate(-2681.752 -502.614)" fill="#91b3fa"/>
        <path id="Trazado_116413" data-name="Trazado 116413" d="M2698.991,902.1a.332.332,0,0,1-.052.037c-.36.195-.723.382-1.081.557a.3.3,0,0,1-.265-.541c.35-.171.706-.355,1.058-.546a.3.3,0,0,1,.34.493Z" transform="translate(-2691.085 -848.157)" fill="#91b3fa"/>
      </g>
      <g id="Grupo_111548" data-name="Grupo 111548" transform="translate(0 1.682)">
        <path id="Trazado_116414" data-name="Trazado 116414" d="M2526.216,916.035a.3.3,0,0,1-.288.059c-.382-.121-.769-.253-1.151-.392a.3.3,0,0,1,.206-.566c.374.136.753.266,1.128.384a.3.3,0,0,1,.2.378A.292.292,0,0,1,2526.216,916.035Z" transform="translate(-2505.62 -861.618)" fill="#91b3fa"/>
        <path id="Trazado_116415" data-name="Trazado 116415" d="M2395.047,573.679a.3.3,0,0,1-.337.038c-.716-.378-1.426-.792-2.111-1.231a.3.3,0,0,1,.324-.507c.672.43,1.367.835,2.068,1.206a.3.3,0,0,1,.125.407A.294.294,0,0,1,2395.047,573.679Zm-5.249-3.553a.3.3,0,0,1-.391,0c-.62-.526-1.223-1.085-1.794-1.66a.3.3,0,1,1,.427-.424c.559.563,1.15,1.11,1.756,1.625a.3.3,0,0,1,.035.424A.343.343,0,0,1,2389.8,570.126Zm-4.346-4.614-.016.013a.3.3,0,0,1-.421-.06c-.487-.648-.952-1.326-1.384-2.014a.3.3,0,1,1,.51-.32c.423.674.879,1.337,1.356,1.972A.3.3,0,0,1,2385.452,565.512Zm-3.225-5.456a.289.289,0,0,1-.073.046.3.3,0,0,1-.4-.151c-.333-.739-.639-1.5-.909-2.268a.3.3,0,1,1,.568-.2c.265.75.564,1.5.891,2.221A.3.3,0,0,1,2382.228,560.056Zm-1.954-6.028a.3.3,0,0,1-.491-.168c-.165-.794-.3-1.606-.395-2.411a.3.3,0,0,1,.6-.072c.1.789.225,1.583.386,2.362A.3.3,0,0,1,2380.273,554.028Zm-.6-6.309a.3.3,0,0,1-.5-.233c.013-.812.061-1.632.141-2.439a.3.3,0,0,1,.6.06c-.079.789-.126,1.593-.138,2.388A.3.3,0,0,1,2379.677,547.719Zm.8-6.284a.3.3,0,0,1-.489-.3c.191-.789.417-1.58.673-2.349a.3.3,0,0,1,.572.19c-.251.753-.473,1.527-.659,2.3A.3.3,0,0,1,2380.474,541.435Zm2.16-5.956a.3.3,0,0,1-.466-.361c.358-.725.752-1.446,1.172-2.143a.3.3,0,1,1,.516.31c-.411.683-.8,1.389-1.148,2.1A.3.3,0,0,1,2382.634,535.479Zm3.406-5.344a.3.3,0,0,1-.43-.417c.509-.635,1.051-1.254,1.608-1.839a.3.3,0,1,1,.437.415c-.546.574-1.076,1.18-1.575,1.8A.286.286,0,0,1,2386.041,530.135Zm6.443-5.9a.243.243,0,0,1-.03.022c-.661.441-1.312.916-1.933,1.411a.3.3,0,0,1-.423-.048.3.3,0,0,1,.048-.423c.634-.506,1.3-.99,1.974-1.441a.3.3,0,0,1,.364.478Z" transform="translate(-2379.179 -521.247)" fill="#91b3fa"/>
        <path id="Trazado_116416" data-name="Trazado 116416" d="M2505.238,505.372a.288.288,0,0,1-.077.048c-.365.159-.729.326-1.082.5a.3.3,0,0,1-.262-.542c.36-.174.732-.345,1.1-.507a.3.3,0,0,1,.316.5Z" transform="translate(-2487.417 -504.843)" fill="#91b3fa"/>
      </g>
      <g id="Grupo_111551" data-name="Grupo 111551" transform="translate(7.03 6.267)">
        <path id="Trazado_116417" data-name="Trazado 116417" d="M2448.979,540.9a.345.345,0,0,0-.281.287l-.651,4.157a18.317,18.317,0,0,0-5,3.2L2439,547.394a.346.346,0,0,0-.378.135l-2.885,4.141a.345.345,0,0,0,0,.4l2.477,3.4a18.331,18.331,0,0,0-1.271,5.8l-3.674,2.049a.346.346,0,0,0-.172.363l.887,4.969a.345.345,0,0,0,.287.281l4.157.651a18.329,18.329,0,0,0,3.2,5l-1.149,4.045a.346.346,0,0,0,.135.378l4.141,2.886a.346.346,0,0,0,.4,0l3.4-2.477a18.326,18.326,0,0,0,5.8,1.271l2.049,3.675a.346.346,0,0,0,.363.172l4.968-.887a.346.346,0,0,0,.281-.287l.651-4.157a18.326,18.326,0,0,0,5-3.2l4.046,1.149a.346.346,0,0,0,.378-.135l2.886-4.141a.347.347,0,0,0,0-.4l-2.478-3.4a18.332,18.332,0,0,0,1.271-5.8l3.675-2.05a.346.346,0,0,0,.172-.363l-.887-4.969a.346.346,0,0,0-.287-.281l-4.157-.651a18.333,18.333,0,0,0-3.2-5l1.148-4.045a.345.345,0,0,0-.135-.378l-4.14-2.886a.346.346,0,0,0-.4,0l-3.4,2.477a18.335,18.335,0,0,0-5.8-1.271l-2.05-3.675a.345.345,0,0,0-.363-.172Z" transform="translate(-2433.094 -540.006)" fill="#b9ddfc"/>
        <g id="Grupo_111549" data-name="Grupo 111549" transform="translate(17.329 17.329)">
          <path id="Trazado_116418" data-name="Trazado 116418" d="M2574.146,681.573a4.951,4.951,0,0,1-1.193.759,4.907,4.907,0,1,1,1.193-.759Zm-5.856-6.791a4.018,4.018,0,0,0-1.137,1.628h0a4.03,4.03,0,1,0,2.112-2.248A4.051,4.051,0,0,0,2568.291,674.782Zm-1.559,1.469,0,0Z" transform="translate(-2565.988 -672.9)" fill="#fff"/>
        </g>
        <g id="Grupo_111550" data-name="Grupo 111550" transform="translate(9.666 9.767)">
          <path id="Trazado_116419" data-name="Trazado 116419" d="M2528.087,637.085a12.631,12.631,0,0,1-18.6-16.8q.091-.13.184-.258a12.776,12.776,0,0,1,1.4-1.6c.06-.057.119-.114.179-.17l.616.661a11.814,11.814,0,0,0-1.636,1.887l-.013.019a11.722,11.722,0,1,0,10.45-5.014l.063-.9a12.634,12.634,0,0,1,7.36,22.177Z" transform="translate(-2507.223 -614.908)" fill="#fff"/>
        </g>
      </g>
    </g>
  </g>
</svg>
